0
SECTION
2
HEADER
9
$INSUNITS
70
4
9
$ACADVER
1
AC1014
9
$HANDSEED
5
FFFF
0
ENDSEC
0
SECTION
2
TABLES
0
TABLE
2
VPORT
5
8
100
AcDbSymbolTable
0
ENDTAB
0
TABLE
2
LTYPE
5
5
100
AcDbSymbolTable
0
LTYPE
5
14
100
AcDbSymbolTableRecord
100
AcDbLinetypeTableRecord
2
BYBLOCK
70
0
0
LTYPE
5
15
100
AcDbSymbolTableRecord
100
AcDbLinetypeTableRecord
2
BYLAYER
70
0
0
ENDTAB
0
TABLE
2
LAYER
5
2
100
AcDbSymbolTable
70
2
0
LAYER
5
50
100
AcDbSymbolTableRecord
100
AcDbLayerTableRecord
2
0
70
0
6
CONTINUOUS
0
ENDTAB
0
TABLE
2
STYLE
5
3
100
AcDbSymbolTable
70
1
0
STYLE
5
11
100
AcDbSymbolTableRecord
100
AcDbTextStyleTableRecord
2
STANDARD
70
0
0
ENDTAB
0
TABLE
2
VIEW
5
6
100
AcDbSymbolTable
70
0
0
ENDTAB
0
TABLE
2
UCS
5
7
100
AcDbSymbolTable
70
0
0
ENDTAB
0
TABLE
2
APPID
5
9
100
AcDbSymbolTable
70
2
0
APPID
5
12
100
AcDbSymbolTableRecord
100
AcDbRegAppTableRecord
2
ACAD
70
0
0
ENDTAB
0
TABLE
2
DIMSTYLE
5
A
100
AcDbSymbolTable
70
1
0
ENDTAB
0
TABLE
2
BLOCK_RECORD
5
1
100
AcDbSymbolTable
70
1
0
BLOCK_RECORD
5
1F
100
AcDbSymbolTableRecord
100
AcDbBlockTableRecord
2
*MODEL_SPACE
0
BLOCK_RECORD
5
1B
100
AcDbSymbolTableRecord
100
AcDbBlockTableRecord
2
*PAPER_SPACE
0
ENDTAB
0
ENDSEC
0
SECTION
2
BLOCKS
0
BLOCK
5
20
100
AcDbEntity
100
AcDbBlockBegin
2
*MODEL_SPACE
0
ENDBLK
5
21
100
AcDbEntity
100
AcDbBlockEnd
0
BLOCK
5
1C
100
AcDbEntity
100
AcDbBlockBegin
2
*PAPER_SPACE
0
ENDBLK
5
1D
100
AcDbEntity
100
AcDbBlockEnd
0
ENDSEC
0
SECTION
2
ENTITIES
0
LWPOLYLINE
5
100
100
AcDbEntity
8
0
100
AcDbPolyline
90
28
70
1
43
0.0
10
167.1633570731818
20
-159.14607065869367
10
278.09915436439223
20
-159.14607065869365
42
0.41421356237309503
10
281.59915436439223
20
-155.64607065869367
10
281.59915436439223
20
-153.85219381433944
10
302.00000450015068
20
-153.85219381433944
10
302.00000450015068
20
-56.600937914731361
10
281.59915436439223
20
-56.600937914731361
10
281.59915436439223
20
-54.807061070377117
42
0.41421356237309503
10
278.09915436439223
20
-51.307061070377159
10
167.1633570731818
20
-51.307061070377102
42
0.41421356237309503
10
163.66335707318177
20
-54.807061070377117
10
163.66335707318177
20
-56.600937914731318
10
133.33664735246305
20
-56.600937914731318
10
133.33664735246305
20
-54.807061070377117
42
0.41421356237309503
10
129.83664735246305
20
-51.307061070377117
10
35.900850061252626
20
-51.307061070377102
42
0.41421356237309503
10
32.400850061252648
20
-54.807061070377081
10
32.400850061252655
20
-56.600937914731318
10
-4.8804999919059942
20
-56.600937914731318
10
-4.8804999919059933
20
-153.85219381433961
10
15.400850061252651
20
-153.85219381433947
10
15.400850061252651
20
-155.6460706586937
42
0.41421356237309503
10
18.900850061252612
20
-159.1460706586937
10
129.83664735246305
20
-159.1460706586937
42
0.41421356237309653
10
133.33664735246307
20
-155.64607065869367
10
133.33664735246305
20
-153.85219381433947
10
163.66335707318183
20
-153.85219381433947
10
163.66335707318183
20
-155.64607065869367
42
0.41421356237309503
0
LWPOLYLINE
5
101
100
AcDbEntity
8
0
100
AcDbPolyline
90
8
70
1
43
0.0
10
311.91956101430492
20
-61.307061070377088
10
311.91956101430492
20
-149.14607065869376
42
-0.41421356237309737
10
291.91956101430486
20
-169.14607065869373
10
5.119499840163285
20
-169.14607065869365
42
-0.41421356292858308
10
-14.880500159836711
20
-149.1460706207626
10
-14.880499993245412
20
-61.307061032446057
42
-0.41421356181760727
10
5.1195000067545848
20
-41.30706107037711
10
291.91956101430492
20
-41.307061070377102
42
-0.41421356237309476
0
CIRCLE
5
102
100
AcDbEntity
8
0
100
AcDbCircle
10
148.50000221282244
20
-157.65906626852112
30
0
40
1.5000000000000002
210
0
220
0
230
1
0
CIRCLE
5
103
100
AcDbEntity
8
0
100
AcDbCircle
10
0.051010163703947287
20
-157.65906626852112
30
0
40
1.5000000000000002
210
0
220
0
230
1
0
CIRCLE
5
104
100
AcDbEntity
8
0
100
AcDbCircle
10
296.94899426194092
20
-157.65906626852112
30
0
40
1.5000000000000002
210
0
220
0
230
1
0
CIRCLE
5
105
100
AcDbEntity
8
0
100
AcDbCircle
10
0.051010163703947287
20
-52.794065384687521
30
0
40
1.5000000000000002
210
0
220
0
230
1
0
CIRCLE
5
106
100
AcDbEntity
8
0
100
AcDbCircle
10
148.50000221282244
20
-52.794065384687521
30
0
40
1.5000000000000002
210
0
220
0
230
1
0
CIRCLE
5
107
100
AcDbEntity
8
0
100
AcDbCircle
10
296.94899426194092
20
-52.794065384687521
30
0
40
1.5000000000000002
210
0
220
0
230
1
0
CIRCLE
5
108
100
AcDbEntity
8
0
100
AcDbCircle
10
30.287713245772487
20
-52.794065384687485
30
0
40
1.5000000000000002
210
0
220
0
230
1
0
ENDSEC
0
SECTION
2
OBJECTS
0
DICTIONARY
5
C
100
AcDbDictionary
3
ACAD_GROUP
350
D
3
ACAD_MLINESTYLE
350
17
0
DICTIONARY
5
D
100
AcDbDictionary
0
DICTIONARY
5
1A
330
C
100
AcDbDictionary
0
DICTIONARY
5
17
100
AcDbDictionary
0
ENDSEC
0
EOF
