0
SECTION
2
HEADER
9
$INSUNITS
70
4
9
$ACADVER
1
AC1014
9
$HANDSEED
5
FFFF
0
ENDSEC
0
SECTION
2
TABLES
0
TABLE
2
VPORT
5
8
100
AcDbSymbolTable
0
ENDTAB
0
TABLE
2
LTYPE
5
5
100
AcDbSymbolTable
0
LTYPE
5
14
100
AcDbSymbolTableRecord
100
AcDbLinetypeTableRecord
2
BYBLOCK
70
0
0
LTYPE
5
15
100
AcDbSymbolTableRecord
100
AcDbLinetypeTableRecord
2
BYLAYER
70
0
0
ENDTAB
0
TABLE
2
LAYER
5
2
100
AcDbSymbolTable
70
2
0
LAYER
5
50
100
AcDbSymbolTableRecord
100
AcDbLayerTableRecord
2
0
70
0
6
CONTINUOUS
0
ENDTAB
0
TABLE
2
STYLE
5
3
100
AcDbSymbolTable
70
1
0
STYLE
5
11
100
AcDbSymbolTableRecord
100
AcDbTextStyleTableRecord
2
STANDARD
70
0
0
ENDTAB
0
TABLE
2
VIEW
5
6
100
AcDbSymbolTable
70
0
0
ENDTAB
0
TABLE
2
UCS
5
7
100
AcDbSymbolTable
70
0
0
ENDTAB
0
TABLE
2
APPID
5
9
100
AcDbSymbolTable
70
2
0
APPID
5
12
100
AcDbSymbolTableRecord
100
AcDbRegAppTableRecord
2
ACAD
70
0
0
ENDTAB
0
TABLE
2
DIMSTYLE
5
A
100
AcDbSymbolTable
70
1
0
ENDTAB
0
TABLE
2
BLOCK_RECORD
5
1
100
AcDbSymbolTable
70
1
0
BLOCK_RECORD
5
1F
100
AcDbSymbolTableRecord
100
AcDbBlockTableRecord
2
*MODEL_SPACE
0
BLOCK_RECORD
5
1B
100
AcDbSymbolTableRecord
100
AcDbBlockTableRecord
2
*PAPER_SPACE
0
ENDTAB
0
ENDSEC
0
SECTION
2
BLOCKS
0
BLOCK
5
20
100
AcDbEntity
100
AcDbBlockBegin
2
*MODEL_SPACE
0
ENDBLK
5
21
100
AcDbEntity
100
AcDbBlockEnd
0
BLOCK
5
1C
100
AcDbEntity
100
AcDbBlockBegin
2
*PAPER_SPACE
0
ENDBLK
5
1D
100
AcDbEntity
100
AcDbBlockEnd
0
ENDSEC
0
SECTION
2
ENTITIES
0
LINE
5
100
100
AcDbEntity
8
0
100
AcDbLine
10
179.58662647420059
20
-150.32674149887669
30
0
11
174.58675939645752
21
-150.32674149887669
31
0
0
SPLINE
5
101
100
AcDbEntity
8
0
100
AcDbSpline
70
0
71
3
72
8
73
4
74
0
42
0.000000001
43
0.0000000001
44
0.0000000001
40
0
40
0
40
0
40
0
40
1
40
1
40
1
40
1
10
189.44304465750039
20
-136.32656246591841
30
0
10
189.27733556465981
20
-136.32656246591841
30
0
10
189.14297684073512
20
-136.46092118984311
30
0
10
189.14297684073512
20
-136.62663028268361
30
0
0
SPLINE
5
102
100
AcDbEntity
8
0
100
AcDbSpline
70
0
71
3
72
8
73
4
74
0
42
0.000000001
43
0.0000000001
44
0.0000000001
40
0
40
0
40
0
40
0
40
1
40
1
40
1
40
1
10
189.14297684073512
20
-150.02667368211144
30
0
10
189.14297684073512
20
-150.19238277495191
30
0
10
189.27733556465981
20
-150.32674149887669
30
0
10
189.44304465750039
20
-150.32674149887669
30
0
0
LINE
5
103
100
AcDbEntity
8
0
100
AcDbLine
10
240.94308804740311
20
-150.32674149887669
30
0
11
189.44304465750039
21
-150.32674149887669
31
0
0
LINE
5
104
100
AcDbEntity
8
0
100
AcDbLine
10
189.14297684073512
20
-150.02667368211144
30
0
11
189.14297684073512
21
-136.62663028268361
31
0
0
SPLINE
5
105
100
AcDbEntity
8
0
100
AcDbSpline
70
0
71
3
72
8
73
4
74
0
42
0.000000001
43
0.0000000001
44
0.0000000001
40
0
40
0
40
0
40
0
40
1
40
1
40
1
40
1
10
246.59304464321292
20
-136.32656246591841
30
0
10
246.42733555037233
20
-136.32656246591841
30
0
10
246.29297682644759
20
-136.46092118984311
30
0
10
246.29297682644759
20
-136.62663028268361
30
0
0
SPLINE
5
106
100
AcDbEntity
8
0
100
AcDbSpline
70
0
71
3
72
8
73
4
74
0
42
0.000000001
43
0.0000000001
44
0.0000000001
40
0
40
0
40
0
40
0
40
1
40
1
40
1
40
1
10
259.99308804264064
20
-150.32674149887669
30
0
10
260.15845262593257
20
-150.32674149887669
30
0
10
260.29281134985735
20
-150.19238277495191
30
0
10
260.29281134985735
20
-150.02667368211144
30
0
0
SPLINE
5
107
100
AcDbEntity
8
0
100
AcDbSpline
70
0
71
3
72
8
73
4
74
0
42
0.000000001
43
0.0000000001
44
0.0000000001
40
0
40
0
40
0
40
0
40
1
40
1
40
1
40
1
10
173.58664817708942
20
-149.32663027950858
30
0
10
173.58664817708942
20
-149.87887908579418
30
0
10
174.03451059017189
20
-150.32674149887669
30
0
10
174.58675939645752
20
-150.32674149887669
30
0
0
SPLINE
5
108
100
AcDbEntity
8
0
100
AcDbSpline
70
0
71
3
72
8
73
4
74
0
42
0.000000001
43
0.0000000001
44
0.0000000001
40
0
40
0
40
0
40
0
40
1
40
1
40
1
40
1
10
246.29297682644759
20
-150.02667368211144
30
0
10
246.29297682644759
20
-150.19238277495191
30
0
10
246.42733555037233
20
-150.32674149887669
30
0
10
246.59304464321292
20
-150.32674149887669
30
0
0
LINE
5
109
100
AcDbEntity
8
0
100
AcDbLine
10
180.58673769356861
20
-135.82667911100859
30
0
11
180.58673769356861
21
-149.32663027950861
31
0
0
LINE
5
110
100
AcDbEntity
8
0
100
AcDbLine
10
174.58675939645752
20
-134.82656789164059
30
0
11
179.58662647420059
21
-134.82656789164059
31
0
0
LINE
5
111
100
AcDbEntity
8
0
100
AcDbLine
10
189.44304465750039
20
-136.32656246591841
30
0
11
240.94308804740308
21
-136.32656246591841
31
0
0
SPLINE
5
112
100
AcDbEntity
8
0
100
AcDbSpline
70
0
71
3
72
8
73
4
74
0
42
0.000000001
43
0.0000000001
44
0.0000000001
40
0
40
0
40
0
40
0
40
1
40
1
40
1
40
1
10
240.94308804740311
20
-150.32674149887669
30
0
10
241.1084526306951
20
-150.32674149887669
30
0
10
241.24281135461987
20
-150.19238277495191
30
0
10
241.24281135461987
20
-150.02667368211144
30
0
0
SPLINE
5
113
100
AcDbEntity
8
0
100
AcDbSpline
70
0
71
3
72
8
73
4
74
0
42
0.000000001
43
0.0000000001
44
0.0000000001
40
0
40
0
40
0
40
0
40
1
40
1
40
1
40
1
10
260.29281134985735
20
-136.62663028268361
30
0
10
260.29281134985735
20
-136.46092118984311
30
0
10
260.15845262593257
20
-136.32656246591841
30
0
10
259.99308804264064
20
-136.32656246591841
30
0
0
LINE
5
114
100
AcDbEntity
8
0
100
AcDbLine
10
246.29297682644759
20
-150.02667368211144
30
0
11
246.29297682644759
21
-136.62663028268361
31
0
0
LINE
5
115
100
AcDbEntity
8
0
100
AcDbLine
10
246.59304464321292
20
-136.32656246591841
30
0
11
259.99308804264064
21
-136.32656246591841
31
0
0
SPLINE
5
116
100
AcDbEntity
8
0
100
AcDbSpline
70
0
71
3
72
8
73
4
74
0
42
0.000000001
43
0.0000000001
44
0.0000000001
40
0
40
0
40
0
40
0
40
1
40
1
40
1
40
1
10
241.24281135461987
20
-136.62663028268361
30
0
10
241.24281135461987
20
-136.46092118984311
30
0
10
241.1084526306951
20
-136.32656246591841
30
0
10
240.94308804740311
20
-136.32656246591841
30
0
0
LINE
5
117
100
AcDbEntity
8
0
100
AcDbLine
10
241.24281135461987
20
-136.62663028268361
30
0
11
241.24281135461987
21
-150.02667368211144
31
0
0
LINE
5
118
100
AcDbEntity
8
0
100
AcDbLine
10
173.58664817708942
20
-149.32663027950858
30
0
11
173.58664817708942
21
-135.82667911100859
31
0
0
SPLINE
5
119
100
AcDbEntity
8
0
100
AcDbSpline
70
0
71
3
72
8
73
4
74
0
42
0.000000001
43
0.0000000001
44
0.0000000001
40
0
40
0
40
0
40
0
40
1
40
1
40
1
40
1
10
279.04308803787808
20
-150.32674149887669
30
0
10
279.20845262117007
20
-150.32674149887669
30
0
10
279.34281134509479
20
-150.19238277495191
30
0
10
279.34281134509479
20
-150.02667368211144
30
0
0
SPLINE
5
120
100
AcDbEntity
8
0
100
AcDbSpline
70
0
71
3
72
8
73
4
74
0
42
0.000000001
43
0.0000000001
44
0.0000000001
40
0
40
0
40
0
40
0
40
1
40
1
40
1
40
1
10
41.80692273260383
20
-117.2765624706809
30
0
10
41.641213639763315
20
-117.2765624706809
30
0
10
41.50702717061283
20
-117.41092119460559
30
0
10
41.50702717061283
20
-117.57663028744609
30
0
0
LINE
5
121
100
AcDbEntity
8
0
100
AcDbLine
10
55.20696613203161
20
-131.27674150363922
30
0
11
41.80692273260383
21
-131.27674150363922
31
0
0
SPLINE
5
122
100
AcDbEntity
8
0
100
AcDbSpline
70
0
71
3
72
8
73
4
74
0
42
0.000000001
43
0.0000000001
44
0.0000000001
40
0
40
0
40
0
40
0
40
1
40
1
40
1
40
1
10
79.906922723078807
20
-117.2765624706809
30
0
10
79.741213630238292
20
-117.2765624706809
30
0
10
79.607027161087828
20
-117.41092119460559
30
0
10
79.607027161087828
20
-117.57663028744609
30
0
0
LINE
5
123
100
AcDbEntity
8
0
100
AcDbLine
10
93.607033939271844
20
-117.57663028744609
30
0
11
93.607033939271844
21
-130.97667368687388
31
0
0
LINE
5
124
100
AcDbEntity
8
0
100
AcDbLine
10
93.306966122506608
20
-131.27674150363922
30
0
11
79.906922723078821
21
-131.27674150363922
31
0
0
SPLINE
5
125
100
AcDbEntity
8
0
100
AcDbSpline
70
0
71
3
72
8
73
4
74
0
42
0.000000001
43
0.0000000001
44
0.0000000001
40
0
40
0
40
0
40
0
40
1
40
1
40
1
40
1
10
74.556861689260089
20
-117.57663028744609
30
0
10
74.556861689260089
20
-117.41092119460559
30
0
10
74.42267522010961
20
-117.2765624706809
30
0
10
74.256966127269095
20
-117.2765624706809
30
0
0
SPLINE
5
126
100
AcDbEntity
8
0
100
AcDbSpline
70
0
71
3
72
8
73
4
74
0
42
0.000000001
43
0.0000000001
44
0.0000000001
40
0
40
0
40
0
40
0
40
1
40
1
40
1
40
1
10
93.306966122506608
20
-131.27674150363922
30
0
10
93.472675215347124
20
-131.27674150363922
30
0
10
93.607033939271844
20
-131.14238277971441
30
0
10
93.607033939271844
20
-130.97667368687391
30
0
0
LINE
5
127
100
AcDbEntity
8
0
100
AcDbLine
10
74.256966127269095
20
-131.27674150363922
30
0
11
60.856922727841329
21
-131.27674150363922
31
0
0
SPLINE
5
128
100
AcDbEntity
8
0
100
AcDbSpline
70
0
71
3
72
8
73
4
74
0
42
0.000000001
43
0.0000000001
44
0.0000000001
40
0
40
0
40
0
40
0
40
1
40
1
40
1
40
1
10
93.607033939271844
20
-117.57663028744609
30
0
10
93.607033939271844
20
-117.41092119460559
30
0
10
93.472675215347124
20
-117.2765624706809
30
0
10
93.306966122506608
20
-117.2765624706809
30
0
0
SPLINE
5
129
100
AcDbEntity
8
0
100
AcDbSpline
70
0
71
3
72
8
73
4
74
0
42
0.000000001
43
0.0000000001
44
0.0000000001
40
0
40
0
40
0
40
0
40
1
40
1
40
1
40
1
10
98.956922718316292
20
-117.2765624706809
30
0
10
98.791213625475791
20
-117.2765624706809
30
0
10
98.656854901551071
20
-117.41092119460559
30
0
10
98.656854901551071
20
-117.57663028744609
30
0
0
SPLINE
5
130
100
AcDbEntity
8
0
100
AcDbSpline
70
0
71
3
72
8
73
4
74
0
42
0.000000001
43
0.0000000001
44
0.0000000001
40
0
40
0
40
0
40
0
40
1
40
1
40
1
40
1
10
279.34281134509479
20
-136.62663028268361
30
0
10
279.34281134509479
20
-136.46092118984311
30
0
10
279.20845262117007
20
-136.32656246591841
30
0
10
279.04308803787808
20
-136.32656246591841
30
0
0
LINE
5
131
100
AcDbEntity
8
0
100
AcDbLine
10
41.80692273260383
20
-117.2765624706809
30
0
11
55.20696613203161
21
-117.2765624706809
31
0
0
LINE
5
132
100
AcDbEntity
8
0
100
AcDbLine
10
298.09308803311563
20
-150.32674149887669
30
0
11
284.69304463368786
21
-150.32674149887669
31
0
0
LINE
5
133
100
AcDbEntity
8
0
100
AcDbLine
10
41.50702717061283
20
-130.97667368687391
30
0
11
41.50702717061283
21
-117.57663028744609
31
0
0
SPLINE
5
134
100
AcDbEntity
8
0
100
AcDbSpline
70
0
71
3
72
8
73
4
74
0
42
0.000000001
43
0.0000000001
44
0.0000000001
40
0
40
0
40
0
40
0
40
1
40
1
40
1
40
1
10
55.20696613203161
20
-131.27674150363922
30
0
10
55.372675224872118
20
-131.27674150363922
30
0
10
55.506861694022604
20
-131.14238277971441
30
0
10
55.506861694022604
20
-130.97667368687391
30
0
0
SPLINE
5
135
100
AcDbEntity
8
0
100
AcDbSpline
70
0
71
3
72
8
73
4
74
0
42
0.000000001
43
0.0000000001
44
0.0000000001
40
0
40
0
40
0
40
0
40
1
40
1
40
1
40
1
10
79.607027161087828
20
-130.97667368687391
30
0
10
79.607027161087828
20
-131.14238277971441
30
0
10
79.741213630238292
20
-131.27674150363922
30
0
10
79.906922723078807
20
-131.27674150363922
30
0
0
LINE
5
136
100
AcDbEntity
8
0
100
AcDbLine
10
284.39297681692261
20
-150.02667368211144
30
0
11
284.39297681692261
21
-136.62663028268361
31
0
0
SPLINE
5
137
100
AcDbEntity
8
0
100
AcDbSpline
70
0
71
3
72
8
73
4
74
0
42
0.000000001
43
0.0000000001
44
0.0000000001
40
0
40
0
40
0
40
0
40
1
40
1
40
1
40
1
10
60.557027165850322
20
-130.97667368687391
30
0
10
60.557027165850322
20
-131.14238277971441
30
0
10
60.691213635000807
20
-131.27674150363922
30
0
10
60.856922727841329
20
-131.27674150363922
30
0
0
LINE
5
138
100
AcDbEntity
8
0
100
AcDbLine
10
79.607027161087828
20
-130.97667368687391
30
0
11
79.607027161087828
21
-117.57663028744609
31
0
0
LINE
5
139
100
AcDbEntity
8
0
100
AcDbLine
10
279.34281134509479
20
-136.62663028268361
30
0
11
279.34281134509479
21
-150.02667368211144
31
0
0
LINE
5
140
100
AcDbEntity
8
0
100
AcDbLine
10
279.04308803787808
20
-150.32674149887669
30
0
11
265.64304463845042
21
-150.32674149887669
31
0
0
SPLINE
5
141
100
AcDbEntity
8
0
100
AcDbSpline
70
0
71
3
72
8
73
4
74
0
42
0.000000001
43
0.0000000001
44
0.0000000001
40
0
40
0
40
0
40
0
40
1
40
1
40
1
40
1
10
98.656854901551071
20
-130.97667368687391
30
0
10
98.656854901551071
20
-131.14238277971441
30
0
10
98.791213625475791
20
-131.27674150363922
30
0
10
98.956922718316292
20
-131.27674150363922
30
0
0
LINE
5
142
100
AcDbEntity
8
0
100
AcDbLine
10
98.956922718316292
20
-117.2765624706809
30
0
11
112.35696611774409
21
-117.2765624706809
31
0
0
LINE
5
143
100
AcDbEntity
8
0
100
AcDbLine
10
259.99308804264064
20
-150.32674149887669
30
0
11
246.59304464321292
21
-150.32674149887669
31
0
0
LINE
5
144
100
AcDbEntity
8
0
100
AcDbLine
10
112.65703393450941
20
-117.57663028744609
30
0
11
112.65703393450941
21
-130.97667368687388
31
0
0
SPLINE
5
145
100
AcDbEntity
8
0
100
AcDbSpline
70
0
71
3
72
8
73
4
74
0
42
0.000000001
43
0.0000000001
44
0.0000000001
40
0
40
0
40
0
40
0
40
1
40
1
40
1
40
1
10
112.35696611774409
20
-131.27674150363922
30
0
10
112.52267521058459
20
-131.27674150363922
30
0
10
112.65703393450941
20
-131.14238277971441
30
0
10
112.65703393450941
20
-130.97667368687391
30
0
0
SPLINE
5
146
100
AcDbEntity
8
0
100
AcDbSpline
70
0
71
3
72
8
73
4
74
0
42
0.000000001
43
0.0000000001
44
0.0000000001
40
0
40
0
40
0
40
0
40
1
40
1
40
1
40
1
10
112.65703393450941
20
-117.57663028744609
30
0
10
112.65703393450941
20
-117.41092119460559
30
0
10
112.52267521058459
20
-117.2765624706809
30
0
10
112.35696611774409
20
-117.2765624706809
30
0
0
LINE
5
147
100
AcDbEntity
8
0
100
AcDbLine
10
79.906922723078807
20
-117.2765624706809
30
0
11
93.306966122506608
21
-117.2765624706809
31
0
0
LINE
5
148
100
AcDbEntity
8
0
100
AcDbLine
10
112.35696611774409
20
-131.27674150363922
30
0
11
98.956922718316292
21
-131.27674150363922
31
0
0
LINE
5
149
100
AcDbEntity
8
0
100
AcDbLine
10
98.656854901551071
20
-130.97667368687391
30
0
11
98.656854901551071
21
-117.57663028744609
31
0
0
SPLINE
5
150
100
AcDbEntity
8
0
100
AcDbSpline
70
0
71
3
72
8
73
4
74
0
42
0.000000001
43
0.0000000001
44
0.0000000001
40
0
40
0
40
0
40
0
40
1
40
1
40
1
40
1
10
60.856922727841329
20
-117.2765624706809
30
0
10
60.691213635000807
20
-117.2765624706809
30
0
10
60.557027165850322
20
-117.41092119460559
30
0
10
60.557027165850322
20
-117.57663028744609
30
0
0
SPLINE
5
151
100
AcDbEntity
8
0
100
AcDbSpline
70
0
71
3
72
8
73
4
74
0
42
0.000000001
43
0.0000000001
44
0.0000000001
40
0
40
0
40
0
40
0
40
1
40
1
40
1
40
1
10
284.69304463368786
20
-136.32656246591841
30
0
10
284.52733554084733
20
-136.32656246591841
30
0
10
284.39297681692261
20
-136.46092118984311
30
0
10
284.39297681692261
20
-136.62663028268361
30
0
0
SPLINE
5
152
100
AcDbEntity
8
0
100
AcDbSpline
70
0
71
3
72
8
73
4
74
0
42
0.000000001
43
0.0000000001
44
0.0000000001
40
0
40
0
40
0
40
0
40
1
40
1
40
1
40
1
10
284.39297681692261
20
-150.02667368211144
30
0
10
284.39297681692261
20
-150.19238277495191
30
0
10
284.52733554084733
20
-150.32674149887669
30
0
10
284.69304463368786
20
-150.32674149887669
30
0
0
SPLINE
5
153
100
AcDbEntity
8
0
100
AcDbSpline
70
0
71
3
72
8
73
4
74
0
42
0.000000001
43
0.0000000001
44
0.0000000001
40
0
40
0
40
0
40
0
40
1
40
1
40
1
40
1
10
298.39281134033234
20
-136.62663028268361
30
0
10
298.39281134033234
20
-136.46092118984311
30
0
10
298.25845261640762
20
-136.32656246591841
30
0
10
298.09308803311563
20
-136.32656246591841
30
0
0
SPLINE
5
154
100
AcDbEntity
8
0
100
AcDbSpline
70
0
71
3
72
8
73
4
74
0
42
0.000000001
43
0.0000000001
44
0.0000000001
40
0
40
0
40
0
40
0
40
1
40
1
40
1
40
1
10
74.256966127269095
20
-131.27674150363922
30
0
10
74.42267522010961
20
-131.27674150363922
30
0
10
74.556861689260089
20
-131.14238277971441
30
0
10
74.556861689260089
20
-130.97667368687391
30
0
0
LINE
5
155
100
AcDbEntity
8
0
100
AcDbLine
10
284.69304463368786
20
-136.32656246591841
30
0
11
298.09308803311563
21
-136.32656246591841
31
0
0
LINE
5
156
100
AcDbEntity
8
0
100
AcDbLine
10
55.506861694022604
20
-117.57663028744609
30
0
11
55.506861694022604
21
-130.97667368687391
31
0
0
LINE
5
157
100
AcDbEntity
8
0
100
AcDbLine
10
60.856922727841329
20
-117.2765624706809
30
0
11
74.256966127269095
21
-117.2765624706809
31
0
0
SPLINE
5
158
100
AcDbEntity
8
0
100
AcDbSpline
70
0
71
3
72
8
73
4
74
0
42
0.000000001
43
0.0000000001
44
0.0000000001
40
0
40
0
40
0
40
0
40
1
40
1
40
1
40
1
10
41.50702717061283
20
-130.97667368687391
30
0
10
41.50702717061283
20
-131.14238277971441
30
0
10
41.641213639763315
20
-131.27674150363922
30
0
10
41.80692273260383
20
-131.27674150363922
30
0
0
SPLINE
5
159
100
AcDbEntity
8
0
100
AcDbSpline
70
0
71
3
72
8
73
4
74
0
42
0.000000001
43
0.0000000001
44
0.0000000001
40
0
40
0
40
0
40
0
40
1
40
1
40
1
40
1
10
298.09308803311563
20
-150.32674149887669
30
0
10
298.25845261640762
20
-150.32674149887669
30
0
10
298.39281134033234
20
-150.19238277495191
30
0
10
298.39281134033234
20
-150.02667368211144
30
0
0
LINE
5
160
100
AcDbEntity
8
0
100
AcDbLine
10
265.64304463845042
20
-136.32656246591841
30
0
11
279.04308803787808
21
-136.32656246591841
31
0
0
LINE
5
161
100
AcDbEntity
8
0
100
AcDbLine
10
74.556861689260089
20
-117.57663028744609
30
0
11
74.556861689260089
21
-130.97667368687391
31
0
0
LINE
5
162
100
AcDbEntity
8
0
100
AcDbLine
10
60.557027165850322
20
-130.97667368687391
30
0
11
60.557027165850322
21
-117.57663028744609
31
0
0
SPLINE
5
163
100
AcDbEntity
8
0
100
AcDbSpline
70
0
71
3
72
8
73
4
74
0
42
0.000000001
43
0.0000000001
44
0.0000000001
40
0
40
0
40
0
40
0
40
1
40
1
40
1
40
1
10
265.34297682168511
20
-150.02667368211144
30
0
10
265.34297682168511
20
-150.19238277495191
30
0
10
265.47733554560983
20
-150.32674149887669
30
0
10
265.64304463845042
20
-150.32674149887669
30
0
0
LINE
5
164
100
AcDbEntity
8
0
100
AcDbLine
10
298.39281134033234
20
-136.62663028268361
30
0
11
298.39281134033234
21
-150.02667368211144
31
0
0
SPLINE
5
165
100
AcDbEntity
8
0
100
AcDbSpline
70
0
71
3
72
8
73
4
74
0
42
0.000000001
43
0.0000000001
44
0.0000000001
40
0
40
0
40
0
40
0
40
1
40
1
40
1
40
1
10
55.506861694022604
20
-117.57663028744609
30
0
10
55.506861694022604
20
-117.41092119460559
30
0
10
55.372675224872118
20
-117.2765624706809
30
0
10
55.20696613203161
20
-117.2765624706809
30
0
0
SPLINE
5
166
100
AcDbEntity
8
0
100
AcDbSpline
70
0
71
3
72
8
73
4
74
0
42
0.000000001
43
0.0000000001
44
0.0000000001
40
0
40
0
40
0
40
0
40
1
40
1
40
1
40
1
10
265.64304463845042
20
-136.32656246591841
30
0
10
265.47733554560983
20
-136.32656246591841
30
0
10
265.34297682168511
20
-136.46092118984311
30
0
10
265.34297682168511
20
-136.62663028268361
30
0
0
SPLINE
5
167
100
AcDbEntity
8
0
100
AcDbSpline
70
0
71
3
72
8
73
4
74
0
42
0.000000001
43
0.0000000001
44
0.0000000001
40
0
40
0
40
0
40
0
40
1
40
1
40
1
40
1
10
180.58673769356861
20
-135.82667911100859
30
0
10
180.58673769356861
20
-135.2744303047231
30
0
10
180.1388752804861
20
-134.82656789164059
30
0
10
179.58662647420059
20
-134.82656789164059
30
0
0
LINE
5
168
100
AcDbEntity
8
0
100
AcDbLine
10
24.837415900908695
20
-150.02667368211144
30
0
11
24.837415900908695
21
-136.62663028268361
31
0
0
SPLINE
5
169
100
AcDbEntity
8
0
100
AcDbSpline
70
0
71
3
72
8
73
4
74
0
42
0.000000001
43
0.0000000001
44
0.0000000001
40
0
40
0
40
0
40
0
40
1
40
1
40
1
40
1
10
24.837415900908695
20
-150.02667368211144
30
0
10
24.837415900908695
20
-150.19238277495191
30
0
10
24.971774624833451
20
-150.32674149887669
30
0
10
25.137483717673959
20
-150.32674149887669
30
0
0
SPLINE
5
170
100
AcDbEntity
8
0
100
AcDbSpline
70
0
71
3
72
8
73
4
74
0
42
0.000000001
43
0.0000000001
44
0.0000000001
40
0
40
0
40
0
40
0
40
1
40
1
40
1
40
1
10
80.586640062318622
20
-135.82667911100859
30
0
10
80.586640062318622
20
-135.2744303047231
30
0
10
80.138949904010417
20
-134.82656789164059
30
0
10
79.586701097724855
20
-134.82656789164059
30
0
0
SPLINE
5
171
100
AcDbEntity
8
0
100
AcDbSpline
70
0
71
3
72
8
73
4
74
0
42
0.000000001
43
0.0000000001
44
0.0000000001
40
0
40
0
40
0
40
0
40
1
40
1
40
1
40
1
10
74.586661765207523
20
-134.82656789164059
30
0
10
74.034412958921962
20
-134.82656789164059
30
0
10
73.586722800613742
20
-135.2744303047231
30
0
10
73.586722800613742
20
-135.82667911100859
30
0
0
SPLINE
5
172
100
AcDbEntity
8
0
100
AcDbSpline
70
0
71
3
72
8
73
4
74
0
42
0.000000001
43
0.0000000001
44
0.0000000001
40
0
40
0
40
0
40
0
40
1
40
1
40
1
40
1
10
213.25692268974134
20
-117.2765624706809
30
0
10
213.09121359690081
20
-117.2765624706809
30
0
10
212.95685487297612
20
-117.41092119460559
30
0
10
212.95685487297612
20
-117.57663028744609
30
0
0
SPLINE
5
173
100
AcDbEntity
8
0
100
AcDbSpline
70
0
71
3
72
8
73
4
74
0
42
0.000000001
43
0.0000000001
44
0.0000000001
40
0
40
0
40
0
40
0
40
1
40
1
40
1
40
1
10
226.65696608916909
20
-131.27674150363922
30
0
10
226.82267518200959
20
-131.27674150363922
30
0
10
226.9570339059344
20
-131.14238277971441
30
0
10
226.9570339059344
20
-130.97667368687391
30
0
0
LINE
5
174
100
AcDbEntity
8
0
100
AcDbLine
10
212.95685487297612
20
-130.97667368687391
30
0
11
212.95685487297612
21
-117.57663028744609
31
0
0
LINE
5
175
100
AcDbEntity
8
0
100
AcDbLine
10
226.9570339059344
20
-117.57663028744609
30
0
11
226.9570339059344
21
-130.97667368687391
31
0
0
LINE
5
176
100
AcDbEntity
8
0
100
AcDbLine
10
120.3866224199902
20
-136.32656246591841
30
0
11
133.78666581941792
21
-136.32656246591841
31
0
0
SPLINE
5
177
100
AcDbEntity
8
0
100
AcDbSpline
70
0
71
3
72
8
73
4
74
0
42
0.000000001
43
0.0000000001
44
0.0000000001
40
0
40
0
40
0
40
0
40
1
40
1
40
1
40
1
10
212.95685487297612
20
-130.97667368687391
30
0
10
212.95685487297612
20
-131.14238277971441
30
0
10
213.09121359690081
20
-131.27674150363922
30
0
10
213.25692268974134
20
-131.27674150363922
30
0
0
LINE
5
178
100
AcDbEntity
8
0
100
AcDbLine
10
226.65696608916909
20
-131.27674150363922
30
0
11
213.25692268974134
21
-131.27674150363922
31
0
0
SPLINE
5
179
100
AcDbEntity
8
0
100
AcDbSpline
70
0
71
3
72
8
73
4
74
0
42
0.000000001
43
0.0000000001
44
0.0000000001
40
0
40
0
40
0
40
0
40
1
40
1
40
1
40
1
10
239.45032817364444
20
-117.2765624706809
30
0
10
239.28461908080394
20
-117.2765624706809
30
0
10
239.15060486642761
20
-117.41092119460559
30
0
10
239.15060486642761
20
-117.57663028744609
30
0
0
SPLINE
5
180
100
AcDbEntity
8
0
100
AcDbSpline
70
0
71
3
72
8
73
4
74
0
42
0.000000001
43
0.0000000001
44
0.0000000001
40
0
40
0
40
0
40
0
40
1
40
1
40
1
40
1
10
48.649399130632801
20
-150.02667368211144
30
0
10
48.649399130632801
20
-150.19238277495191
30
0
10
48.783757854557535
20
-150.32674149887669
30
0
10
48.949466947398044
20
-150.32674149887669
30
0
0
SPLINE
5
181
100
AcDbEntity
8
0
100
AcDbSpline
70
0
71
3
72
8
73
4
74
0
42
0.000000001
43
0.0000000001
44
0.0000000001
40
0
40
0
40
0
40
0
40
1
40
1
40
1
40
1
10
120.3866224199902
20
-136.32656246591841
30
0
10
120.22108558192392
20
-136.32656246591841
30
0
10
120.08672685799921
20
-136.46092118984311
30
0
10
120.08672685799921
20
-136.62663028268361
30
0
0
LINE
5
182
100
AcDbEntity
8
0
100
AcDbLine
10
207.60696609393159
20
-131.27674150363922
30
0
11
194.20692269450385
21
-131.27674150363922
31
0
0
LINE
5
183
100
AcDbEntity
8
0
100
AcDbLine
10
253.1504393898374
20
-117.57663028744609
30
0
11
253.1504393898374
21
-130.97667368687388
31
0
0
SPLINE
5
184
100
AcDbEntity
8
0
100
AcDbSpline
70
0
71
3
72
8
73
4
74
0
42
0.000000001
43
0.0000000001
44
0.0000000001
40
0
40
0
40
0
40
0
40
1
40
1
40
1
40
1
10
174.58675939645752
20
-134.82656789164059
30
0
10
174.03451059017189
20
-134.82656789164059
30
0
10
173.58664817708942
20
-135.2744303047231
30
0
10
173.58664817708942
20
-135.82667911100859
30
0
0
LINE
5
185
100
AcDbEntity
8
0
100
AcDbLine
10
25.137483717673959
20
-136.32656246591841
30
0
11
38.537527117101725
21
-136.32656246591841
31
0
0
SPLINE
5
186
100
AcDbEntity
8
0
100
AcDbSpline
70
0
71
3
72
8
73
4
74
0
42
0.000000001
43
0.0000000001
44
0.0000000001
40
0
40
0
40
0
40
0
40
1
40
1
40
1
40
1
10
133.78666581941792
20
-150.32674149887669
30
0
10
133.95237491225842
20
-150.32674149887669
30
0
10
134.0867336361832
20
-150.19238277495191
30
0
10
134.0867336361832
20
-150.02667368211144
30
0
0
SPLINE
5
187
100
AcDbEntity
8
0
100
AcDbSpline
70
0
71
3
72
8
73
4
74
0
42
0.000000001
43
0.0000000001
44
0.0000000001
40
0
40
0
40
0
40
0
40
1
40
1
40
1
40
1
10
118.00692271355381
20
-117.2765624706809
30
0
10
117.8412136207133
20
-117.2765624706809
30
0
10
117.7068548967886
20
-117.41092119460559
30
0
10
117.7068548967886
20
-117.57663028744609
30
0
0
LINE
5
188
100
AcDbEntity
8
0
100
AcDbLine
10
62.649405908816817
20
-136.62663028268361
30
0
11
62.649405908816817
21
-150.02667368211144
31
0
0
LINE
5
189
100
AcDbEntity
8
0
100
AcDbLine
10
120.08672685799921
20
-150.02667368211144
30
0
11
120.08672685799921
21
-136.62663028268361
31
0
0
LINE
5
190
100
AcDbEntity
8
0
100
AcDbLine
10
193.90685487773857
20
-130.97667368687391
30
0
11
193.90685487773857
21
-117.57663028744609
31
0
0
SPLINE
5
191
100
AcDbEntity
8
0
100
AcDbSpline
70
0
71
3
72
8
73
4
74
0
42
0.000000001
43
0.0000000001
44
0.0000000001
40
0
40
0
40
0
40
0
40
1
40
1
40
1
40
1
10
252.85037157307218
20
-131.27674150363922
30
0
10
253.01608066591271
20
-131.27674150363922
30
0
10
253.1504393898374
20
-131.14238277971441
30
0
10
253.1504393898374
20
-130.97667368687391
30
0
0
SPLINE
5
192
100
AcDbEntity
8
0
100
AcDbSpline
70
0
71
3
72
8
73
4
74
0
42
0.000000001
43
0.0000000001
44
0.0000000001
40
0
40
0
40
0
40
0
40
1
40
1
40
1
40
1
10
239.15060486642761
20
-130.97667368687391
30
0
10
239.15060486642761
20
-131.14238277971441
30
0
10
239.28461908080394
20
-131.27674150363922
30
0
10
239.45032817364444
20
-131.27674150363922
30
0
0
LINE
5
193
100
AcDbEntity
8
0
100
AcDbLine
10
239.15060486642761
20
-130.97667368687391
30
0
11
239.15060486642761
21
-117.57663028744609
31
0
0
SPLINE
5
194
100
AcDbEntity
8
0
100
AcDbSpline
70
0
71
3
72
8
73
4
74
0
42
0.000000001
43
0.0000000001
44
0.0000000001
40
0
40
0
40
0
40
0
40
1
40
1
40
1
40
1
10
134.0867336361832
20
-136.62663028268361
30
0
10
134.0867336361832
20
-136.46092118984311
30
0
10
133.95237491225842
20
-136.32656246591841
30
0
10
133.78666581941792
20
-136.32656246591841
30
0
0
SPLINE
5
195
100
AcDbEntity
8
0
100
AcDbSpline
70
0
71
3
72
8
73
4
74
0
42
0.000000001
43
0.0000000001
44
0.0000000001
40
0
40
0
40
0
40
0
40
1
40
1
40
1
40
1
10
253.1504393898374
20
-117.57663028744609
30
0
10
253.1504393898374
20
-117.41092119460559
30
0
10
253.01608066591271
20
-117.2765624706809
30
0
10
252.85037157307218
20
-117.2765624706809
30
0
0
LINE
5
196
100
AcDbEntity
8
0
100
AcDbLine
10
252.85037157307218
20
-131.27674150363922
30
0
11
239.45032817364444
21
-131.27674150363922
31
0
0
SPLINE
5
197
100
AcDbEntity
8
0
100
AcDbSpline
70
0
71
3
72
8
73
4
74
0
42
0.000000001
43
0.0000000001
44
0.0000000001
40
0
40
0
40
0
40
0
40
1
40
1
40
1
40
1
10
226.9570339059344
20
-117.57663028744609
30
0
10
226.9570339059344
20
-117.41092119460559
30
0
10
226.82267518200959
20
-117.2765624706809
30
0
10
226.65696608916909
20
-117.2765624706809
30
0
0
SPLINE
5
198
100
AcDbEntity
8
0
100
AcDbSpline
70
0
71
3
72
8
73
4
74
0
42
0.000000001
43
0.0000000001
44
0.0000000001
40
0
40
0
40
0
40
0
40
1
40
1
40
1
40
1
10
279.34384487374052
20
-117.57663028744609
30
0
10
279.34384487374052
20
-117.41092119460559
30
0
10
279.20948614981575
20
-117.2765624706809
30
0
10
279.04377705697516
20
-117.2765624706809
30
0
0
SPLINE
5
199
100
AcDbEntity
8
0
100
AcDbSpline
70
0
71
3
72
8
73
4
74
0
42
0.000000001
43
0.0000000001
44
0.0000000001
40
0
40
0
40
0
40
0
40
1
40
1
40
1
40
1
10
62.349510346825816
20
-150.32674149887669
30
0
10
62.515047184892083
20
-150.32674149887669
30
0
10
62.649405908816817
20
-150.19238277495191
30
0
10
62.649405908816817
20
-150.02667368211144
30
0
0
LINE
5
200
100
AcDbEntity
8
0
100
AcDbLine
10
133.78666581941792
20
-150.32674149887669
30
0
11
120.3866224199902
21
-150.32674149887669
31
0
0
SPLINE
5
201
100
AcDbEntity
8
0
100
AcDbSpline
70
0
71
3
72
8
73
4
74
0
42
0.000000001
43
0.0000000001
44
0.0000000001
40
0
40
0
40
0
40
0
40
1
40
1
40
1
40
1
10
265.64407816709593
20
-117.2765624706809
30
0
10
265.4783690742554
20
-117.2765624706809
30
0
10
265.34401035033068
20
-117.41092119460559
30
0
10
265.34401035033068
20
-117.57663028744609
30
0
0
LINE
5
202
100
AcDbEntity
8
0
100
AcDbLine
10
265.64407816709593
20
-117.2765624706809
30
0
11
279.04377705697516
21
-117.2765624706809
31
0
0
SPLINE
5
203
100
AcDbEntity
8
0
100
AcDbSpline
70
0
71
3
72
8
73
4
74
0
42
0.000000001
43
0.0000000001
44
0.0000000001
40
0
40
0
40
0
40
0
40
1
40
1
40
1
40
1
10
279.04377705697516
20
-131.27674150363922
30
0
10
279.20948614981575
20
-131.27674150363922
30
0
10
279.34384487374052
20
-131.14238277971441
30
0
10
279.34384487374052
20
-130.97667368687391
30
0
0
LINE
5
204
100
AcDbEntity
8
0
100
AcDbLine
10
38.537527117101725
20
-150.32674149887669
30
0
11
25.137483717673959
21
-150.32674149887669
31
0
0
LINE
5
205
100
AcDbEntity
8
0
100
AcDbLine
10
62.349510346825816
20
-150.32674149887669
30
0
11
48.949466947398044
21
-150.32674149887669
31
0
0
SPLINE
5
206
100
AcDbEntity
8
0
100
AcDbSpline
70
0
71
3
72
8
73
4
74
0
42
0.000000001
43
0.0000000001
44
0.0000000001
40
0
40
0
40
0
40
0
40
1
40
1
40
1
40
1
10
120.08672685799921
20
-150.02667368211144
30
0
10
120.08672685799921
20
-150.19238277495191
30
0
10
120.22108558192392
20
-150.32674149887669
30
0
10
120.3866224199902
20
-150.32674149887669
30
0
0
LINE
5
207
100
AcDbEntity
8
0
100
AcDbLine
10
213.25692268974134
20
-117.2765624706809
30
0
11
226.65696608916909
21
-117.2765624706809
31
0
0
SPLINE
5
208
100
AcDbEntity
8
0
100
AcDbSpline
70
0
71
3
72
8
73
4
74
0
42
0.000000001
43
0.0000000001
44
0.0000000001
40
0
40
0
40
0
40
0
40
1
40
1
40
1
40
1
10
265.34401035033068
20
-130.97667368687391
30
0
10
265.34401035033068
20
-131.14238277971441
30
0
10
265.4783690742554
20
-131.27674150363922
30
0
10
265.64407816709593
20
-131.27674150363922
30
0
0
LINE
5
209
100
AcDbEntity
8
0
100
AcDbLine
10
74.586661765207523
20
-134.82656789164059
30
0
11
79.586701097724855
21
-134.82656789164059
31
0
0
LINE
5
210
100
AcDbEntity
8
0
100
AcDbLine
10
239.45032817364444
20
-117.2765624706809
30
0
11
252.85037157307218
21
-117.2765624706809
31
0
0
LINE
5
211
100
AcDbEntity
8
0
100
AcDbLine
10
73.586722800613742
20
-149.32663027950858
30
0
11
73.586722800613742
21
-135.82667911100859
31
0
0
LINE
5
212
100
AcDbEntity
8
0
100
AcDbLine
10
38.837422679092725
20
-136.62663028268361
30
0
11
38.837422679092725
21
-150.02667368211144
31
0
0
SPLINE
5
213
100
AcDbEntity
8
0
100
AcDbSpline
70
0
71
3
72
8
73
4
74
0
42
0.000000001
43
0.0000000001
44
0.0000000001
40
0
40
0
40
0
40
0
40
1
40
1
40
1
40
1
10
73.586722800613742
20
-149.32663027950858
30
0
10
73.586722800613742
20
-149.87887908579418
30
0
10
74.034412958921962
20
-150.32674149887669
30
0
10
74.586661765207523
20
-150.32674149887669
30
0
0
LINE
5
214
100
AcDbEntity
8
0
100
AcDbLine
10
48.649399130632801
20
-150.02667368211144
30
0
11
48.649399130632801
21
-136.62663028268361
31
0
0
LINE
5
215
100
AcDbEntity
8
0
100
AcDbLine
10
134.0867336361832
20
-136.62663028268361
30
0
11
134.0867336361832
21
-150.02667368211144
31
0
0
SPLINE
5
216
100
AcDbEntity
8
0
100
AcDbSpline
70
0
71
3
72
8
73
4
74
0
42
0.000000001
43
0.0000000001
44
0.0000000001
40
0
40
0
40
0
40
0
40
1
40
1
40
1
40
1
10
62.649405908816817
20
-136.62663028268361
30
0
10
62.649405908816817
20
-136.46092118984311
30
0
10
62.515047184892083
20
-136.32656246591841
30
0
10
62.349510346825816
20
-136.32656246591841
30
0
0
LINE
5
217
100
AcDbEntity
8
0
100
AcDbLine
10
79.586701097724855
20
-150.32674149887669
30
0
11
74.586661765207523
21
-150.32674149887669
31
0
0
SPLINE
5
218
100
AcDbEntity
8
0
100
AcDbSpline
70
0
71
3
72
8
73
4
74
0
42
0.000000001
43
0.0000000001
44
0.0000000001
40
0
40
0
40
0
40
0
40
1
40
1
40
1
40
1
10
48.949466947398044
20
-136.32656246591841
30
0
10
48.783757854557535
20
-136.32656246591841
30
0
10
48.649399130632801
20
-136.46092118984311
30
0
10
48.649399130632801
20
-136.62663028268361
30
0
0
SPLINE
5
219
100
AcDbEntity
8
0
100
AcDbSpline
70
0
71
3
72
8
73
4
74
0
42
0.000000001
43
0.0000000001
44
0.0000000001
40
0
40
0
40
0
40
0
40
1
40
1
40
1
40
1
10
79.586701097724855
20
-150.32674149887669
30
0
10
80.138949904010417
20
-150.32674149887669
30
0
10
80.586640062318622
20
-149.87887908579418
30
0
10
80.586640062318622
20
-149.32663027950858
30
0
0
LINE
5
220
100
AcDbEntity
8
0
100
AcDbLine
10
80.586640062318622
20
-135.82667911100859
30
0
11
80.586640062318622
21
-149.32663027950858
31
0
0
LINE
5
221
100
AcDbEntity
8
0
100
AcDbLine
10
48.949466947398044
20
-136.32656246591841
30
0
11
62.349510346825816
21
-136.32656246591841
31
0
0
SPLINE
5
222
100
AcDbEntity
8
0
100
AcDbSpline
70
0
71
3
72
8
73
4
74
0
42
0.000000001
43
0.0000000001
44
0.0000000001
40
0
40
0
40
0
40
0
40
1
40
1
40
1
40
1
10
179.58662647420059
20
-150.32674149887669
30
0
10
180.1388752804861
20
-150.32674149887669
30
0
10
180.58673769356861
20
-149.87887908579418
30
0
10
180.58673769356861
20
-149.32663027950858
30
0
0
SPLINE
5
223
100
AcDbEntity
8
0
100
AcDbSpline
70
0
71
3
72
8
73
4
74
0
42
0.000000001
43
0.0000000001
44
0.0000000001
40
0
40
0
40
0
40
0
40
1
40
1
40
1
40
1
10
38.537527117101725
20
-150.32674149887669
30
0
10
38.703063955167977
20
-150.32674149887669
30
0
10
38.837422679092725
20
-150.19238277495191
30
0
10
38.837422679092725
20
-150.02667368211144
30
0
0
SPLINE
5
224
100
AcDbEntity
8
0
100
AcDbSpline
70
0
71
3
72
8
73
4
74
0
42
0.000000001
43
0.0000000001
44
0.0000000001
40
0
40
0
40
0
40
0
40
1
40
1
40
1
40
1
10
298.09377705221266
20
-131.27674150363922
30
0
10
298.25948614505319
20
-131.27674150363922
30
0
10
298.39384486897802
20
-131.14238277971441
30
0
10
298.39384486897802
20
-130.97667368687391
30
0
0
LINE
5
225
100
AcDbEntity
8
0
100
AcDbLine
10
1.3255004879498751
20
-98.226562475443359
30
0
11
19.488216140961281
21
-98.226562475443359
31
0
0
LINE
5
226
100
AcDbEntity
8
0
100
AcDbLine
10
32.281922734985073
20
-98.226562475443359
30
0
11
45.68196613441286
21
-98.226562475443359
31
0
0
LINE
5
227
100
AcDbEntity
8
0
100
AcDbLine
10
31.982027172994076
20
-111.92667369163641
30
0
11
31.982027172994076
21
-98.526630292208637
31
0
0
SPLINE
5
228
100
AcDbEntity
8
0
100
AcDbSpline
70
0
71
3
72
8
73
4
74
0
42
0.000000001
43
0.0000000001
44
0.0000000001
40
0
40
0
40
0
40
0
40
1
40
1
40
1
40
1
10
131.40696611298159
20
-131.27674150363922
30
0
10
131.57267520582209
20
-131.27674150363922
30
0
10
131.70703392974693
20
-131.14238277971441
30
0
10
131.70703392974693
20
-130.97667368687391
30
0
0
LINE
5
229
100
AcDbEntity
8
0
100
AcDbLine
10
131.70703392974693
20
-117.57663028744609
30
0
11
131.70703392974693
21
-130.97667368687391
31
0
0
SPLINE
5
230
100
AcDbEntity
8
0
100
AcDbSpline
70
0
71
3
72
8
73
4
74
0
42
0.000000001
43
0.0000000001
44
0.0000000001
40
0
40
0
40
0
40
0
40
1
40
1
40
1
40
1
10
136.7568548920261
20
-130.97667368687391
30
0
10
136.7568548920261
20
-131.14238277971441
30
0
10
136.89121361595079
20
-131.27674150363922
30
0
10
137.05692270879129
20
-131.27674150363922
30
0
0
LINE
5
231
100
AcDbEntity
8
0
100
AcDbLine
10
150.45696610821909
20
-131.27674150363922
30
0
11
137.05692270879129
21
-131.27674150363922
31
0
0
LINE
5
232
100
AcDbEntity
8
0
100
AcDbLine
10
194.20692269450382
20
-117.2765624706809
30
0
11
207.60696609393153
21
-117.2765624706809
31
0
0
LINE
5
233
100
AcDbEntity
8
0
100
AcDbLine
10
136.7568548920261
20
-130.97667368687391
30
0
11
136.7568548920261
21
-117.57663028744609
31
0
0
LINE
5
234
100
AcDbEntity
8
0
100
AcDbLine
10
284.39401034556818
20
-130.97667368687391
30
0
11
284.39401034556818
21
-117.57663028744609
31
0
0
SPLINE
5
235
100
AcDbEntity
8
0
100
AcDbSpline
70
0
71
3
72
8
73
4
74
0
42
0.000000001
43
0.0000000001
44
0.0000000001
40
0
40
0
40
0
40
0
40
1
40
1
40
1
40
1
10
19.488216140961281
20
-112.2267415084017
30
0
10
19.6539252338018
20
-112.2267415084017
30
0
10
19.788111702952278
20
-112.09238278447691
30
0
10
19.788111702952278
20
-111.92667369163641
30
0
0
LINE
5
236
100
AcDbEntity
8
0
100
AcDbLine
10
51.331922730222587
20
-98.226562475443359
30
0
11
64.73196612965036
21
-98.226562475443359
31
0
0
SPLINE
5
237
100
AcDbEntity
8
0
100
AcDbSpline
70
0
71
3
72
8
73
4
74
0
42
0.000000001
43
0.0000000001
44
0.0000000001
40
0
40
0
40
0
40
0
40
1
40
1
40
1
40
1
10
284.69407816233337
20
-117.2765624706809
30
0
10
284.5283690694929
20
-117.2765624706809
30
0
10
284.39401034556818
20
-117.41092119460559
30
0
10
284.39401034556818
20
-117.57663028744609
30
0
0
SPLINE
5
238
100
AcDbEntity
8
0
100
AcDbSpline
70
0
71
3
72
8
73
4
74
0
42
0.000000001
43
0.0000000001
44
0.0000000001
40
0
40
0
40
0
40
0
40
1
40
1
40
1
40
1
10
1.3255004879498751
20
-98.226562475443359
30
0
10
1.1597913951093579
20
-98.226562475443359
30
0
10
1.025432671184614
20
-98.360921199368136
30
0
10
1.025432671184614
20
-98.526630292208637
30
0
0
SPLINE
5
239
100
AcDbEntity
8
0
100
AcDbSpline
70
0
71
3
72
8
73
4
74
0
42
0.000000001
43
0.0000000001
44
0.0000000001
40
0
40
0
40
0
40
0
40
1
40
1
40
1
40
1
10
45.68196613441286
20
-112.2267415084017
30
0
10
45.847675227253362
20
-112.2267415084017
30
0
10
45.981861696403847
20
-112.09238278447691
30
0
10
45.981861696403847
20
-111.92667369163641
30
0
0
SPLINE
5
240
100
AcDbEntity
8
0
100
AcDbSpline
70
0
71
3
72
8
73
4
74
0
42
0.000000001
43
0.0000000001
44
0.0000000001
40
0
40
0
40
0
40
0
40
1
40
1
40
1
40
1
10
150.75703392498437
20
-117.57663028744609
30
0
10
150.75703392498437
20
-117.41092119460559
30
0
10
150.62267520105959
20
-117.2765624706809
30
0
10
150.45696610821909
20
-117.2765624706809
30
0
0
SPLINE
5
241
100
AcDbEntity
8
0
100
AcDbSpline
70
0
71
3
72
8
73
4
74
0
42
0.000000001
43
0.0000000001
44
0.0000000001
40
0
40
0
40
0
40
0
40
1
40
1
40
1
40
1
10
169.8070339202219
20
-117.57663028744609
30
0
10
169.8070339202219
20
-117.41092119460559
30
0
10
169.67267519629706
20
-117.2765624706809
30
0
10
169.50696610345659
20
-117.2765624706809
30
0
0
LINE
5
242
100
AcDbEntity
8
0
100
AcDbLine
10
19.488216140961281
20
-112.2267415084017
30
0
11
1.3255004879498755
21
-112.2267415084017
31
0
0
SPLINE
5
243
100
AcDbEntity
8
0
100
AcDbSpline
70
0
71
3
72
8
73
4
74
0
42
0.000000001
43
0.0000000001
44
0.0000000001
40
0
40
0
40
0
40
0
40
1
40
1
40
1
40
1
10
65.031861691641339
20
-98.526630292208637
30
0
10
65.031861691641339
20
-98.360921199368136
30
0
10
64.897675222490847
20
-98.226562475443359
30
0
10
64.73196612965036
20
-98.226562475443359
30
0
0
LINE
5
244
100
AcDbEntity
8
0
100
AcDbLine
10
298.09377705221266
20
-131.27674150363922
30
0
11
284.69407816233337
21
-131.27674150363922
31
0
0
LINE
5
245
100
AcDbEntity
8
0
100
AcDbLine
10
265.34401035033068
20
-130.97667368687391
30
0
11
265.34401035033068
21
-117.57663028744609
31
0
0
SPLINE
5
246
100
AcDbEntity
8
0
100
AcDbSpline
70
0
71
3
72
8
73
4
74
0
42
0.000000001
43
0.0000000001
44
0.0000000001
40
0
40
0
40
0
40
0
40
1
40
1
40
1
40
1
10
19.788111702952278
20
-98.526630292208637
30
0
10
19.788111702952278
20
-98.360921199368136
30
0
10
19.6539252338018
20
-98.226562475443359
30
0
10
19.488216140961281
20
-98.226562475443359
30
0
0
LINE
5
247
100
AcDbEntity
8
0
100
AcDbLine
10
64.73196612965036
20
-112.2267415084017
30
0
11
51.331922730222587
21
-112.2267415084017
31
0
0
LINE
5
248
100
AcDbEntity
8
0
100
AcDbLine
10
51.032027168231586
20
-111.92667369163641
30
0
11
51.032027168231586
21
-98.526630292208637
31
0
0
SPLINE
5
249
100
AcDbEntity
8
0
100
AcDbSpline
70
0
71
3
72
8
73
4
74
0
42
0.000000001
43
0.0000000001
44
0.0000000001
40
0
40
0
40
0
40
0
40
1
40
1
40
1
40
1
10
83.781966124887845
20
-112.2267415084017
30
0
10
83.94767521772836
20
-112.2267415084017
30
0
10
84.081861686878838
20
-112.09238278447691
30
0
10
84.081861686878838
20
-111.92667369163641
30
0
0
SPLINE
5
250
100
AcDbEntity
8
0
100
AcDbSpline
70
0
71
3
72
8
73
4
74
0
42
0.000000001
43
0.0000000001
44
0.0000000001
40
0
40
0
40
0
40
0
40
1
40
1
40
1
40
1
10
117.7068548967886
20
-130.97667368687391
30
0
10
117.7068548967886
20
-131.14238277971441
30
0
10
117.8412136207133
20
-131.27674150363922
30
0
10
118.00692271355381
20
-131.27674150363922
30
0
0
SPLINE
5
251
100
AcDbEntity
8
0
100
AcDbSpline
70
0
71
3
72
8
73
4
74
0
42
0.000000001
43
0.0000000001
44
0.0000000001
40
0
40
0
40
0
40
0
40
1
40
1
40
1
40
1
10
84.081861686878838
20
-98.526630292208637
30
0
10
84.081861686878838
20
-98.360921199368136
30
0
10
83.94767521772836
20
-98.226562475443359
30
0
10
83.781966124887845
20
-98.226562475443359
30
0
0
SPLINE
5
252
100
AcDbEntity
8
0
100
AcDbSpline
70
0
71
3
72
8
73
4
74
0
42
0.000000001
43
0.0000000001
44
0.0000000001
40
0
40
0
40
0
40
0
40
1
40
1
40
1
40
1
10
156.10692270402882
20
-117.2765624706809
30
0
10
155.94121361118832
20
-117.2765624706809
30
0
10
155.80685488726363
20
-117.41092119460559
30
0
10
155.80685488726363
20
-117.57663028744609
30
0
0
LINE
5
253
100
AcDbEntity
8
0
100
AcDbLine
10
150.75703392498437
20
-117.57663028744609
30
0
11
150.75703392498437
21
-130.97667368687388
31
0
0
LINE
5
254
100
AcDbEntity
8
0
100
AcDbLine
10
279.34384487374052
20
-117.57663028744609
30
0
11
279.34384487374052
21
-130.97667368687391
31
0
0
SPLINE
5
255
100
AcDbEntity
8
0
100
AcDbSpline
70
0
71
3
72
8
73
4
74
0
42
0.000000001
43
0.0000000001
44
0.0000000001
40
0
40
0
40
0
40
0
40
1
40
1
40
1
40
1
10
70.381922725460058
20
-98.226562475443359
30
0
10
70.216213632619557
20
-98.226562475443359
30
0
10
70.082027163469078
20
-98.360921199368136
30
0
10
70.082027163469078
20
-98.526630292208637
30
0
0
LINE
5
256
100
AcDbEntity
8
0
100
AcDbLine
10
279.04377705697516
20
-131.27674150363922
30
0
11
265.64407816709593
21
-131.27674150363922
31
0
0
LINE
5
257
100
AcDbEntity
8
0
100
AcDbLine
10
19.788111702952278
20
-98.526630292208637
30
0
11
19.788111702952278
21
-111.92667369163641
31
0
0
SPLINE
5
258
100
AcDbEntity
8
0
100
AcDbSpline
70
0
71
3
72
8
73
4
74
0
42
0.000000001
43
0.0000000001
44
0.0000000001
40
0
40
0
40
0
40
0
40
1
40
1
40
1
40
1
10
31.982027172994076
20
-111.92667369163641
30
0
10
31.982027172994076
20
-112.09238278447691
30
0
10
32.116213642144558
20
-112.2267415084017
30
0
10
32.281922734985073
20
-112.2267415084017
30
0
0
LINE
5
259
100
AcDbEntity
8
0
100
AcDbLine
10
118.00692271355381
20
-117.2765624706809
30
0
11
131.40696611298159
21
-117.2765624706809
31
0
0
SPLINE
5
260
100
AcDbEntity
8
0
100
AcDbSpline
70
0
71
3
72
8
73
4
74
0
42
0.000000001
43
0.0000000001
44
0.0000000001
40
0
40
0
40
0
40
0
40
1
40
1
40
1
40
1
10
32.281922734985073
20
-98.226562475443359
30
0
10
32.116213642144558
20
-98.226562475443359
30
0
10
31.982027172994076
20
-98.360921199368136
30
0
10
31.982027172994076
20
-98.526630292208637
30
0
0
SPLINE
5
261
100
AcDbEntity
8
0
100
AcDbSpline
70
0
71
3
72
8
73
4
74
0
42
0.000000001
43
0.0000000001
44
0.0000000001
40
0
40
0
40
0
40
0
40
1
40
1
40
1
40
1
10
1.025432671184614
20
-111.92667369163641
30
0
10
1.025432671184614
20
-112.09238278447691
30
0
10
1.1597913951093579
20
-112.2267415084017
30
0
10
1.3255004879498751
20
-112.2267415084017
30
0
0
LINE
5
262
100
AcDbEntity
8
0
100
AcDbLine
10
284.69407816233337
20
-117.2765624706809
30
0
11
298.09377705221266
21
-117.2765624706809
31
0
0
LINE
5
263
100
AcDbEntity
8
0
100
AcDbLine
10
298.39384486897802
20
-117.57663028744609
30
0
11
298.39384486897802
21
-130.97667368687391
31
0
0
SPLINE
5
264
100
AcDbEntity
8
0
100
AcDbSpline
70
0
71
3
72
8
73
4
74
0
42
0.000000001
43
0.0000000001
44
0.0000000001
40
0
40
0
40
0
40
0
40
1
40
1
40
1
40
1
10
137.05692270879129
20
-117.2765624706809
30
0
10
136.89121361595079
20
-117.2765624706809
30
0
10
136.7568548920261
20
-117.41092119460559
30
0
10
136.7568548920261
20
-117.57663028744609
30
0
0
LINE
5
265
100
AcDbEntity
8
0
100
AcDbLine
10
117.7068548967886
20
-130.97667368687391
30
0
11
117.7068548967886
21
-117.57663028744609
31
0
0
SPLINE
5
266
100
AcDbEntity
8
0
100
AcDbSpline
70
0
71
3
72
8
73
4
74
0
42
0.000000001
43
0.0000000001
44
0.0000000001
40
0
40
0
40
0
40
0
40
1
40
1
40
1
40
1
10
150.45696610821909
20
-131.27674150363922
30
0
10
150.62267520105959
20
-131.27674150363922
30
0
10
150.75703392498437
20
-131.14238277971441
30
0
10
150.75703392498437
20
-130.97667368687391
30
0
0
SPLINE
5
267
100
AcDbEntity
8
0
100
AcDbSpline
70
0
71
3
72
8
73
4
74
0
42
0.000000001
43
0.0000000001
44
0.0000000001
40
0
40
0
40
0
40
0
40
1
40
1
40
1
40
1
10
131.70703392974693
20
-117.57663028744609
30
0
10
131.70703392974693
20
-117.41092119460559
30
0
10
131.57267520582209
20
-117.2765624706809
30
0
10
131.40696611298159
20
-117.2765624706809
30
0
0
LINE
5
268
100
AcDbEntity
8
0
100
AcDbLine
10
137.05692270879129
20
-117.2765624706809
30
0
11
150.45696610821909
21
-117.2765624706809
31
0
0
SPLINE
5
269
100
AcDbEntity
8
0
100
AcDbSpline
70
0
71
3
72
8
73
4
74
0
42
0.000000001
43
0.0000000001
44
0.0000000001
40
0
40
0
40
0
40
0
40
1
40
1
40
1
40
1
10
64.73196612965036
20
-112.2267415084017
30
0
10
64.897675222490847
20
-112.2267415084017
30
0
10
65.031861691641339
20
-112.09238278447691
30
0
10
65.031861691641339
20
-111.92667369163641
30
0
0
SPLINE
5
270
100
AcDbEntity
8
0
100
AcDbSpline
70
0
71
3
72
8
73
4
74
0
42
0.000000001
43
0.0000000001
44
0.0000000001
40
0
40
0
40
0
40
0
40
1
40
1
40
1
40
1
10
284.39401034556818
20
-130.97667368687391
30
0
10
284.39401034556818
20
-131.14238277971441
30
0
10
284.5283690694929
20
-131.27674150363922
30
0
10
284.69407816233337
20
-131.27674150363922
30
0
0
SPLINE
5
271
100
AcDbEntity
8
0
100
AcDbSpline
70
0
71
3
72
8
73
4
74
0
42
0.000000001
43
0.0000000001
44
0.0000000001
40
0
40
0
40
0
40
0
40
1
40
1
40
1
40
1
10
45.981861696403847
20
-98.526630292208637
30
0
10
45.981861696403847
20
-98.360921199368136
30
0
10
45.847675227253362
20
-98.226562475443359
30
0
10
45.68196613441286
20
-98.226562475443359
30
0
0
SPLINE
5
272
100
AcDbEntity
8
0
100
AcDbSpline
70
0
71
3
72
8
73
4
74
0
42
0.000000001
43
0.0000000001
44
0.0000000001
40
0
40
0
40
0
40
0
40
1
40
1
40
1
40
1
10
51.331922730222587
20
-98.226562475443359
30
0
10
51.16621363738205
20
-98.226562475443359
30
0
10
51.032027168231586
20
-98.360921199368136
30
0
10
51.032027168231586
20
-98.526630292208637
30
0
0
LINE
5
273
100
AcDbEntity
8
0
100
AcDbLine
10
45.68196613441286
20
-112.2267415084017
30
0
11
32.281922734985073
21
-112.2267415084017
31
0
0
SPLINE
5
274
100
AcDbEntity
8
0
100
AcDbSpline
70
0
71
3
72
8
73
4
74
0
42
0.000000001
43
0.0000000001
44
0.0000000001
40
0
40
0
40
0
40
0
40
1
40
1
40
1
40
1
10
51.032027168231586
20
-111.92667369163641
30
0
10
51.032027168231586
20
-112.09238278447691
30
0
10
51.16621363738205
20
-112.2267415084017
30
0
10
51.331922730222587
20
-112.2267415084017
30
0
0
LINE
5
275
100
AcDbEntity
8
0
100
AcDbLine
10
1.025432671184614
20
-111.92667369163641
30
0
11
1.025432671184614
21
-98.526630292208637
31
0
0
LINE
5
276
100
AcDbEntity
8
0
100
AcDbLine
10
65.031861691641339
20
-98.526630292208637
30
0
11
65.031861691641339
21
-111.92667369163641
31
0
0
LINE
5
277
100
AcDbEntity
8
0
100
AcDbLine
10
131.40696611298159
20
-131.27674150363922
30
0
11
118.00692271355381
21
-131.27674150363922
31
0
0
LINE
5
278
100
AcDbEntity
8
0
100
AcDbLine
10
45.981861696403847
20
-98.526630292208637
30
0
11
45.981861696403847
21
-111.92667369163641
31
0
0
SPLINE
5
279
100
AcDbEntity
8
0
100
AcDbSpline
70
0
71
3
72
8
73
4
74
0
42
0.000000001
43
0.0000000001
44
0.0000000001
40
0
40
0
40
0
40
0
40
1
40
1
40
1
40
1
10
298.39384486897802
20
-117.57663028744609
30
0
10
298.39384486897802
20
-117.41092119460559
30
0
10
298.25948614505319
20
-117.2765624706809
30
0
10
298.09377705221266
20
-117.2765624706809
30
0
0
LINE
5
280
100
AcDbEntity
8
0
100
AcDbLine
10
207.90703391069687
20
-117.57663028744609
30
0
11
207.90703391069687
21
-130.97667368687388
31
0
0
LINE
5
281
100
AcDbEntity
8
0
100
AcDbLine
10
284.39435485511672
20
-111.92667369163641
30
0
11
284.39435485511672
21
-98.526630292208637
31
0
0
LINE
5
282
100
AcDbEntity
8
0
100
AcDbLine
10
175.15692269926632
20
-117.2765624706809
30
0
11
188.55696609869409
21
-117.2765624706809
31
0
0
LINE
5
283
100
AcDbEntity
8
0
100
AcDbLine
10
217.43203390831556
20
-98.526630292208637
30
0
11
217.43203390831556
21
-111.92667369163641
31
0
0
LINE
5
284
100
AcDbEntity
8
0
100
AcDbLine
10
169.8070339202219
20
-117.57663028744609
30
0
11
169.8070339202219
21
-130.97667368687388
31
0
0
LINE
5
285
100
AcDbEntity
8
0
100
AcDbLine
10
165.33185488488232
20
-111.92667369163641
30
0
11
165.33185488488232
21
-98.526630292208637
31
0
0
LINE
5
286
100
AcDbEntity
8
0
100
AcDbLine
10
284.69442267188197
20
-98.226562475443359
30
0
11
298.09446607130963
21
-98.226562475443359
31
0
0
SPLINE
5
287
100
AcDbEntity
8
0
100
AcDbSpline
70
0
71
3
72
8
73
4
74
0
42
0.000000001
43
0.0000000001
44
0.0000000001
40
0
40
0
40
0
40
0
40
1
40
1
40
1
40
1
10
3.7069227421288256
20
-79.17656248020586
30
0
10
3.541213649288308
20
-79.17656248020586
30
0
10
3.4070271801378267
20
-79.310921204130608
30
0
10
3.4070271801378267
20
-79.476630296971123
30
0
0
SPLINE
5
288
100
AcDbEntity
8
0
100
AcDbSpline
70
0
71
3
72
8
73
4
74
0
42
0.000000001
43
0.0000000001
44
0.0000000001
40
0
40
0
40
0
40
0
40
1
40
1
40
1
40
1
10
3.4070271801378267
20
-92.87667369639891
30
0
10
3.4070271801378267
20
-93.042382789239412
30
0
10
3.541213649288308
20
-93.17674151316416
30
0
10
3.7069227421288256
20
-93.17674151316416
30
0
0
SPLINE
5
289
100
AcDbEntity
8
0
100
AcDbSpline
70
0
71
3
72
8
73
4
74
0
42
0.000000001
43
0.0000000001
44
0.0000000001
40
0
40
0
40
0
40
0
40
1
40
1
40
1
40
1
10
175.15692269926632
20
-117.2765624706809
30
0
10
174.99121360642579
20
-117.2765624706809
30
0
10
174.8568548825011
20
-117.41092119460559
30
0
10
174.8568548825011
20
-117.57663028744609
30
0
0
LINE
5
290
100
AcDbEntity
8
0
100
AcDbLine
10
188.55696609869409
20
-131.27674150363922
30
0
11
175.15692269926632
21
-131.27674150363922
31
0
0
LINE
5
291
100
AcDbEntity
8
0
100
AcDbLine
10
198.08196609631284
20
-112.2267415084017
30
0
11
184.68192269688512
21
-112.2267415084017
31
0
0
LINE
5
292
100
AcDbEntity
8
0
100
AcDbLine
10
188.8570339154594
20
-117.57663028744609
30
0
11
188.8570339154594
21
-130.97667368687388
31
0
0
SPLINE
5
293
100
AcDbEntity
8
0
100
AcDbSpline
70
0
71
3
72
8
73
4
74
0
42
0.000000001
43
0.0000000001
44
0.0000000001
40
0
40
0
40
0
40
0
40
1
40
1
40
1
40
1
10
217.43203390831556
20
-98.526630292208637
30
0
10
217.43203390831556
20
-98.360921199368136
30
0
10
217.2976751843909
20
-98.226562475443359
30
0
10
217.13196609155034
20
-98.226562475443359
30
0
0
LINE
5
294
100
AcDbEntity
8
0
100
AcDbLine
10
203.43185487535732
20
-111.92667369163641
30
0
11
203.43185487535732
21
-98.526630292208637
31
0
0
SPLINE
5
295
100
AcDbEntity
8
0
100
AcDbSpline
70
0
71
3
72
8
73
4
74
0
42
0.000000001
43
0.0000000001
44
0.0000000001
40
0
40
0
40
0
40
0
40
1
40
1
40
1
40
1
10
207.60696609393159
20
-131.27674150363922
30
0
10
207.77267518677206
20
-131.27674150363922
30
0
10
207.90703391069687
20
-131.14238277971441
30
0
10
207.90703391069687
20
-130.97667368687391
30
0
0
SPLINE
5
296
100
AcDbEntity
8
0
100
AcDbSpline
70
0
71
3
72
8
73
4
74
0
42
0.000000001
43
0.0000000001
44
0.0000000001
40
0
40
0
40
0
40
0
40
1
40
1
40
1
40
1
10
184.38185488011982
20
-111.92667369163641
30
0
10
184.38185488011982
20
-112.09238278447691
30
0
10
184.51621360404462
20
-112.2267415084017
30
0
10
184.68192269688512
20
-112.2267415084017
30
0
0
SPLINE
5
297
100
AcDbEntity
8
0
100
AcDbSpline
70
0
71
3
72
8
73
4
74
0
42
0.000000001
43
0.0000000001
44
0.0000000001
40
0
40
0
40
0
40
0
40
1
40
1
40
1
40
1
10
203.43185487535732
20
-111.92667369163641
30
0
10
203.43185487535732
20
-112.09238278447691
30
0
10
203.56621359928212
20
-112.2267415084017
30
0
10
203.73192269212265
20
-112.2267415084017
30
0
0
SPLINE
5
298
100
AcDbEntity
8
0
100
AcDbSpline
70
0
71
3
72
8
73
4
74
0
42
0.000000001
43
0.0000000001
44
0.0000000001
40
0
40
0
40
0
40
0
40
1
40
1
40
1
40
1
10
198.08196609631284
20
-112.2267415084017
30
0
10
198.2476751891534
20
-112.2267415084017
30
0
10
198.38203391307812
20
-112.09238278447691
30
0
10
198.38203391307812
20
-111.92667369163641
30
0
0
SPLINE
5
299
100
AcDbEntity
8
0
100
AcDbSpline
70
0
71
3
72
8
73
4
74
0
42
0.000000001
43
0.0000000001
44
0.0000000001
40
0
40
0
40
0
40
0
40
1
40
1
40
1
40
1
10
169.50696610345659
20
-131.27674150363922
30
0
10
169.67267519629706
20
-131.27674150363922
30
0
10
169.8070339202219
20
-131.14238277971441
30
0
10
169.8070339202219
20
-130.97667368687391
30
0
0
LINE
5
300
100
AcDbEntity
8
0
100
AcDbLine
10
165.6319227016476
20
-98.226562475443359
30
0
11
179.03196610107531
21
-98.226562475443359
31
0
0
LINE
5
301
100
AcDbEntity
8
0
100
AcDbLine
10
198.38203391307812
20
-98.526630292208637
30
0
11
198.38203391307812
21
-111.92667369163641
31
0
0
SPLINE
5
302
100
AcDbEntity
8
0
100
AcDbSpline
70
0
71
3
72
8
73
4
74
0
42
0.000000001
43
0.0000000001
44
0.0000000001
40
0
40
0
40
0
40
0
40
1
40
1
40
1
40
1
10
236.18196608678795
20
-112.2267415084017
30
0
10
236.3476751796284
20
-112.2267415084017
30
0
10
236.48203390355309
20
-112.09238278447691
30
0
10
236.48203390355309
20
-111.92667369163641
30
0
0
LINE
5
303
100
AcDbEntity
8
0
100
AcDbLine
10
222.48185487059482
20
-111.92667369163641
30
0
11
222.48185487059482
21
-98.526630292208637
31
0
0
LINE
5
304
100
AcDbEntity
8
0
100
AcDbLine
10
236.48203390355309
20
-98.526630292208637
30
0
11
236.48203390355309
21
-111.92667369163641
31
0
0
LINE
5
305
100
AcDbEntity
8
0
100
AcDbLine
10
222.78192268736007
20
-98.226562475443359
30
0
11
236.18196608678795
21
-98.226562475443359
31
0
0
LINE
5
306
100
AcDbEntity
8
0
100
AcDbLine
10
298.39453388807499
20
-98.526630292208637
30
0
11
298.39453388807499
21
-111.92667369163641
31
0
0
SPLINE
5
307
100
AcDbEntity
8
0
100
AcDbSpline
70
0
71
3
72
8
73
4
74
0
42
0.000000001
43
0.0000000001
44
0.0000000001
40
0
40
0
40
0
40
0
40
1
40
1
40
1
40
1
10
284.39435485511672
20
-111.92667369163641
30
0
10
284.39435485511672
20
-112.09238278447691
30
0
10
284.52871357904138
20
-112.2267415084017
30
0
10
284.69442267188197
20
-112.2267415084017
30
0
0
SPLINE
5
308
100
AcDbEntity
8
0
100
AcDbSpline
70
0
71
3
72
8
73
4
74
0
42
0.000000001
43
0.0000000001
44
0.0000000001
40
0
40
0
40
0
40
0
40
1
40
1
40
1
40
1
10
17.10696614155659
20
-93.17674151316416
30
0
10
17.272675234397109
20
-93.17674151316416
30
0
10
17.406861703547591
20
-93.042382789239412
30
0
10
17.406861703547591
20
-92.87667369639891
30
0
0
SPLINE
5
309
100
AcDbEntity
8
0
100
AcDbSpline
70
0
71
3
72
8
73
4
74
0
42
0.000000001
43
0.0000000001
44
0.0000000001
40
0
40
0
40
0
40
0
40
1
40
1
40
1
40
1
10
194.20692269450382
20
-117.2765624706809
30
0
10
194.04121360166332
20
-117.2765624706809
30
0
10
193.90685487773857
20
-117.41092119460559
30
0
10
193.90685487773857
20
-117.57663028744609
30
0
0
LINE
5
310
100
AcDbEntity
8
0
100
AcDbLine
10
3.7069227421288256
20
-79.17656248020586
30
0
11
17.10696614155659
21
-79.17656248020586
31
0
0
LINE
5
311
100
AcDbEntity
8
0
100
AcDbLine
10
174.8568548825011
20
-130.97667368687391
30
0
11
174.8568548825011
21
-117.57663028744609
31
0
0
LINE
5
312
100
AcDbEntity
8
0
100
AcDbLine
10
17.406861703547591
20
-79.476630296971123
30
0
11
17.406861703547591
21
-92.87667369639891
31
0
0
LINE
5
313
100
AcDbEntity
8
0
100
AcDbLine
10
3.4070271801378267
20
-92.87667369639891
30
0
11
3.4070271801378267
21
-79.476630296971123
31
0
0
LINE
5
314
100
AcDbEntity
8
0
100
AcDbLine
10
17.10696614155659
20
-93.17674151316416
30
0
11
3.7069227421288256
21
-93.17674151316416
31
0
0
LINE
5
315
100
AcDbEntity
8
0
100
AcDbLine
10
203.73192269212265
20
-98.226562475443359
30
0
11
217.13196609155034
21
-98.226562475443359
31
0
0
LINE
5
316
100
AcDbEntity
8
0
100
AcDbLine
10
217.13196609155034
20
-112.2267415084017
30
0
11
203.73192269212265
21
-112.2267415084017
31
0
0
LINE
5
317
100
AcDbEntity
8
0
100
AcDbLine
10
298.09446607130968
20
-112.2267415084017
30
0
11
284.69442267188197
21
-112.2267415084017
31
0
0
SPLINE
5
318
100
AcDbEntity
8
0
100
AcDbSpline
70
0
71
3
72
8
73
4
74
0
42
0.000000001
43
0.0000000001
44
0.0000000001
40
0
40
0
40
0
40
0
40
1
40
1
40
1
40
1
10
217.13196609155034
20
-112.2267415084017
30
0
10
217.2976751843909
20
-112.2267415084017
30
0
10
217.43203390831556
20
-112.09238278447691
30
0
10
217.43203390831556
20
-111.92667369163641
30
0
0
SPLINE
5
319
100
AcDbEntity
8
0
100
AcDbSpline
70
0
71
3
72
8
73
4
74
0
42
0.000000001
43
0.0000000001
44
0.0000000001
40
0
40
0
40
0
40
0
40
1
40
1
40
1
40
1
10
174.8568548825011
20
-130.97667368687391
30
0
10
174.8568548825011
20
-131.14238277971441
30
0
10
174.99121360642579
20
-131.27674150363922
30
0
10
175.15692269926632
20
-131.27674150363922
30
0
0
SPLINE
5
320
100
AcDbEntity
8
0
100
AcDbSpline
70
0
71
3
72
8
73
4
74
0
42
0.000000001
43
0.0000000001
44
0.0000000001
40
0
40
0
40
0
40
0
40
1
40
1
40
1
40
1
10
298.39453388807499
20
-98.526630292208637
30
0
10
298.39453388807499
20
-98.360921199368136
30
0
10
298.26017516415033
20
-98.226562475443359
30
0
10
298.09446607130968
20
-98.226562475443359
30
0
0
SPLINE
5
321
100
AcDbEntity
8
0
100
AcDbSpline
70
0
71
3
72
8
73
4
74
0
42
0.000000001
43
0.0000000001
44
0.0000000001
40
0
40
0
40
0
40
0
40
1
40
1
40
1
40
1
10
17.406861703547591
20
-79.476630296971123
30
0
10
17.406861703547591
20
-79.310921204130608
30
0
10
17.272675234397109
20
-79.17656248020586
30
0
10
17.10696614155659
20
-79.17656248020586
30
0
0
SPLINE
5
322
100
AcDbEntity
8
0
100
AcDbSpline
70
0
71
3
72
8
73
4
74
0
42
0.000000001
43
0.0000000001
44
0.0000000001
40
0
40
0
40
0
40
0
40
1
40
1
40
1
40
1
10
188.55696609869409
20
-131.27674150363922
30
0
10
188.72267519153456
20
-131.27674150363922
30
0
10
188.8570339154594
20
-131.14238277971441
30
0
10
188.8570339154594
20
-130.97667368687391
30
0
0
SPLINE
5
323
100
AcDbEntity
8
0
100
AcDbSpline
70
0
71
3
72
8
73
4
74
0
42
0.000000001
43
0.0000000001
44
0.0000000001
40
0
40
0
40
0
40
0
40
1
40
1
40
1
40
1
10
155.80685488726363
20
-130.97667368687391
30
0
10
155.80685488726363
20
-131.14238277971441
30
0
10
155.94121361118832
20
-131.27674150363922
30
0
10
156.10692270402882
20
-131.27674150363922
30
0
0
LINE
5
324
100
AcDbEntity
8
0
100
AcDbLine
10
179.03196610107531
20
-112.2267415084017
30
0
11
165.6319227016476
21
-112.2267415084017
31
0
0
LINE
5
325
100
AcDbEntity
8
0
100
AcDbLine
10
184.68192269688512
20
-98.226562475443359
30
0
11
198.08196609631284
21
-98.226562475443359
31
0
0
LINE
5
326
100
AcDbEntity
8
0
100
AcDbLine
10
184.38185488011982
20
-111.92667369163641
30
0
11
184.38185488011982
21
-98.526630292208637
31
0
0
LINE
5
327
100
AcDbEntity
8
0
100
AcDbLine
10
169.50696610345659
20
-131.27674150363922
30
0
11
156.10692270402882
21
-131.27674150363922
31
0
0
LINE
5
328
100
AcDbEntity
8
0
100
AcDbLine
10
155.80685488726363
20
-130.97667368687391
30
0
11
155.80685488726363
21
-117.57663028744609
31
0
0
SPLINE
5
329
100
AcDbEntity
8
0
100
AcDbSpline
70
0
71
3
72
8
73
4
74
0
42
0.000000001
43
0.0000000001
44
0.0000000001
40
0
40
0
40
0
40
0
40
1
40
1
40
1
40
1
10
203.73192269212265
20
-98.226562475443359
30
0
10
203.56621359928212
20
-98.226562475443359
30
0
10
203.43185487535732
20
-98.360921199368136
30
0
10
203.43185487535732
20
-98.526630292208637
30
0
0
SPLINE
5
330
100
AcDbEntity
8
0
100
AcDbSpline
70
0
71
3
72
8
73
4
74
0
42
0.000000001
43
0.0000000001
44
0.0000000001
40
0
40
0
40
0
40
0
40
1
40
1
40
1
40
1
10
284.69442267188197
20
-98.226562475443359
30
0
10
284.52871357904138
20
-98.226562475443359
30
0
10
284.39435485511672
20
-98.360921199368136
30
0
10
284.39435485511672
20
-98.526630292208637
30
0
0
SPLINE
5
331
100
AcDbEntity
8
0
100
AcDbSpline
70
0
71
3
72
8
73
4
74
0
42
0.000000001
43
0.0000000001
44
0.0000000001
40
0
40
0
40
0
40
0
40
1
40
1
40
1
40
1
10
236.48203390355309
20
-98.526630292208637
30
0
10
236.48203390355309
20
-98.360921199368136
30
0
10
236.3476751796284
20
-98.226562475443359
30
0
10
236.18196608678795
20
-98.226562475443359
30
0
0
LINE
5
332
100
AcDbEntity
8
0
100
AcDbLine
10
236.18196608678795
20
-112.2267415084017
30
0
11
222.78192268736007
21
-112.2267415084017
31
0
0
LINE
5
333
100
AcDbEntity
8
0
100
AcDbLine
10
179.33203391784059
20
-98.526630292208637
30
0
11
179.33203391784059
21
-111.92667369163641
31
0
0
SPLINE
5
334
100
AcDbEntity
8
0
100
AcDbSpline
70
0
71
3
72
8
73
4
74
0
42
0.000000001
43
0.0000000001
44
0.0000000001
40
0
40
0
40
0
40
0
40
1
40
1
40
1
40
1
10
222.48185487059482
20
-111.92667369163641
30
0
10
222.48185487059482
20
-112.09238278447691
30
0
10
222.61621359451959
20
-112.2267415084017
30
0
10
222.78192268736007
20
-112.2267415084017
30
0
0
SPLINE
5
335
100
AcDbEntity
8
0
100
AcDbSpline
70
0
71
3
72
8
73
4
74
0
42
0.000000001
43
0.0000000001
44
0.0000000001
40
0
40
0
40
0
40
0
40
1
40
1
40
1
40
1
10
188.8570339154594
20
-117.57663028744609
30
0
10
188.8570339154594
20
-117.41092119460559
30
0
10
188.72267519153456
20
-117.2765624706809
30
0
10
188.55696609869409
20
-117.2765624706809
30
0
0
SPLINE
5
336
100
AcDbEntity
8
0
100
AcDbSpline
70
0
71
3
72
8
73
4
74
0
42
0.000000001
43
0.0000000001
44
0.0000000001
40
0
40
0
40
0
40
0
40
1
40
1
40
1
40
1
10
193.90685487773857
20
-130.97667368687391
30
0
10
193.90685487773857
20
-131.14238277971441
30
0
10
194.04121360166332
20
-131.27674150363922
30
0
10
194.20692269450382
20
-131.27674150363922
30
0
0
SPLINE
5
337
100
AcDbEntity
8
0
100
AcDbSpline
70
0
71
3
72
8
73
4
74
0
42
0.000000001
43
0.0000000001
44
0.0000000001
40
0
40
0
40
0
40
0
40
1
40
1
40
1
40
1
10
222.78192268736007
20
-98.226562475443359
30
0
10
222.61621359451959
20
-98.226562475443359
30
0
10
222.48185487059482
20
-98.360921199368136
30
0
10
222.48185487059482
20
-98.526630292208637
30
0
0
SPLINE
5
338
100
AcDbEntity
8
0
100
AcDbSpline
70
0
71
3
72
8
73
4
74
0
42
0.000000001
43
0.0000000001
44
0.0000000001
40
0
40
0
40
0
40
0
40
1
40
1
40
1
40
1
10
298.09446607130968
20
-112.2267415084017
30
0
10
298.26017516415033
20
-112.2267415084017
30
0
10
298.39453388807499
20
-112.09238278447691
30
0
10
298.39453388807499
20
-111.92667369163641
30
0
0
LINE
5
339
100
AcDbEntity
8
0
100
AcDbLine
10
156.10692270402882
20
-117.2765624706809
30
0
11
169.50696610345659
21
-117.2765624706809
31
0
0
SPLINE
5
340
100
AcDbEntity
8
0
100
AcDbSpline
70
0
71
3
72
8
73
4
74
0
42
0.000000001
43
0.0000000001
44
0.0000000001
40
0
40
0
40
0
40
0
40
1
40
1
40
1
40
1
10
207.90703391069687
20
-117.57663028744609
30
0
10
207.90703391069687
20
-117.41092119460559
30
0
10
207.77267518677206
20
-117.2765624706809
30
0
10
207.60696609393159
20
-117.2765624706809
30
0
0
SPLINE
5
341
100
AcDbEntity
8
0
100
AcDbSpline
70
0
71
3
72
8
73
4
74
0
42
0.000000001
43
0.0000000001
44
0.0000000001
40
0
40
0
40
0
40
0
40
1
40
1
40
1
40
1
10
127.23185489440729
20
-111.92667369163641
30
0
10
127.23185489440729
20
-112.09238278447691
30
0
10
127.3662136183321
20
-112.2267415084017
30
0
10
127.5319227111726
20
-112.2267415084017
30
0
0
SPLINE
5
342
100
AcDbEntity
8
0
100
AcDbSpline
70
0
71
3
72
8
73
4
74
0
42
0.000000001
43
0.0000000001
44
0.0000000001
40
0
40
0
40
0
40
0
40
1
40
1
40
1
40
1
10
159.98196610583781
20
-112.2267415084017
30
0
10
160.14767519867843
20
-112.2267415084017
30
0
10
160.28203392260309
20
-112.09238278447691
30
0
10
160.28203392260309
20
-111.92667369163641
30
0
0
LINE
5
343
100
AcDbEntity
8
0
100
AcDbLine
10
27.519422736175699
20
-79.17656248020586
30
0
11
40.919466135603471
21
-79.17656248020586
31
0
0
SPLINE
5
344
100
AcDbEntity
8
0
100
AcDbSpline
70
0
71
3
72
8
73
4
74
0
42
0.000000001
43
0.0000000001
44
0.0000000001
40
0
40
0
40
0
40
0
40
1
40
1
40
1
40
1
10
79.319361688069449
20
-79.476630296971123
30
0
10
79.319361688069449
20
-79.310921204130608
30
0
10
79.185175218918985
20
-79.17656248020586
30
0
10
79.01946612607847
20
-79.17656248020586
30
0
0
LINE
5
345
100
AcDbEntity
8
0
100
AcDbLine
10
84.081861686878838
20
-98.526630292208637
30
0
11
84.081861686878838
21
-111.92667369163641
31
0
0
SPLINE
5
346
100
AcDbEntity
8
0
100
AcDbSpline
70
0
71
3
72
8
73
4
74
0
42
0.000000001
43
0.0000000001
44
0.0000000001
40
0
40
0
40
0
40
0
40
1
40
1
40
1
40
1
10
121.88196611536281
20
-112.2267415084017
30
0
10
122.04767520820342
20
-112.2267415084017
30
0
10
122.18203393212809
20
-112.09238278447691
30
0
10
122.18203393212809
20
-111.92667369163641
30
0
0
LINE
5
347
100
AcDbEntity
8
0
100
AcDbLine
10
103.13203393689062
20
-98.526630292208637
30
0
11
103.13203393689062
21
-111.92667369163641
31
0
0
LINE
5
348
100
AcDbEntity
8
0
100
AcDbLine
10
89.132027158706563
20
-111.92667369163641
30
0
11
89.132027158706563
21
-98.526630292208637
31
0
0
SPLINE
5
349
100
AcDbEntity
8
0
100
AcDbSpline
70
0
71
3
72
8
73
4
74
0
42
0.000000001
43
0.0000000001
44
0.0000000001
40
0
40
0
40
0
40
0
40
1
40
1
40
1
40
1
10
165.6319227016476
20
-98.226562475443359
30
0
10
165.4662136088071
20
-98.226562475443359
30
0
10
165.33185488488232
20
-98.360921199368136
30
0
10
165.33185488488232
20
-98.526630292208637
30
0
0
LINE
5
350
100
AcDbEntity
8
0
100
AcDbLine
10
127.5319227111726
20
-98.226562475443359
30
0
11
140.93196611060029
21
-98.226562475443359
31
0
0
LINE
5
351
100
AcDbEntity
8
0
100
AcDbLine
10
83.781966124887845
20
-112.2267415084017
30
0
11
70.381922725460058
21
-112.2267415084017
31
0
0
LINE
5
352
100
AcDbEntity
8
0
100
AcDbLine
10
108.4819227159351
20
-98.226562475443359
30
0
11
121.88196611536279
21
-98.226562475443359
31
0
0
LINE
5
353
100
AcDbEntity
8
0
100
AcDbLine
10
41.219361697594451
20
-79.476630296971123
30
0
11
41.219361697594451
21
-92.87667369639891
31
0
0
SPLINE
5
354
100
AcDbEntity
8
0
100
AcDbSpline
70
0
71
3
72
8
73
4
74
0
42
0.000000001
43
0.0000000001
44
0.0000000001
40
0
40
0
40
0
40
0
40
1
40
1
40
1
40
1
10
46.269527169422204
20
-92.87667369639891
30
0
10
46.269527169422204
20
-93.042382789239412
30
0
10
46.40371363857269
20
-93.17674151316416
30
0
10
46.569422731413212
20
-93.17674151316416
30
0
0
LINE
5
355
100
AcDbEntity
8
0
100
AcDbLine
10
70.082027163469078
20
-111.92667369163641
30
0
11
70.082027163469078
21
-98.526630292208637
31
0
0
SPLINE
5
356
100
AcDbEntity
8
0
100
AcDbSpline
70
0
71
3
72
8
73
4
74
0
42
0.000000001
43
0.0000000001
44
0.0000000001
40
0
40
0
40
0
40
0
40
1
40
1
40
1
40
1
10
108.4819227159351
20
-98.226562475443359
30
0
10
108.3162136230946
20
-98.226562475443359
30
0
10
108.18185489916978
20
-98.360921199368136
30
0
10
108.18185489916978
20
-98.526630292208637
30
0
0
LINE
5
357
100
AcDbEntity
8
0
100
AcDbLine
10
140.93196611060029
20
-112.2267415084017
30
0
11
127.5319227111726
21
-112.2267415084017
31
0
0
SPLINE
5
358
100
AcDbEntity
8
0
100
AcDbSpline
70
0
71
3
72
8
73
4
74
0
42
0.000000001
43
0.0000000001
44
0.0000000001
40
0
40
0
40
0
40
0
40
1
40
1
40
1
40
1
10
179.33203391784059
20
-98.526630292208637
30
0
10
179.33203391784059
20
-98.360921199368136
30
0
10
179.19767519391587
20
-98.226562475443359
30
0
10
179.03196610107531
20
-98.226562475443359
30
0
0
LINE
5
359
100
AcDbEntity
8
0
100
AcDbLine
10
40.919466135603471
20
-93.17674151316416
30
0
11
27.519422736175699
21
-93.17674151316416
31
0
0
LINE
5
360
100
AcDbEntity
8
0
100
AcDbLine
10
46.269527169422204
20
-92.87667369639891
30
0
11
46.269527169422204
21
-79.476630296971123
31
0
0
SPLINE
5
361
100
AcDbEntity
8
0
100
AcDbSpline
70
0
71
3
72
8
73
4
74
0
42
0.000000001
43
0.0000000001
44
0.0000000001
40
0
40
0
40
0
40
0
40
1
40
1
40
1
40
1
10
108.18185489916978
20
-111.92667369163641
30
0
10
108.18185489916978
20
-112.09238278447691
30
0
10
108.3162136230946
20
-112.2267415084017
30
0
10
108.4819227159351
20
-112.2267415084017
30
0
0
SPLINE
5
362
100
AcDbEntity
8
0
100
AcDbSpline
70
0
71
3
72
8
73
4
74
0
42
0.000000001
43
0.0000000001
44
0.0000000001
40
0
40
0
40
0
40
0
40
1
40
1
40
1
40
1
10
146.5819227064101
20
-98.226562475443359
30
0
10
146.4162136135696
20
-98.226562475443359
30
0
10
146.28185488964482
20
-98.360921199368136
30
0
10
146.28185488964482
20
-98.526630292208637
30
0
0
SPLINE
5
363
100
AcDbEntity
8
0
100
AcDbSpline
70
0
71
3
72
8
73
4
74
0
42
0.000000001
43
0.0000000001
44
0.0000000001
40
0
40
0
40
0
40
0
40
1
40
1
40
1
40
1
10
140.93196611060029
20
-112.2267415084017
30
0
10
141.0976752034409
20
-112.2267415084017
30
0
10
141.23203392736559
20
-112.09238278447691
30
0
10
141.23203392736559
20
-111.92667369163641
30
0
0
LINE
5
364
100
AcDbEntity
8
0
100
AcDbLine
10
46.569422731413212
20
-79.17656248020586
30
0
11
59.969466130840971
21
-79.17656248020586
31
0
0
SPLINE
5
365
100
AcDbEntity
8
0
100
AcDbSpline
70
0
71
3
72
8
73
4
74
0
42
0.000000001
43
0.0000000001
44
0.0000000001
40
0
40
0
40
0
40
0
40
1
40
1
40
1
40
1
10
146.28185488964482
20
-111.92667369163641
30
0
10
146.28185488964482
20
-112.09238278447691
30
0
10
146.4162136135696
20
-112.2267415084017
30
0
10
146.5819227064101
20
-112.2267415084017
30
0
0
LINE
5
366
100
AcDbEntity
8
0
100
AcDbLine
10
102.8319661201253
20
-112.2267415084017
30
0
11
89.4319227206976
21
-112.2267415084017
31
0
0
SPLINE
5
367
100
AcDbEntity
8
0
100
AcDbSpline
70
0
71
3
72
8
73
4
74
0
42
0.000000001
43
0.0000000001
44
0.0000000001
40
0
40
0
40
0
40
0
40
1
40
1
40
1
40
1
10
27.219527174184694
20
-92.87667369639891
30
0
10
27.219527174184694
20
-93.042382789239412
30
0
10
27.353713643335176
20
-93.17674151316416
30
0
10
27.519422736175699
20
-93.17674151316416
30
0
0
SPLINE
5
368
100
AcDbEntity
8
0
100
AcDbSpline
70
0
71
3
72
8
73
4
74
0
42
0.000000001
43
0.0000000001
44
0.0000000001
40
0
40
0
40
0
40
0
40
1
40
1
40
1
40
1
10
141.23203392736559
20
-98.526630292208637
30
0
10
141.23203392736559
20
-98.360921199368136
30
0
10
141.0976752034409
20
-98.226562475443359
30
0
10
140.93196611060029
20
-98.226562475443359
30
0
0
LINE
5
369
100
AcDbEntity
8
0
100
AcDbLine
10
141.23203392736559
20
-98.526630292208637
30
0
11
141.23203392736559
21
-111.92667369163641
31
0
0
LINE
5
370
100
AcDbEntity
8
0
100
AcDbLine
10
146.5819227064101
20
-98.226562475443359
30
0
11
159.98196610583784
21
-98.226562475443359
31
0
0
SPLINE
5
371
100
AcDbEntity
8
0
100
AcDbSpline
70
0
71
3
72
8
73
4
74
0
42
0.000000001
43
0.0000000001
44
0.0000000001
40
0
40
0
40
0
40
0
40
1
40
1
40
1
40
1
10
103.13203393689062
20
-98.526630292208637
30
0
10
103.13203393689062
20
-98.360921199368136
30
0
10
102.9976752129659
20
-98.226562475443359
30
0
10
102.8319661201253
20
-98.226562475443359
30
0
0
SPLINE
5
372
100
AcDbEntity
8
0
100
AcDbSpline
70
0
71
3
72
8
73
4
74
0
42
0.000000001
43
0.0000000001
44
0.0000000001
40
0
40
0
40
0
40
0
40
1
40
1
40
1
40
1
10
179.03196610107531
20
-112.2267415084017
30
0
10
179.19767519391587
20
-112.2267415084017
30
0
10
179.33203391784059
20
-112.09238278447691
30
0
10
179.33203391784059
20
-111.92667369163641
30
0
0
LINE
5
373
100
AcDbEntity
8
0
100
AcDbLine
10
70.381922725460058
20
-98.226562475443359
30
0
11
83.781966124887845
21
-98.226562475443359
31
0
0
LINE
5
374
100
AcDbEntity
8
0
100
AcDbLine
10
108.18185489916978
20
-111.92667369163641
30
0
11
108.18185489916978
21
-98.526630292208637
31
0
0
LINE
5
375
100
AcDbEntity
8
0
100
AcDbLine
10
159.98196610583781
20
-112.2267415084017
30
0
11
146.5819227064101
21
-112.2267415084017
31
0
0
LINE
5
376
100
AcDbEntity
8
0
100
AcDbLine
10
146.28185488964482
20
-111.92667369163641
30
0
11
146.28185488964482
21
-98.526630292208637
31
0
0
LINE
5
377
100
AcDbEntity
8
0
100
AcDbLine
10
160.28203392260309
20
-98.526630292208637
30
0
11
160.28203392260309
21
-111.92667369163641
31
0
0
SPLINE
5
378
100
AcDbEntity
8
0
100
AcDbSpline
70
0
71
3
72
8
73
4
74
0
42
0.000000001
43
0.0000000001
44
0.0000000001
40
0
40
0
40
0
40
0
40
1
40
1
40
1
40
1
10
184.68192269688512
20
-98.226562475443359
30
0
10
184.51621360404462
20
-98.226562475443359
30
0
10
184.38185488011982
20
-98.360921199368136
30
0
10
184.38185488011982
20
-98.526630292208637
30
0
0
SPLINE
5
379
100
AcDbEntity
8
0
100
AcDbSpline
70
0
71
3
72
8
73
4
74
0
42
0.000000001
43
0.0000000001
44
0.0000000001
40
0
40
0
40
0
40
0
40
1
40
1
40
1
40
1
10
165.33185488488232
20
-111.92667369163641
30
0
10
165.33185488488232
20
-112.09238278447691
30
0
10
165.4662136088071
20
-112.2267415084017
30
0
10
165.6319227016476
20
-112.2267415084017
30
0
0
SPLINE
5
380
100
AcDbEntity
8
0
100
AcDbSpline
70
0
71
3
72
8
73
4
74
0
42
0.000000001
43
0.0000000001
44
0.0000000001
40
0
40
0
40
0
40
0
40
1
40
1
40
1
40
1
10
198.38203391307812
20
-98.526630292208637
30
0
10
198.38203391307812
20
-98.360921199368136
30
0
10
198.2476751891534
20
-98.226562475443359
30
0
10
198.08196609631284
20
-98.226562475443359
30
0
0
SPLINE
5
381
100
AcDbEntity
8
0
100
AcDbSpline
70
0
71
3
72
8
73
4
74
0
42
0.000000001
43
0.0000000001
44
0.0000000001
40
0
40
0
40
0
40
0
40
1
40
1
40
1
40
1
10
89.4319227206976
20
-98.226562475443359
30
0
10
89.26621362785707
20
-98.226562475443359
30
0
10
89.132027158706563
20
-98.360921199368136
30
0
10
89.132027158706563
20
-98.526630292208637
30
0
0
SPLINE
5
382
100
AcDbEntity
8
0
100
AcDbSpline
70
0
71
3
72
8
73
4
74
0
42
0.000000001
43
0.0000000001
44
0.0000000001
40
0
40
0
40
0
40
0
40
1
40
1
40
1
40
1
10
60.269361692831964
20
-79.476630296971123
30
0
10
60.269361692831964
20
-79.310921204130608
30
0
10
60.135175223681479
20
-79.17656248020586
30
0
10
59.969466130840971
20
-79.17656248020586
30
0
0
LINE
5
383
100
AcDbEntity
8
0
100
AcDbLine
10
27.219527174184694
20
-92.87667369639891
30
0
11
27.219527174184694
21
-79.476630296971123
31
0
0
LINE
5
384
100
AcDbEntity
8
0
100
AcDbLine
10
60.269361692831964
20
-79.476630296971123
30
0
11
60.269361692831964
21
-92.87667369639891
31
0
0
SPLINE
5
385
100
AcDbEntity
8
0
100
AcDbSpline
70
0
71
3
72
8
73
4
74
0
42
0.000000001
43
0.0000000001
44
0.0000000001
40
0
40
0
40
0
40
0
40
1
40
1
40
1
40
1
10
27.519422736175699
20
-79.17656248020586
30
0
10
27.353713643335176
20
-79.17656248020586
30
0
10
27.219527174184694
20
-79.310921204130608
30
0
10
27.219527174184694
20
-79.476630296971123
30
0
0
SPLINE
5
386
100
AcDbEntity
8
0
100
AcDbSpline
70
0
71
3
72
8
73
4
74
0
42
0.000000001
43
0.0000000001
44
0.0000000001
40
0
40
0
40
0
40
0
40
1
40
1
40
1
40
1
10
70.082027163469078
20
-111.92667369163641
30
0
10
70.082027163469078
20
-112.09238278447691
30
0
10
70.216213632619557
20
-112.2267415084017
30
0
10
70.381922725460058
20
-112.2267415084017
30
0
0
SPLINE
5
387
100
AcDbEntity
8
0
100
AcDbSpline
70
0
71
3
72
8
73
4
74
0
42
0.000000001
43
0.0000000001
44
0.0000000001
40
0
40
0
40
0
40
0
40
1
40
1
40
1
40
1
10
160.28203392260309
20
-98.526630292208637
30
0
10
160.28203392260309
20
-98.360921199368136
30
0
10
160.14767519867843
20
-98.226562475443359
30
0
10
159.98196610583781
20
-98.226562475443359
30
0
0
LINE
5
388
100
AcDbEntity
8
0
100
AcDbLine
10
59.969466130840971
20
-93.17674151316416
30
0
11
46.569422731413212
21
-93.17674151316416
31
0
0
SPLINE
5
389
100
AcDbEntity
8
0
100
AcDbSpline
70
0
71
3
72
8
73
4
74
0
42
0.000000001
43
0.0000000001
44
0.0000000001
40
0
40
0
40
0
40
0
40
1
40
1
40
1
40
1
10
40.919466135603471
20
-93.17674151316416
30
0
10
41.085175228444001
20
-93.17674151316416
30
0
10
41.219361697594451
20
-93.042382789239412
30
0
10
41.219361697594451
20
-92.87667369639891
30
0
0
SPLINE
5
390
100
AcDbEntity
8
0
100
AcDbSpline
70
0
71
3
72
8
73
4
74
0
42
0.000000001
43
0.0000000001
44
0.0000000001
40
0
40
0
40
0
40
0
40
1
40
1
40
1
40
1
10
46.569422731413212
20
-79.17656248020586
30
0
10
46.40371363857269
20
-79.17656248020586
30
0
10
46.269527169422204
20
-79.310921204130608
30
0
10
46.269527169422204
20
-79.476630296971123
30
0
0
SPLINE
5
391
100
AcDbEntity
8
0
100
AcDbSpline
70
0
71
3
72
8
73
4
74
0
42
0.000000001
43
0.0000000001
44
0.0000000001
40
0
40
0
40
0
40
0
40
1
40
1
40
1
40
1
10
59.969466130840971
20
-93.17674151316416
30
0
10
60.135175223681479
20
-93.17674151316416
30
0
10
60.269361692831964
20
-93.042382789239412
30
0
10
60.269361692831964
20
-92.87667369639891
30
0
0
SPLINE
5
392
100
AcDbEntity
8
0
100
AcDbSpline
70
0
71
3
72
8
73
4
74
0
42
0.000000001
43
0.0000000001
44
0.0000000001
40
0
40
0
40
0
40
0
40
1
40
1
40
1
40
1
10
41.219361697594451
20
-79.476630296971123
30
0
10
41.219361697594451
20
-79.310921204130608
30
0
10
41.085175228444001
20
-79.17656248020586
30
0
10
40.919466135603471
20
-79.17656248020586
30
0
0
SPLINE
5
393
100
AcDbEntity
8
0
100
AcDbSpline
70
0
71
3
72
8
73
4
74
0
42
0.000000001
43
0.0000000001
44
0.0000000001
40
0
40
0
40
0
40
0
40
1
40
1
40
1
40
1
10
122.18203393212809
20
-98.526630292208637
30
0
10
122.18203393212809
20
-98.360921199368136
30
0
10
122.04767520820342
20
-98.226562475443359
30
0
10
121.88196611536281
20
-98.226562475443359
30
0
0
SPLINE
5
394
100
AcDbEntity
8
0
100
AcDbSpline
70
0
71
3
72
8
73
4
74
0
42
0.000000001
43
0.0000000001
44
0.0000000001
40
0
40
0
40
0
40
0
40
1
40
1
40
1
40
1
10
102.8319661201253
20
-112.2267415084017
30
0
10
102.9976752129659
20
-112.2267415084017
30
0
10
103.13203393689062
20
-112.09238278447691
30
0
10
103.13203393689062
20
-111.92667369163641
30
0
0
LINE
5
395
100
AcDbEntity
8
0
100
AcDbLine
10
89.4319227206976
20
-98.226562475443359
30
0
11
102.8319661201253
21
-98.226562475443359
31
0
0
SPLINE
5
396
100
AcDbEntity
8
0
100
AcDbSpline
70
0
71
3
72
8
73
4
74
0
42
0.000000001
43
0.0000000001
44
0.0000000001
40
0
40
0
40
0
40
0
40
1
40
1
40
1
40
1
10
127.5319227111726
20
-98.226562475443359
30
0
10
127.3662136183321
20
-98.226562475443359
30
0
10
127.23185489440729
20
-98.360921199368136
30
0
10
127.23185489440729
20
-98.526630292208637
30
0
0
SPLINE
5
397
100
AcDbEntity
8
0
100
AcDbSpline
70
0
71
3
72
8
73
4
74
0
42
0.000000001
43
0.0000000001
44
0.0000000001
40
0
40
0
40
0
40
0
40
1
40
1
40
1
40
1
10
65.619422726650711
20
-79.17656248020586
30
0
10
65.453713633810182
20
-79.17656248020586
30
0
10
65.319527164659704
20
-79.310921204130608
30
0
10
65.319527164659704
20
-79.476630296971123
30
0
0
LINE
5
398
100
AcDbEntity
8
0
100
AcDbLine
10
121.88196611536281
20
-112.2267415084017
30
0
11
108.4819227159351
21
-112.2267415084017
31
0
0
SPLINE
5
399
100
AcDbEntity
8
0
100
AcDbSpline
70
0
71
3
72
8
73
4
74
0
42
0.000000001
43
0.0000000001
44
0.0000000001
40
0
40
0
40
0
40
0
40
1
40
1
40
1
40
1
10
89.132027158706563
20
-111.92667369163641
30
0
10
89.132027158706563
20
-112.09238278447691
30
0
10
89.26621362785707
20
-112.2267415084017
30
0
10
89.4319227206976
20
-112.2267415084017
30
0
0
SPLINE
5
400
100
AcDbEntity
8
0
100
AcDbSpline
70
0
71
3
72
8
73
4
74
0
42
0.000000001
43
0.0000000001
44
0.0000000001
40
0
40
0
40
0
40
0
40
1
40
1
40
1
40
1
10
284.39435485511672
20
-92.87667369639891
30
0
10
284.39435485511672
20
-93.042382789239412
30
0
10
284.52871357904138
20
-93.17674151316416
30
0
10
284.69442267188197
20
-93.17674151316416
30
0
0
LINE
5
401
100
AcDbEntity
8
0
100
AcDbLine
10
298.39453388807499
20
-79.476630296971123
30
0
11
298.39453388807499
21
-92.87667369639891
31
0
0
LINE
5
402
100
AcDbEntity
8
0
100
AcDbLine
10
250.46946608321602
20
-93.17674151316416
30
0
11
237.06942268378822
21
-93.17674151316416
31
0
0
SPLINE
5
403
100
AcDbEntity
8
0
100
AcDbSpline
70
0
71
3
72
8
73
4
74
0
42
0.000000001
43
0.0000000001
44
0.0000000001
40
0
40
0
40
0
40
0
40
1
40
1
40
1
40
1
10
298.09446607130968
20
-93.17674151316416
30
0
10
298.26017516415033
20
-93.17674151316416
30
0
10
298.39453388807499
20
-93.042382789239412
30
0
10
298.39453388807499
20
-92.87667369639891
30
0
0
LINE
5
404
100
AcDbEntity
8
0
100
AcDbLine
10
160.56935488607292
20
-92.87667369639891
30
0
11
160.56935488607292
21
-79.476630296971123
31
0
0
SPLINE
5
405
100
AcDbEntity
8
0
100
AcDbSpline
70
0
71
3
72
8
73
4
74
0
42
0.000000001
43
0.0000000001
44
0.0000000001
40
0
40
0
40
0
40
0
40
1
40
1
40
1
40
1
10
-1.0555772566805499
20
-60.126562484968353
30
0
10
-1.2212863495210671
20
-60.126562484968353
30
0
10
-1.355472818671549
20
-60.260921208893109
30
0
10
-1.355472818671549
20
-60.426630301733617
30
0
0
SPLINE
5
406
100
AcDbEntity
8
0
100
AcDbSpline
70
0
71
3
72
8
73
4
74
0
42
0.000000001
43
0.0000000001
44
0.0000000001
40
0
40
0
40
0
40
0
40
1
40
1
40
1
40
1
10
12.64436170473822
20
-60.426630301733617
30
0
10
12.64436170473822
20
-60.260921208893109
30
0
10
12.510175235587731
20
-60.126562484968353
30
0
10
12.344466142747221
20
-60.126562484968353
30
0
0
SPLINE
5
407
100
AcDbEntity
8
0
100
AcDbSpline
70
0
71
3
72
8
73
4
74
0
42
0.000000001
43
0.0000000001
44
0.0000000001
40
0
40
0
40
0
40
0
40
1
40
1
40
1
40
1
10
218.01942268855069
20
-79.17656248020586
30
0
10
217.85371359571016
20
-79.17656248020586
30
0
10
217.71935487178536
20
-79.310921204130608
30
0
10
217.71935487178536
20
-79.476630296971123
30
0
0
SPLINE
5
408
100
AcDbEntity
8
0
100
AcDbSpline
70
0
71
3
72
8
73
4
74
0
42
0.000000001
43
0.0000000001
44
0.0000000001
40
0
40
0
40
0
40
0
40
1
40
1
40
1
40
1
10
12.344466142747221
20
-74.126741517926661
30
0
10
12.510175235587731
20
-74.126741517926661
30
0
10
12.64436170473822
20
-73.992382794001898
30
0
10
12.64436170473822
20
-73.826673701161397
30
0
0
LINE
5
409
100
AcDbEntity
8
0
100
AcDbLine
10
212.36946609274099
20
-93.17674151316416
30
0
11
198.96942269331319
21
-93.17674151316416
31
0
0
LINE
5
410
100
AcDbEntity
8
0
100
AcDbLine
10
179.61935488131041
20
-92.87667369639891
30
0
11
179.61935488131041
21
-79.476630296971123
31
0
0
SPLINE
5
411
100
AcDbEntity
8
0
100
AcDbSpline
70
0
71
3
72
8
73
4
74
0
42
0.000000001
43
0.0000000001
44
0.0000000001
40
0
40
0
40
0
40
0
40
1
40
1
40
1
40
1
10
17.994422738556949
20
-60.126562484968353
30
0
10
17.828713645716434
20
-60.126562484968353
30
0
10
17.694527176565948
20
-60.260921208893109
30
0
10
17.694527176565948
20
-60.426630301733617
30
0
0
LINE
5
412
100
AcDbEntity
8
0
100
AcDbLine
10
212.66953390950619
20
-79.476630296971123
30
0
11
212.66953390950619
21
-92.87667369639891
31
0
0
LINE
5
413
100
AcDbEntity
8
0
100
AcDbLine
10
231.41946608797852
20
-93.17674151316416
30
0
11
218.01942268855066
21
-93.17674151316416
31
0
0
SPLINE
5
414
100
AcDbEntity
8
0
100
AcDbSpline
70
0
71
3
72
8
73
4
74
0
42
0.000000001
43
0.0000000001
44
0.0000000001
40
0
40
0
40
0
40
0
40
1
40
1
40
1
40
1
10
179.61935488131041
20
-92.87667369639891
30
0
10
179.61935488131041
20
-93.042382789239412
30
0
10
179.75371360523519
20
-93.17674151316416
30
0
10
179.91942269807566
20
-93.17674151316416
30
0
0
SPLINE
5
415
100
AcDbEntity
8
0
100
AcDbSpline
70
0
71
3
72
8
73
4
74
0
42
0.000000001
43
0.0000000001
44
0.0000000001
40
0
40
0
40
0
40
0
40
1
40
1
40
1
40
1
10
198.66935487654789
20
-92.87667369639891
30
0
10
198.66935487654789
20
-93.042382789239412
30
0
10
198.80371360047269
20
-93.17674151316416
30
0
10
198.96942269331319
20
-93.17674151316416
30
0
0
SPLINE
5
416
100
AcDbEntity
8
0
100
AcDbSpline
70
0
71
3
72
8
73
4
74
0
42
0.000000001
43
0.0000000001
44
0.0000000001
40
0
40
0
40
0
40
0
40
1
40
1
40
1
40
1
10
212.66953390950619
20
-79.476630296971123
30
0
10
212.66953390950619
20
-79.310921204130608
30
0
10
212.53517518558152
20
-79.17656248020586
30
0
10
212.36946609274099
20
-79.17656248020586
30
0
0
LINE
5
417
100
AcDbEntity
8
0
100
AcDbLine
10
298.09446607130968
20
-93.17674151316416
30
0
11
284.69442267188197
21
-93.17674151316416
31
0
0
LINE
5
418
100
AcDbEntity
8
0
100
AcDbLine
10
-1.0555772566805499
20
-60.126562484968353
30
0
11
12.344466142747221
21
-60.126562484968353
31
0
0
SPLINE
5
419
100
AcDbEntity
8
0
100
AcDbSpline
70
0
71
3
72
8
73
4
74
0
42
0.000000001
43
0.0000000001
44
0.0000000001
40
0
40
0
40
0
40
0
40
1
40
1
40
1
40
1
10
231.41946608797852
20
-93.17674151316416
30
0
10
231.58517518081905
20
-93.17674151316416
30
0
10
231.71953390474368
20
-93.042382789239412
30
0
10
231.71953390474368
20
-92.87667369639891
30
0
0
LINE
5
420
100
AcDbEntity
8
0
100
AcDbLine
10
-1.355472818671549
20
-73.826673701161397
30
0
11
-1.355472818671549
21
-60.426630301733617
31
0
0
LINE
5
421
100
AcDbEntity
8
0
100
AcDbLine
10
12.64436170473822
20
-60.426630301733617
30
0
11
12.64436170473822
21
-73.826673701161397
31
0
0
LINE
5
422
100
AcDbEntity
8
0
100
AcDbLine
10
236.76935486702288
20
-92.87667369639891
30
0
11
236.76935486702288
21
-79.476630296971123
31
0
0
LINE
5
423
100
AcDbEntity
8
0
100
AcDbLine
10
12.344466142747221
20
-74.126741517926661
30
0
11
-1.055577256680551
21
-74.126741517926661
31
0
0
SPLINE
5
424
100
AcDbEntity
8
0
100
AcDbSpline
70
0
71
3
72
8
73
4
74
0
42
0.000000001
43
0.0000000001
44
0.0000000001
40
0
40
0
40
0
40
0
40
1
40
1
40
1
40
1
10
-1.355472818671549
20
-73.826673701161397
30
0
10
-1.355472818671549
20
-73.992382794001898
30
0
10
-1.2212863495210671
20
-74.126741517926661
30
0
10
-1.0555772566805499
20
-74.126741517926661
30
0
0
LINE
5
425
100
AcDbEntity
8
0
100
AcDbLine
10
179.91942269807566
20
-79.17656248020586
30
0
11
193.31946609750355
21
-79.17656248020586
31
0
0
SPLINE
5
426
100
AcDbEntity
8
0
100
AcDbSpline
70
0
71
3
72
8
73
4
74
0
42
0.000000001
43
0.0000000001
44
0.0000000001
40
0
40
0
40
0
40
0
40
1
40
1
40
1
40
1
10
31.694361699975715
20
-60.426630301733617
30
0
10
31.694361699975715
20
-60.260921208893109
30
0
10
31.56017523082523
20
-60.126562484968353
30
0
10
31.394466137984722
20
-60.126562484968353
30
0
0
SPLINE
5
427
100
AcDbEntity
8
0
100
AcDbSpline
70
0
71
3
72
8
73
4
74
0
42
0.000000001
43
0.0000000001
44
0.0000000001
40
0
40
0
40
0
40
0
40
1
40
1
40
1
40
1
10
31.394466137984722
20
-74.126741517926661
30
0
10
31.56017523082523
20
-74.126741517926661
30
0
10
31.694361699975715
20
-73.992382794001898
30
0
10
31.694361699975715
20
-73.826673701161397
30
0
0
SPLINE
5
428
100
AcDbEntity
8
0
100
AcDbSpline
70
0
71
3
72
8
73
4
74
0
42
0.000000001
43
0.0000000001
44
0.0000000001
40
0
40
0
40
0
40
0
40
1
40
1
40
1
40
1
10
17.694527176565948
20
-73.826673701161397
30
0
10
17.694527176565948
20
-73.992382794001898
30
0
10
17.828713645716434
20
-74.126741517926661
30
0
10
17.994422738556949
20
-74.126741517926661
30
0
0
LINE
5
429
100
AcDbEntity
8
0
100
AcDbLine
10
17.694527176565948
20
-73.826673701161397
30
0
11
17.694527176565948
21
-60.426630301733617
31
0
0
LINE
5
430
100
AcDbEntity
8
0
100
AcDbLine
10
193.61953391426869
20
-79.476630296971123
30
0
11
193.61953391426869
21
-92.87667369639891
31
0
0
SPLINE
5
431
100
AcDbEntity
8
0
100
AcDbSpline
70
0
71
3
72
8
73
4
74
0
42
0.000000001
43
0.0000000001
44
0.0000000001
40
0
40
0
40
0
40
0
40
1
40
1
40
1
40
1
10
298.39453388807499
20
-79.476630296971123
30
0
10
298.39453388807499
20
-79.310921204130608
30
0
10
298.26017516415033
20
-79.17656248020586
30
0
10
298.09446607130968
20
-79.17656248020586
30
0
0
LINE
5
432
100
AcDbEntity
8
0
100
AcDbLine
10
193.31946609750355
20
-93.17674151316416
30
0
11
179.91942269807566
21
-93.17674151316416
31
0
0
SPLINE
5
433
100
AcDbEntity
8
0
100
AcDbSpline
70
0
71
3
72
8
73
4
74
0
42
0.000000001
43
0.0000000001
44
0.0000000001
40
0
40
0
40
0
40
0
40
1
40
1
40
1
40
1
10
284.69442267188197
20
-79.17656248020586
30
0
10
284.52871357904138
20
-79.17656248020586
30
0
10
284.39435485511672
20
-79.310921204130608
30
0
10
284.39435485511672
20
-79.476630296971123
30
0
0
LINE
5
434
100
AcDbEntity
8
0
100
AcDbLine
10
284.39435485511672
20
-92.87667369639891
30
0
11
284.39435485511672
21
-79.476630296971123
31
0
0
SPLINE
5
435
100
AcDbEntity
8
0
100
AcDbSpline
70
0
71
3
72
8
73
4
74
0
42
0.000000001
43
0.0000000001
44
0.0000000001
40
0
40
0
40
0
40
0
40
1
40
1
40
1
40
1
10
237.06942268378822
20
-79.17656248020586
30
0
10
236.90371359094769
20
-79.17656248020586
30
0
10
236.76935486702288
20
-79.310921204130608
30
0
10
236.76935486702288
20
-79.476630296971123
30
0
0
SPLINE
5
436
100
AcDbEntity
8
0
100
AcDbSpline
70
0
71
3
72
8
73
4
74
0
42
0.000000001
43
0.0000000001
44
0.0000000001
40
0
40
0
40
0
40
0
40
1
40
1
40
1
40
1
10
236.76935486702288
20
-92.87667369639891
30
0
10
236.76935486702288
20
-93.042382789239412
30
0
10
236.90371359094769
20
-93.17674151316416
30
0
10
237.06942268378822
20
-93.17674151316416
30
0
0
SPLINE
5
437
100
AcDbEntity
8
0
100
AcDbSpline
70
0
71
3
72
8
73
4
74
0
42
0.000000001
43
0.0000000001
44
0.0000000001
40
0
40
0
40
0
40
0
40
1
40
1
40
1
40
1
10
217.71935487178536
20
-92.87667369639891
30
0
10
217.71935487178536
20
-93.042382789239412
30
0
10
217.85371359571016
20
-93.17674151316416
30
0
10
218.01942268855069
20
-93.17674151316416
30
0
0
SPLINE
5
438
100
AcDbEntity
8
0
100
AcDbSpline
70
0
71
3
72
8
73
4
74
0
42
0.000000001
43
0.0000000001
44
0.0000000001
40
0
40
0
40
0
40
0
40
1
40
1
40
1
40
1
10
193.31946609750355
20
-93.17674151316416
30
0
10
193.48517519034402
20
-93.17674151316416
30
0
10
193.61953391426869
20
-93.042382789239412
30
0
10
193.61953391426869
20
-92.87667369639891
30
0
0
SPLINE
5
439
100
AcDbEntity
8
0
100
AcDbSpline
70
0
71
3
72
8
73
4
74
0
42
0.000000001
43
0.0000000001
44
0.0000000001
40
0
40
0
40
0
40
0
40
1
40
1
40
1
40
1
10
250.46946608321602
20
-93.17674151316416
30
0
10
250.63517517605652
20
-93.17674151316416
30
0
10
250.76953389998121
20
-93.042382789239412
30
0
10
250.76953389998121
20
-92.87667369639891
30
0
0
SPLINE
5
440
100
AcDbEntity
8
0
100
AcDbSpline
70
0
71
3
72
8
73
4
74
0
42
0.000000001
43
0.0000000001
44
0.0000000001
40
0
40
0
40
0
40
0
40
1
40
1
40
1
40
1
10
193.61953391426869
20
-79.476630296971123
30
0
10
193.61953391426869
20
-79.310921204130608
30
0
10
193.48517519034402
20
-79.17656248020586
30
0
10
193.31946609750355
20
-79.17656248020586
30
0
0
LINE
5
441
100
AcDbEntity
8
0
100
AcDbLine
10
198.96942269331319
20
-79.17656248020586
30
0
11
212.36946609274099
21
-79.17656248020586
31
0
0
SPLINE
5
442
100
AcDbEntity
8
0
100
AcDbSpline
70
0
71
3
72
8
73
4
74
0
42
0.000000001
43
0.0000000001
44
0.0000000001
40
0
40
0
40
0
40
0
40
1
40
1
40
1
40
1
10
231.71953390474368
20
-79.476630296971123
30
0
10
231.71953390474368
20
-79.310921204130608
30
0
10
231.58517518081905
20
-79.17656248020586
30
0
10
231.41946608797852
20
-79.17656248020586
30
0
0
LINE
5
443
100
AcDbEntity
8
0
100
AcDbLine
10
198.66935487654789
20
-92.87667369639891
30
0
11
198.66935487654789
21
-79.476630296971123
31
0
0
LINE
5
444
100
AcDbEntity
8
0
100
AcDbLine
10
217.71935487178536
20
-92.87667369639891
30
0
11
217.71935487178536
21
-79.476630296971123
31
0
0
SPLINE
5
445
100
AcDbEntity
8
0
100
AcDbSpline
70
0
71
3
72
8
73
4
74
0
42
0.000000001
43
0.0000000001
44
0.0000000001
40
0
40
0
40
0
40
0
40
1
40
1
40
1
40
1
10
250.76953389998121
20
-79.476630296971123
30
0
10
250.76953389998121
20
-79.310921204130608
30
0
10
250.63517517605652
20
-79.17656248020586
30
0
10
250.46946608321602
20
-79.17656248020586
30
0
0
LINE
5
446
100
AcDbEntity
8
0
100
AcDbLine
10
237.06942268378822
20
-79.17656248020586
30
0
11
250.46946608321602
21
-79.17656248020586
31
0
0
LINE
5
447
100
AcDbEntity
8
0
100
AcDbLine
10
250.76953389998121
20
-79.476630296971123
30
0
11
250.76953389998121
21
-92.87667369639891
31
0
0
LINE
5
448
100
AcDbEntity
8
0
100
AcDbLine
10
284.69442267188197
20
-79.17656248020586
30
0
11
298.09446607130968
21
-79.17656248020586
31
0
0
SPLINE
5
449
100
AcDbEntity
8
0
100
AcDbSpline
70
0
71
3
72
8
73
4
74
0
42
0.000000001
43
0.0000000001
44
0.0000000001
40
0
40
0
40
0
40
0
40
1
40
1
40
1
40
1
10
198.96942269331319
20
-79.17656248020586
30
0
10
198.80371360047269
20
-79.17656248020586
30
0
10
198.66935487654789
20
-79.310921204130608
30
0
10
198.66935487654789
20
-79.476630296971123
30
0
0
LINE
5
450
100
AcDbEntity
8
0
100
AcDbLine
10
218.01942268855069
20
-79.17656248020586
30
0
11
231.41946608797852
21
-79.17656248020586
31
0
0
LINE
5
451
100
AcDbEntity
8
0
100
AcDbLine
10
231.71953390474368
20
-79.476630296971123
30
0
11
231.71953390474368
21
-92.87667369639891
31
0
0
SPLINE
5
452
100
AcDbEntity
8
0
100
AcDbSpline
70
0
71
3
72
8
73
4
74
0
42
0.000000001
43
0.0000000001
44
0.0000000001
40
0
40
0
40
0
40
0
40
1
40
1
40
1
40
1
10
212.36946609274099
20
-93.17674151316416
30
0
10
212.53517518558152
20
-93.17674151316416
30
0
10
212.66953390950619
20
-93.042382789239412
30
0
10
212.66953390950619
20
-92.87667369639891
30
0
0
SPLINE
5
453
100
AcDbEntity
8
0
100
AcDbSpline
70
0
71
3
72
8
73
4
74
0
42
0.000000001
43
0.0000000001
44
0.0000000001
40
0
40
0
40
0
40
0
40
1
40
1
40
1
40
1
10
103.41935490036042
20
-92.87667369639891
30
0
10
103.41935490036042
20
-93.042382789239412
30
0
10
103.55371362428521
20
-93.17674151316416
30
0
10
103.71942271712568
20
-93.17674151316416
30
0
0
SPLINE
5
454
100
AcDbEntity
8
0
100
AcDbSpline
70
0
71
3
72
8
73
4
74
0
42
0.000000001
43
0.0000000001
44
0.0000000001
40
0
40
0
40
0
40
0
40
1
40
1
40
1
40
1
10
155.2194661070285
20
-93.17674151316416
30
0
10
155.385175199869
20
-93.17674151316416
30
0
10
155.51953392379369
20
-93.042382789239412
30
0
10
155.51953392379369
20
-92.87667369639891
30
0
0
SPLINE
5
455
100
AcDbEntity
8
0
100
AcDbSpline
70
0
71
3
72
8
73
4
74
0
42
0.000000001
43
0.0000000001
44
0.0000000001
40
0
40
0
40
0
40
0
40
1
40
1
40
1
40
1
10
98.369533938081233
20
-79.476630296971123
30
0
10
98.369533938081233
20
-79.310921204130608
30
0
10
98.23517521415647
20
-79.17656248020586
30
0
10
98.069466121315955
20
-79.17656248020586
30
0
0
SPLINE
5
456
100
AcDbEntity
8
0
100
AcDbSpline
70
0
71
3
72
8
73
4
74
0
42
0.000000001
43
0.0000000001
44
0.0000000001
40
0
40
0
40
0
40
0
40
1
40
1
40
1
40
1
10
136.46953392855619
20
-79.476630296971123
30
0
10
136.46953392855619
20
-79.310921204130608
30
0
10
136.3351752046315
20
-79.17656248020586
30
0
10
136.169466111791
20
-79.17656248020586
30
0
0
SPLINE
5
457
100
AcDbEntity
8
0
100
AcDbSpline
70
0
71
3
72
8
73
4
74
0
42
0.000000001
43
0.0000000001
44
0.0000000001
40
0
40
0
40
0
40
0
40
1
40
1
40
1
40
1
10
122.76942271236322
20
-79.17656248020586
30
0
10
122.60371361952269
20
-79.17656248020586
30
0
10
122.46935489559792
20
-79.310921204130608
30
0
10
122.46935489559792
20
-79.476630296971123
30
0
0
SPLINE
5
458
100
AcDbEntity
8
0
100
AcDbSpline
70
0
71
3
72
8
73
4
74
0
42
0.000000001
43
0.0000000001
44
0.0000000001
40
0
40
0
40
0
40
0
40
1
40
1
40
1
40
1
10
84.669422721888182
20
-79.17656248020586
30
0
10
84.503713629047695
20
-79.17656248020586
30
0
10
84.369527159897203
20
-79.310921204130608
30
0
10
84.369527159897203
20
-79.476630296971123
30
0
0
SPLINE
5
459
100
AcDbEntity
8
0
100
AcDbSpline
70
0
71
3
72
8
73
4
74
0
42
0.000000001
43
0.0000000001
44
0.0000000001
40
0
40
0
40
0
40
0
40
1
40
1
40
1
40
1
10
84.369527159897203
20
-92.87667369639891
30
0
10
84.369527159897203
20
-93.042382789239412
30
0
10
84.503713629047695
20
-93.17674151316416
30
0
10
84.669422721888182
20
-93.17674151316416
30
0
0
LINE
5
460
100
AcDbEntity
8
0
100
AcDbLine
10
17.994422738556949
20
-60.126562484968353
30
0
11
31.394466137984722
21
-60.126562484968353
31
0
0
SPLINE
5
461
100
AcDbEntity
8
0
100
AcDbSpline
70
0
71
3
72
8
73
4
74
0
42
0.000000001
43
0.0000000001
44
0.0000000001
40
0
40
0
40
0
40
0
40
1
40
1
40
1
40
1
10
103.71942271712568
20
-79.17656248020586
30
0
10
103.55371362428521
20
-79.17656248020586
30
0
10
103.41935490036042
20
-79.310921204130608
30
0
10
103.41935490036042
20
-79.476630296971123
30
0
0
SPLINE
5
462
100
AcDbEntity
8
0
100
AcDbSpline
70
0
71
3
72
8
73
4
74
0
42
0.000000001
43
0.0000000001
44
0.0000000001
40
0
40
0
40
0
40
0
40
1
40
1
40
1
40
1
10
117.4195339333187
20
-79.476630296971123
30
0
10
117.4195339333187
20
-79.310921204130608
30
0
10
117.285175209394
20
-79.17656248020586
30
0
10
117.1194661165535
20
-79.17656248020586
30
0
0
SPLINE
5
463
100
AcDbEntity
8
0
100
AcDbSpline
70
0
71
3
72
8
73
4
74
0
42
0.000000001
43
0.0000000001
44
0.0000000001
40
0
40
0
40
0
40
0
40
1
40
1
40
1
40
1
10
122.46935489559792
20
-92.87667369639891
30
0
10
122.46935489559792
20
-93.042382789239412
30
0
10
122.60371361952269
20
-93.17674151316416
30
0
10
122.76942271236322
20
-93.17674151316416
30
0
0
SPLINE
5
464
100
AcDbEntity
8
0
100
AcDbSpline
70
0
71
3
72
8
73
4
74
0
42
0.000000001
43
0.0000000001
44
0.0000000001
40
0
40
0
40
0
40
0
40
1
40
1
40
1
40
1
10
136.169466111791
20
-93.17674151316416
30
0
10
136.3351752046315
20
-93.17674151316416
30
0
10
136.46953392855619
20
-93.042382789239412
30
0
10
136.46953392855619
20
-92.87667369639891
30
0
0
LINE
5
465
100
AcDbEntity
8
0
100
AcDbLine
10
84.369527159897203
20
-92.87667369639891
30
0
11
84.369527159897203
21
-79.476630296971123
31
0
0
LINE
5
466
100
AcDbEntity
8
0
100
AcDbLine
10
31.694361699975715
20
-60.426630301733617
30
0
11
31.694361699975715
21
-73.826673701161397
31
0
0
SPLINE
5
467
100
AcDbEntity
8
0
100
AcDbSpline
70
0
71
3
72
8
73
4
74
0
42
0.000000001
43
0.0000000001
44
0.0000000001
40
0
40
0
40
0
40
0
40
1
40
1
40
1
40
1
10
98.069466121315955
20
-93.17674151316416
30
0
10
98.23517521415647
20
-93.17674151316416
30
0
10
98.369533938081233
20
-93.042382789239412
30
0
10
98.369533938081233
20
-92.87667369639891
30
0
0
LINE
5
468
100
AcDbEntity
8
0
100
AcDbLine
10
136.46953392855619
20
-79.476630296971123
30
0
11
136.46953392855619
21
-92.87667369639891
31
0
0
LINE
5
469
100
AcDbEntity
8
0
100
AcDbLine
10
122.46935489559792
20
-92.87667369639891
30
0
11
122.46935489559792
21
-79.476630296971123
31
0
0
LINE
5
470
100
AcDbEntity
8
0
100
AcDbLine
10
117.1194661165535
20
-93.17674151316416
30
0
11
103.71942271712568
21
-93.17674151316416
31
0
0
LINE
5
471
100
AcDbEntity
8
0
100
AcDbLine
10
79.01946612607847
20
-93.17674151316416
30
0
11
65.619422726650711
21
-93.17674151316416
31
0
0
LINE
5
472
100
AcDbEntity
8
0
100
AcDbLine
10
103.71942271712568
20
-79.17656248020586
30
0
11
117.1194661165535
21
-79.17656248020586
31
0
0
LINE
5
473
100
AcDbEntity
8
0
100
AcDbLine
10
84.669422721888182
20
-79.17656248020586
30
0
11
98.069466121315955
21
-79.17656248020586
31
0
0
SPLINE
5
474
100
AcDbEntity
8
0
100
AcDbSpline
70
0
71
3
72
8
73
4
74
0
42
0.000000001
43
0.0000000001
44
0.0000000001
40
0
40
0
40
0
40
0
40
1
40
1
40
1
40
1
10
141.81942270760069
20
-79.17656248020586
30
0
10
141.65371361476019
20
-79.17656248020586
30
0
10
141.51935489083539
20
-79.310921204130608
30
0
10
141.51935489083539
20
-79.476630296971123
30
0
0
LINE
5
475
100
AcDbEntity
8
0
100
AcDbLine
10
65.319527164659704
20
-92.87667369639891
30
0
11
65.319527164659704
21
-79.476630296971123
31
0
0
LINE
5
476
100
AcDbEntity
8
0
100
AcDbLine
10
155.51953392379369
20
-79.476630296971123
30
0
11
155.51953392379369
21
-92.87667369639891
31
0
0
SPLINE
5
477
100
AcDbEntity
8
0
100
AcDbSpline
70
0
71
3
72
8
73
4
74
0
42
0.000000001
43
0.0000000001
44
0.0000000001
40
0
40
0
40
0
40
0
40
1
40
1
40
1
40
1
10
174.56953391903119
20
-79.476630296971123
30
0
10
174.56953391903119
20
-79.310921204130608
30
0
10
174.4351751951065
20
-79.17656248020586
30
0
10
174.26946610226599
20
-79.17656248020586
30
0
0
LINE
5
478
100
AcDbEntity
8
0
100
AcDbLine
10
141.81942270760069
20
-79.17656248020586
30
0
11
155.2194661070285
21
-79.17656248020586
31
0
0
LINE
5
479
100
AcDbEntity
8
0
100
AcDbLine
10
141.51935489083539
20
-92.87667369639891
30
0
11
141.51935489083539
21
-79.476630296971123
31
0
0
SPLINE
5
480
100
AcDbEntity
8
0
100
AcDbSpline
70
0
71
3
72
8
73
4
74
0
42
0.000000001
43
0.0000000001
44
0.0000000001
40
0
40
0
40
0
40
0
40
1
40
1
40
1
40
1
10
160.56935488607292
20
-92.87667369639891
30
0
10
160.56935488607292
20
-93.042382789239412
30
0
10
160.70371360999769
20
-93.17674151316416
30
0
10
160.86942270283816
20
-93.17674151316416
30
0
0
SPLINE
5
481
100
AcDbEntity
8
0
100
AcDbSpline
70
0
71
3
72
8
73
4
74
0
42
0.000000001
43
0.0000000001
44
0.0000000001
40
0
40
0
40
0
40
0
40
1
40
1
40
1
40
1
10
174.26946610226599
20
-93.17674151316416
30
0
10
174.4351751951065
20
-93.17674151316416
30
0
10
174.56953391903119
20
-93.042382789239412
30
0
10
174.56953391903119
20
-92.87667369639891
30
0
0
LINE
5
482
100
AcDbEntity
8
0
100
AcDbLine
10
136.169466111791
20
-93.17674151316416
30
0
11
122.76942271236322
21
-93.17674151316416
31
0
0
SPLINE
5
483
100
AcDbEntity
8
0
100
AcDbSpline
70
0
71
3
72
8
73
4
74
0
42
0.000000001
43
0.0000000001
44
0.0000000001
40
0
40
0
40
0
40
0
40
1
40
1
40
1
40
1
10
179.91942269807566
20
-79.17656248020586
30
0
10
179.75371360523519
20
-79.17656248020586
30
0
10
179.61935488131041
20
-79.310921204130608
30
0
10
179.61935488131041
20
-79.476630296971123
30
0
0
LINE
5
484
100
AcDbEntity
8
0
100
AcDbLine
10
174.56953391903119
20
-79.476630296971123
30
0
11
174.56953391903119
21
-92.87667369639891
31
0
0
LINE
5
485
100
AcDbEntity
8
0
100
AcDbLine
10
160.86942270283816
20
-79.17656248020586
30
0
11
174.26946610226599
21
-79.17656248020586
31
0
0
SPLINE
5
486
100
AcDbEntity
8
0
100
AcDbSpline
70
0
71
3
72
8
73
4
74
0
42
0.000000001
43
0.0000000001
44
0.0000000001
40
0
40
0
40
0
40
0
40
1
40
1
40
1
40
1
10
165.04453392141249
20
-60.426630301733617
30
0
10
165.04453392141249
20
-60.260921208893109
30
0
10
164.91017519748769
20
-60.126562484968353
30
0
10
164.74446610464719
20
-60.126562484968353
30
0
0
LINE
5
487
100
AcDbEntity
8
0
100
AcDbLine
10
103.41935490036042
20
-92.87667369639891
30
0
11
103.41935490036042
21
-79.476630296971123
31
0
0
SPLINE
5
488
100
AcDbEntity
8
0
100
AcDbSpline
70
0
71
3
72
8
73
4
74
0
42
0.000000001
43
0.0000000001
44
0.0000000001
40
0
40
0
40
0
40
0
40
1
40
1
40
1
40
1
10
79.01946612607847
20
-93.17674151316416
30
0
10
79.185175218918985
20
-93.17674151316416
30
0
10
79.319361688069449
20
-93.042382789239412
30
0
10
79.319361688069449
20
-92.87667369639891
30
0
0
SPLINE
5
489
100
AcDbEntity
8
0
100
AcDbSpline
70
0
71
3
72
8
73
4
74
0
42
0.000000001
43
0.0000000001
44
0.0000000001
40
0
40
0
40
0
40
0
40
1
40
1
40
1
40
1
10
160.86942270283816
20
-79.17656248020586
30
0
10
160.70371360999769
20
-79.17656248020586
30
0
10
160.56935488607292
20
-79.310921204130608
30
0
10
160.56935488607292
20
-79.476630296971123
30
0
0
LINE
5
490
100
AcDbEntity
8
0
100
AcDbLine
10
79.319361688069449
20
-79.476630296971123
30
0
11
79.319361688069449
21
-92.87667369639891
31
0
0
LINE
5
491
100
AcDbEntity
8
0
100
AcDbLine
10
155.2194661070285
20
-93.17674151316416
30
0
11
141.81942270760069
21
-93.17674151316416
31
0
0
LINE
5
492
100
AcDbEntity
8
0
100
AcDbLine
10
117.4195339333187
20
-79.476630296971123
30
0
11
117.4195339333187
21
-92.87667369639891
31
0
0
LINE
5
493
100
AcDbEntity
8
0
100
AcDbLine
10
174.26946610226599
20
-93.17674151316416
30
0
11
160.86942270283816
21
-93.17674151316416
31
0
0
SPLINE
5
494
100
AcDbEntity
8
0
100
AcDbSpline
70
0
71
3
72
8
73
4
74
0
42
0.000000001
43
0.0000000001
44
0.0000000001
40
0
40
0
40
0
40
0
40
1
40
1
40
1
40
1
10
164.74446610464719
20
-74.126741517926661
30
0
10
164.91017519748769
20
-74.126741517926661
30
0
10
165.04453392141249
20
-73.992382794001898
30
0
10
165.04453392141249
20
-73.826673701161397
30
0
0
SPLINE
5
495
100
AcDbEntity
8
0
100
AcDbSpline
70
0
71
3
72
8
73
4
74
0
42
0.000000001
43
0.0000000001
44
0.0000000001
40
0
40
0
40
0
40
0
40
1
40
1
40
1
40
1
10
151.34442270521942
20
-60.126562484968353
30
0
10
151.17871361237891
20
-60.126562484968353
30
0
10
151.04435488845419
20
-60.260921208893109
30
0
10
151.04435488845419
20
-60.426630301733617
30
0
0
SPLINE
5
496
100
AcDbEntity
8
0
100
AcDbSpline
70
0
71
3
72
8
73
4
74
0
42
0.000000001
43
0.0000000001
44
0.0000000001
40
0
40
0
40
0
40
0
40
1
40
1
40
1
40
1
10
155.51953392379369
20
-79.476630296971123
30
0
10
155.51953392379369
20
-79.310921204130608
30
0
10
155.385175199869
20
-79.17656248020586
30
0
10
155.2194661070285
20
-79.17656248020586
30
0
0
SPLINE
5
497
100
AcDbEntity
8
0
100
AcDbSpline
70
0
71
3
72
8
73
4
74
0
42
0.000000001
43
0.0000000001
44
0.0000000001
40
0
40
0
40
0
40
0
40
1
40
1
40
1
40
1
10
65.319527164659704
20
-92.87667369639891
30
0
10
65.319527164659704
20
-93.042382789239412
30
0
10
65.453713633810182
20
-93.17674151316416
30
0
10
65.619422726650711
20
-93.17674151316416
30
0
0
LINE
5
498
100
AcDbEntity
8
0
100
AcDbLine
10
122.76942271236322
20
-79.17656248020586
30
0
11
136.169466111791
21
-79.17656248020586
31
0
0
LINE
5
499
100
AcDbEntity
8
0
100
AcDbLine
10
65.619422726650711
20
-79.17656248020586
30
0
11
79.01946612607847
21
-79.17656248020586
31
0
0
SPLINE
5
500
100
AcDbEntity
8
0
100
AcDbSpline
70
0
71
3
72
8
73
4
74
0
42
0.000000001
43
0.0000000001
44
0.0000000001
40
0
40
0
40
0
40
0
40
1
40
1
40
1
40
1
10
141.51935489083539
20
-92.87667369639891
30
0
10
141.51935489083539
20
-93.042382789239412
30
0
10
141.65371361476019
20
-93.17674151316416
30
0
10
141.81942270760069
20
-93.17674151316416
30
0
0
SPLINE
5
501
100
AcDbEntity
8
0
100
AcDbSpline
70
0
71
3
72
8
73
4
74
0
42
0.000000001
43
0.0000000001
44
0.0000000001
40
0
40
0
40
0
40
0
40
1
40
1
40
1
40
1
10
37.044422733794448
20
-60.126562484968353
30
0
10
36.878713640953933
20
-60.126562484968353
30
0
10
36.744527171803455
20
-60.260921208893109
30
0
10
36.744527171803455
20
-60.426630301733617
30
0
0
LINE
5
502
100
AcDbEntity
8
0
100
AcDbLine
10
98.069466121315955
20
-93.17674151316416
30
0
11
84.669422721888182
21
-93.17674151316416
31
0
0
SPLINE
5
503
100
AcDbEntity
8
0
100
AcDbSpline
70
0
71
3
72
8
73
4
74
0
42
0.000000001
43
0.0000000001
44
0.0000000001
40
0
40
0
40
0
40
0
40
1
40
1
40
1
40
1
10
117.1194661165535
20
-93.17674151316416
30
0
10
117.285175209394
20
-93.17674151316416
30
0
10
117.4195339333187
20
-93.042382789239412
30
0
10
117.4195339333187
20
-92.87667369639891
30
0
0
LINE
5
504
100
AcDbEntity
8
0
100
AcDbLine
10
31.394466137984722
20
-74.126741517926661
30
0
11
17.994422738556949
21
-74.126741517926661
31
0
0
LINE
5
505
100
AcDbEntity
8
0
100
AcDbLine
10
98.369533938081233
20
-79.476630296971123
30
0
11
98.369533938081233
21
-92.87667369639891
31
0
0
LINE
5
506
100
AcDbEntity
8
0
100
AcDbLine
10
269.81953389521868
20
-60.426630301733617
30
0
11
269.81953389521868
21
-73.826673701161397
31
0
0
LINE
5
507
100
AcDbEntity
8
0
100
AcDbLine
10
256.11942267902566
20
-60.126562484968353
30
0
11
269.51946607845349
21
-60.126562484968353
31
0
0
LINE
5
508
100
AcDbEntity
8
0
100
AcDbLine
10
183.79446609988469
20
-74.126741517926661
30
0
11
170.394422700457
21
-74.126741517926661
31
0
0
SPLINE
5
509
100
AcDbEntity
8
0
100
AcDbSpline
70
0
71
3
72
8
73
4
74
0
42
0.000000001
43
0.0000000001
44
0.0000000001
40
0
40
0
40
0
40
0
40
1
40
1
40
1
40
1
10
208.19435487416672
20
-73.826673701161397
30
0
10
208.19435487416672
20
-73.992382794001898
30
0
10
208.32871359809138
20
-74.126741517926661
30
0
10
208.494422690932
20
-74.126741517926661
30
0
0
LINE
5
510
100
AcDbEntity
8
0
100
AcDbLine
10
255.81935486226041
20
-73.826673701161397
30
0
11
255.81935486226041
21
-60.426630301733617
31
0
0
SPLINE
5
511
100
AcDbEntity
8
0
100
AcDbSpline
70
0
71
3
72
8
73
4
74
0
42
0.000000001
43
0.0000000001
44
0.0000000001
40
0
40
0
40
0
40
0
40
1
40
1
40
1
40
1
10
269.81953389521868
20
-60.426630301733617
30
0
10
269.81953389521868
20
-60.260921208893109
30
0
10
269.68517517129396
20
-60.126562484968353
30
0
10
269.51946607845349
20
-60.126562484968353
30
0
0
SPLINE
5
512
100
AcDbEntity
8
0
100
AcDbSpline
70
0
71
3
72
8
73
4
74
0
42
0.000000001
43
0.0000000001
44
0.0000000001
40
0
40
0
40
0
40
0
40
1
40
1
40
1
40
1
10
240.94446608559718
20
-74.126741517926661
30
0
10
241.11017517843771
20
-74.126741517926661
30
0
10
241.24453390236252
20
-73.992382794001898
30
0
10
241.24453390236252
20
-73.826673701161397
30
0
0
SPLINE
5
513
100
AcDbEntity
8
0
100
AcDbSpline
70
0
71
3
72
8
73
4
74
0
42
0.000000001
43
0.0000000001
44
0.0000000001
40
0
40
0
40
0
40
0
40
1
40
1
40
1
40
1
10
256.11942267902566
20
-60.126562484968353
30
0
10
255.95371358618519
20
-60.126562484968353
30
0
10
255.81935486226041
20
-60.260921208893109
30
0
10
255.81935486226041
20
-60.426630301733617
30
0
0
LINE
5
514
100
AcDbEntity
8
0
100
AcDbLine
10
151.34442270521942
20
-60.126562484968353
30
0
11
164.74446610464719
21
-60.126562484968353
31
0
0
SPLINE
5
515
100
AcDbEntity
8
0
100
AcDbSpline
70
0
71
3
72
8
73
4
74
0
42
0.000000001
43
0.0000000001
44
0.0000000001
40
0
40
0
40
0
40
0
40
1
40
1
40
1
40
1
10
227.24435486940419
20
-73.826673701161397
30
0
10
227.24435486940419
20
-73.992382794001898
30
0
10
227.37871359332885
20
-74.126741517926661
30
0
10
227.54442268616953
20
-74.126741517926661
30
0
0
SPLINE
5
516
100
AcDbEntity
8
0
100
AcDbSpline
70
0
71
3
72
8
73
4
74
0
42
0.000000001
43
0.0000000001
44
0.0000000001
40
0
40
0
40
0
40
0
40
1
40
1
40
1
40
1
10
248.38139370960602
20
-60.126562484968353
30
0
10
247.8291449033205
20
-60.126562484968353
30
0
10
247.38128249023799
20
-60.574424898050843
30
0
10
247.38128249023799
20
-61.126673704336397
30
0
0
SPLINE
5
517
100
AcDbEntity
8
0
100
AcDbSpline
70
0
71
3
72
8
73
4
74
0
42
0.000000001
43
0.0000000001
44
0.0000000001
40
0
40
0
40
0
40
0
40
1
40
1
40
1
40
1
10
269.51946607845349
20
-74.126741517926661
30
0
10
269.68517517129396
20
-74.126741517926661
30
0
10
269.81953389521868
20
-73.992382794001898
30
0
10
269.81953389521868
20
-73.826673701161397
30
0
0
LINE
5
518
100
AcDbEntity
8
0
100
AcDbLine
10
164.74446610464719
20
-74.126741517926661
30
0
11
151.34442270521942
21
-74.126741517926661
31
0
0
SPLINE
5
519
100
AcDbEntity
8
0
100
AcDbSpline
70
0
71
3
72
8
73
4
74
0
42
0.000000001
43
0.0000000001
44
0.0000000001
40
0
40
0
40
0
40
0
40
1
40
1
40
1
40
1
10
50.744361695213215
20
-60.426630301733617
30
0
10
50.744361695213215
20
-60.260921208893109
30
0
10
50.610175226062744
20
-60.126562484968353
30
0
10
50.444466133222228
20
-60.126562484968353
30
0
0
LINE
5
520
100
AcDbEntity
8
0
100
AcDbLine
10
189.14435487892916
20
-73.826673701161397
30
0
11
189.14435487892916
21
-60.426630301733617
31
0
0
SPLINE
5
521
100
AcDbEntity
8
0
100
AcDbSpline
70
0
71
3
72
8
73
4
74
0
42
0.000000001
43
0.0000000001
44
0.0000000001
40
0
40
0
40
0
40
0
40
1
40
1
40
1
40
1
10
254.38137200671719
20
-61.126673704336397
30
0
10
254.38137200671719
20
-60.574424898050843
30
0
10
253.93385410318317
20
-60.126562484968353
30
0
10
253.3816052968977
20
-60.126562484968353
30
0
0
SPLINE
5
522
100
AcDbEntity
8
0
100
AcDbSpline
70
0
71
3
72
8
73
4
74
0
42
0.000000001
43
0.0000000001
44
0.0000000001
40
0
40
0
40
0
40
0
40
1
40
1
40
1
40
1
10
36.744527171803455
20
-73.826673701161397
30
0
10
36.744527171803455
20
-73.992382794001898
30
0
10
36.878713640953933
20
-74.126741517926661
30
0
10
37.044422733794448
20
-74.126741517926661
30
0
0
SPLINE
5
523
100
AcDbEntity
8
0
100
AcDbSpline
70
0
71
3
72
8
73
4
74
0
42
0.000000001
43
0.0000000001
44
0.0000000001
40
0
40
0
40
0
40
0
40
1
40
1
40
1
40
1
10
184.09453391665005
20
-60.426630301733617
30
0
10
184.09453391665005
20
-60.260921208893109
30
0
10
183.96017519272519
20
-60.126562484968353
30
0
10
183.79446609988469
20
-60.126562484968353
30
0
0
LINE
5
524
100
AcDbEntity
8
0
100
AcDbLine
10
184.09453391665005
20
-60.426630301733617
30
0
11
184.09453391665005
21
-73.826673701161397
31
0
0
LINE
5
525
100
AcDbEntity
8
0
100
AcDbLine
10
202.84446609512216
20
-74.126741517926661
30
0
11
189.4444226956945
21
-74.126741517926661
31
0
0
LINE
5
526
100
AcDbEntity
8
0
100
AcDbLine
10
203.14453391188752
20
-60.426630301733617
30
0
11
203.14453391188752
21
-73.826673701161397
31
0
0
LINE
5
527
100
AcDbEntity
8
0
100
AcDbLine
10
208.19435487416672
20
-73.826673701161397
30
0
11
208.19435487416672
21
-60.426630301733617
31
0
0
LINE
5
528
100
AcDbEntity
8
0
100
AcDbLine
10
240.94446608559718
20
-74.126741517926661
30
0
11
227.54442268616953
21
-74.126741517926661
31
0
0
SPLINE
5
529
100
AcDbEntity
8
0
100
AcDbSpline
70
0
71
3
72
8
73
4
74
0
42
0.000000001
43
0.0000000001
44
0.0000000001
40
0
40
0
40
0
40
0
40
1
40
1
40
1
40
1
10
50.444466133222228
20
-74.126741517926661
30
0
10
50.610175226062744
20
-74.126741517926661
30
0
10
50.744361695213215
20
-73.992382794001898
30
0
10
50.744361695213215
20
-73.826673701161397
30
0
0
LINE
5
530
100
AcDbEntity
8
0
100
AcDbLine
10
36.744527171803455
20
-73.826673701161397
30
0
11
36.744527171803455
21
-60.426630301733617
31
0
0
SPLINE
5
531
100
AcDbEntity
8
0
100
AcDbSpline
70
0
71
3
72
8
73
4
74
0
42
0.000000001
43
0.0000000001
44
0.0000000001
40
0
40
0
40
0
40
0
40
1
40
1
40
1
40
1
10
255.81935486226041
20
-73.826673701161397
30
0
10
255.81935486226041
20
-73.992382794001898
30
0
10
255.95371358618519
20
-74.126741517926661
30
0
10
256.11942267902566
20
-74.126741517926661
30
0
0
LINE
5
532
100
AcDbEntity
8
0
100
AcDbLine
10
50.744361695213215
20
-60.426630301733617
30
0
11
50.744361695213215
21
-73.826673701161397
31
0
0
LINE
5
533
100
AcDbEntity
8
0
100
AcDbLine
10
269.51946607845349
20
-74.126741517926661
30
0
11
256.11942267902566
21
-74.126741517926661
31
0
0
LINE
5
534
100
AcDbEntity
8
0
100
AcDbLine
10
50.444466133222228
20
-74.126741517926661
30
0
11
37.044422733794448
21
-74.126741517926661
31
0
0
SPLINE
5
535
100
AcDbEntity
8
0
100
AcDbSpline
70
0
71
3
72
8
73
4
74
0
42
0.000000001
43
0.0000000001
44
0.0000000001
40
0
40
0
40
0
40
0
40
1
40
1
40
1
40
1
10
208.494422690932
20
-60.126562484968353
30
0
10
208.32871359809138
20
-60.126562484968353
30
0
10
208.19435487416672
20
-60.260921208893109
30
0
10
208.19435487416672
20
-60.426630301733617
30
0
0
SPLINE
5
536
100
AcDbEntity
8
0
100
AcDbSpline
70
0
71
3
72
8
73
4
74
0
42
0.000000001
43
0.0000000001
44
0.0000000001
40
0
40
0
40
0
40
0
40
1
40
1
40
1
40
1
10
253.3816052968977
20
-75.626736092204425
30
0
10
253.93385410318317
20
-75.626736092204425
30
0
10
254.38137200671719
20
-75.178873679121963
30
0
10
254.38137200671719
20
-74.626624872836402
30
0
0
LINE
5
537
100
AcDbEntity
8
0
100
AcDbLine
10
189.4444226956945
20
-60.126562484968353
30
0
11
202.84446609512216
21
-60.126562484968353
31
0
0
SPLINE
5
538
100
AcDbEntity
8
0
100
AcDbSpline
70
0
71
3
72
8
73
4
74
0
42
0.000000001
43
0.0000000001
44
0.0000000001
40
0
40
0
40
0
40
0
40
1
40
1
40
1
40
1
10
56.094422729031955
20
-60.126562484968353
30
0
10
55.928713636191425
20
-60.126562484968353
30
0
10
55.79452716704094
20
-60.260921208893109
30
0
10
55.79452716704094
20
-60.426630301733617
30
0
0
SPLINE
5
539
100
AcDbEntity
8
0
100
AcDbSpline
70
0
71
3
72
8
73
4
74
0
42
0.000000001
43
0.0000000001
44
0.0000000001
40
0
40
0
40
0
40
0
40
1
40
1
40
1
40
1
10
170.09435488369172
20
-73.826673701161397
30
0
10
170.09435488369172
20
-73.992382794001898
30
0
10
170.22871360761641
20
-74.126741517926661
30
0
10
170.394422700457
20
-74.126741517926661
30
0
0
SPLINE
5
540
100
AcDbEntity
8
0
100
AcDbSpline
70
0
71
3
72
8
73
4
74
0
42
0.000000001
43
0.0000000001
44
0.0000000001
40
0
40
0
40
0
40
0
40
1
40
1
40
1
40
1
10
189.4444226956945
20
-60.126562484968353
30
0
10
189.27871360285388
20
-60.126562484968353
30
0
10
189.14435487892916
20
-60.260921208893109
30
0
10
189.14435487892916
20
-60.426630301733617
30
0
0
SPLINE
5
541
100
AcDbEntity
8
0
100
AcDbSpline
70
0
71
3
72
8
73
4
74
0
42
0.000000001
43
0.0000000001
44
0.0000000001
40
0
40
0
40
0
40
0
40
1
40
1
40
1
40
1
10
221.89446609035969
20
-74.126741517926661
30
0
10
222.06017518320022
20
-74.126741517926661
30
0
10
222.19453390712502
20
-73.992382794001898
30
0
10
222.19453390712502
20
-73.826673701161397
30
0
0
LINE
5
542
100
AcDbEntity
8
0
100
AcDbLine
10
222.19453390712502
20
-60.426630301733617
30
0
11
222.19453390712502
21
-73.826673701161397
31
0
0
LINE
5
543
100
AcDbEntity
8
0
100
AcDbLine
10
170.394422700457
20
-60.126562484968353
30
0
11
183.79446609988469
21
-60.126562484968353
31
0
0
LINE
5
544
100
AcDbEntity
8
0
100
AcDbLine
10
208.494422690932
20
-60.126562484968353
30
0
11
221.89446609035971
21
-60.126562484968353
31
0
0
SPLINE
5
545
100
AcDbEntity
8
0
100
AcDbSpline
70
0
71
3
72
8
73
4
74
0
42
0.000000001
43
0.0000000001
44
0.0000000001
40
0
40
0
40
0
40
0
40
1
40
1
40
1
40
1
10
241.24453390236252
20
-60.426630301733617
30
0
10
241.24453390236252
20
-60.260921208893109
30
0
10
241.11017517843771
20
-60.126562484968353
30
0
10
240.94446608559718
20
-60.126562484968353
30
0
0
LINE
5
546
100
AcDbEntity
8
0
100
AcDbLine
10
151.04435488845419
20
-73.826673701161397
30
0
11
151.04435488845419
21
-60.426630301733617
31
0
0
LINE
5
547
100
AcDbEntity
8
0
100
AcDbLine
10
221.89446609035969
20
-74.126741517926661
30
0
11
208.494422690932
21
-74.126741517926661
31
0
0
SPLINE
5
548
100
AcDbEntity
8
0
100
AcDbSpline
70
0
71
3
72
8
73
4
74
0
42
0.000000001
43
0.0000000001
44
0.0000000001
40
0
40
0
40
0
40
0
40
1
40
1
40
1
40
1
10
170.394422700457
20
-60.126562484968353
30
0
10
170.22871360761641
20
-60.126562484968353
30
0
10
170.09435488369172
20
-60.260921208893109
30
0
10
170.09435488369172
20
-60.426630301733617
30
0
0
SPLINE
5
549
100
AcDbEntity
8
0
100
AcDbSpline
70
0
71
3
72
8
73
4
74
0
42
0.000000001
43
0.0000000001
44
0.0000000001
40
0
40
0
40
0
40
0
40
1
40
1
40
1
40
1
10
222.19453390712502
20
-60.426630301733617
30
0
10
222.19453390712502
20
-60.260921208893109
30
0
10
222.06017518320022
20
-60.126562484968353
30
0
10
221.89446609035969
20
-60.126562484968353
30
0
0
SPLINE
5
550
100
AcDbEntity
8
0
100
AcDbSpline
70
0
71
3
72
8
73
4
74
0
42
0.000000001
43
0.0000000001
44
0.0000000001
40
0
40
0
40
0
40
0
40
1
40
1
40
1
40
1
10
203.14453391188752
20
-60.426630301733617
30
0
10
203.14453391188752
20
-60.260921208893109
30
0
10
203.01017518796269
20
-60.126562484968353
30
0
10
202.84446609512216
20
-60.126562484968353
30
0
0
SPLINE
5
551
100
AcDbEntity
8
0
100
AcDbSpline
70
0
71
3
72
8
73
4
74
0
42
0.000000001
43
0.0000000001
44
0.0000000001
40
0
40
0
40
0
40
0
40
1
40
1
40
1
40
1
10
183.79446609988469
20
-74.126741517926661
30
0
10
183.96017519272519
20
-74.126741517926661
30
0
10
184.09453391665005
20
-73.992382794001898
30
0
10
184.09453391665005
20
-73.826673701161397
30
0
0
SPLINE
5
552
100
AcDbEntity
8
0
100
AcDbSpline
70
0
71
3
72
8
73
4
74
0
42
0.000000001
43
0.0000000001
44
0.0000000001
40
0
40
0
40
0
40
0
40
1
40
1
40
1
40
1
10
202.84446609512216
20
-74.126741517926661
30
0
10
203.01017518796269
20
-74.126741517926661
30
0
10
203.14453391188752
20
-73.992382794001898
30
0
10
203.14453391188752
20
-73.826673701161397
30
0
0
LINE
5
553
100
AcDbEntity
8
0
100
AcDbLine
10
170.09435488369172
20
-73.826673701161397
30
0
11
170.09435488369172
21
-60.426630301733617
31
0
0
SPLINE
5
554
100
AcDbEntity
8
0
100
AcDbSpline
70
0
71
3
72
8
73
4
74
0
42
0.000000001
43
0.0000000001
44
0.0000000001
40
0
40
0
40
0
40
0
40
1
40
1
40
1
40
1
10
227.54442268616953
20
-60.126562484968353
30
0
10
227.37871359332885
20
-60.126562484968353
30
0
10
227.24435486940419
20
-60.260921208893109
30
0
10
227.24435486940419
20
-60.426630301733617
30
0
0
LINE
5
555
100
AcDbEntity
8
0
100
AcDbLine
10
241.24453390236252
20
-60.426630301733617
30
0
11
241.24453390236252
21
-73.826673701161397
31
0
0
SPLINE
5
556
100
AcDbEntity
8
0
100
AcDbSpline
70
0
71
3
72
8
73
4
74
0
42
0.000000001
43
0.0000000001
44
0.0000000001
40
0
40
0
40
0
40
0
40
1
40
1
40
1
40
1
10
189.14435487892916
20
-73.826673701161397
30
0
10
189.14435487892916
20
-73.992382794001898
30
0
10
189.27871360285388
20
-74.126741517926661
30
0
10
189.4444226956945
20
-74.126741517926661
30
0
0
LINE
5
557
100
AcDbEntity
8
0
100
AcDbLine
10
227.24435486940419
20
-73.826673701161397
30
0
11
227.24435486940419
21
-60.426630301733617
31
0
0
SPLINE
5
558
100
AcDbEntity
8
0
100
AcDbSpline
70
0
71
3
72
8
73
4
74
0
42
0.000000001
43
0.0000000001
44
0.0000000001
40
0
40
0
40
0
40
0
40
1
40
1
40
1
40
1
10
151.04435488845419
20
-73.826673701161397
30
0
10
151.04435488845419
20
-73.992382794001898
30
0
10
151.17871361237891
20
-74.126741517926661
30
0
10
151.34442270521942
20
-74.126741517926661
30
0
0
LINE
5
559
100
AcDbEntity
8
0
100
AcDbLine
10
227.54442268616953
20
-60.126562484968353
30
0
11
240.94446608559718
21
-60.126562484968353
31
0
0
SPLINE
5
560
100
AcDbEntity
8
0
100
AcDbSpline
70
0
71
3
72
8
73
4
74
0
42
0.000000001
43
0.0000000001
44
0.0000000001
40
0
40
0
40
0
40
0
40
1
40
1
40
1
40
1
10
126.64446611417219
20
-74.126741517926661
30
0
10
126.81017520701269
20
-74.126741517926661
30
0
10
126.9445339309375
20
-73.992382794001898
30
0
10
126.9445339309375
20
-73.826673701161397
30
0
0
SPLINE
5
561
100
AcDbEntity
8
0
100
AcDbSpline
70
0
71
3
72
8
73
4
74
0
42
0.000000001
43
0.0000000001
44
0.0000000001
40
0
40
0
40
0
40
0
40
1
40
1
40
1
40
1
10
107.59446611893472
20
-74.126741517926661
30
0
10
107.76017521177522
20
-74.126741517926661
30
0
10
107.8945339357
20
-73.992382794001898
30
0
10
107.8945339357
20
-73.826673701161397
30
0
0
SPLINE
5
562
100
AcDbEntity
8
0
100
AcDbSpline
70
0
71
3
72
8
73
4
74
0
42
0.000000001
43
0.0000000001
44
0.0000000001
40
0
40
0
40
0
40
0
40
1
40
1
40
1
40
1
10
74.844527162278453
20
-73.826673701161397
30
0
10
74.844527162278453
20
-73.992382794001898
30
0
10
74.978713631428931
20
-74.126741517926661
30
0
10
75.144422724269461
20
-74.126741517926661
30
0
0
LINE
5
563
100
AcDbEntity
8
0
100
AcDbLine
10
94.194422719506946
20
-60.126562484968353
30
0
11
107.59446611893472
21
-60.126562484968353
31
0
0
SPLINE
5
564
100
AcDbEntity
8
0
100
AcDbSpline
70
0
71
3
72
8
73
4
74
0
42
0.000000001
43
0.0000000001
44
0.0000000001
40
0
40
0
40
0
40
0
40
1
40
1
40
1
40
1
10
126.9445339309375
20
-60.426630301733617
30
0
10
126.9445339309375
20
-60.260921208893109
30
0
10
126.81017520701269
20
-60.126562484968353
30
0
10
126.64446611417219
20
-60.126562484968353
30
0
0
LINE
5
565
100
AcDbEntity
8
0
100
AcDbLine
10
132.29442270998189
20
-60.126562484968353
30
0
11
145.69446610940969
21
-60.126562484968353
31
0
0
SPLINE
5
566
100
AcDbEntity
8
0
100
AcDbSpline
70
0
71
3
72
8
73
4
74
0
42
0.000000001
43
0.0000000001
44
0.0000000001
40
0
40
0
40
0
40
0
40
1
40
1
40
1
40
1
10
247.38128249023799
20
-74.626624872836402
30
0
10
247.38128249023799
20
-75.178873679121963
30
0
10
247.8291449033205
20
-75.626736092204425
30
0
10
248.38139370960602
20
-75.626736092204425
30
0
0
LINE
5
567
100
AcDbEntity
8
0
100
AcDbLine
10
247.38128249023799
20
-74.626624872836402
30
0
11
247.38128249023799
21
-61.126673704336397
31
0
0
SPLINE
5
568
100
AcDbEntity
8
0
100
AcDbSpline
70
0
71
3
72
8
73
4
74
0
42
0.000000001
43
0.0000000001
44
0.0000000001
40
0
40
0
40
0
40
0
40
1
40
1
40
1
40
1
10
112.9443548979792
20
-73.826673701161397
30
0
10
112.9443548979792
20
-73.992382794001898
30
0
10
113.07871362190392
20
-74.126741517926661
30
0
10
113.2444227147445
20
-74.126741517926661
30
0
0
SPLINE
5
569
100
AcDbEntity
8
0
100
AcDbSpline
70
0
71
3
72
8
73
4
74
0
42
0.000000001
43
0.0000000001
44
0.0000000001
40
0
40
0
40
0
40
0
40
1
40
1
40
1
40
1
10
69.49446612845972
20
-74.126741517926661
30
0
10
69.660175221300236
20
-74.126741517926661
30
0
10
69.7943616904507
20
-73.992382794001898
30
0
10
69.7943616904507
20
-73.826673701161397
30
0
0
LINE
5
570
100
AcDbEntity
8
0
100
AcDbLine
10
248.38139370960602
20
-60.126562484968353
30
0
11
253.3816052968977
21
-60.126562484968353
31
0
0
LINE
5
571
100
AcDbEntity
8
0
100
AcDbLine
10
69.49446612845972
20
-74.126741517926661
30
0
11
56.094422729031955
21
-74.126741517926661
31
0
0
SPLINE
5
572
100
AcDbEntity
8
0
100
AcDbSpline
70
0
71
3
72
8
73
4
74
0
42
0.000000001
43
0.0000000001
44
0.0000000001
40
0
40
0
40
0
40
0
40
1
40
1
40
1
40
1
10
75.144422724269461
20
-60.126562484968353
30
0
10
74.978713631428931
20
-60.126562484968353
30
0
10
74.844527162278453
20
-60.260921208893109
30
0
10
74.844527162278453
20
-60.426630301733617
30
0
0
LINE
5
573
100
AcDbEntity
8
0
100
AcDbLine
10
253.3816052968977
20
-75.626736092204425
30
0
11
248.38139370960602
21
-75.626736092204425
31
0
0
SPLINE
5
574
100
AcDbEntity
8
0
100
AcDbSpline
70
0
71
3
72
8
73
4
74
0
42
0.000000001
43
0.0000000001
44
0.0000000001
40
0
40
0
40
0
40
0
40
1
40
1
40
1
40
1
10
278.25760626724116
20
-61.126673704336397
30
0
10
278.25760626724116
20
-60.574424898050843
30
0
10
277.80974385415868
20
-60.126562484968353
30
0
10
277.25749504787308
20
-60.126562484968353
30
0
0
SPLINE
5
575
100
AcDbEntity
8
0
100
AcDbSpline
70
0
71
3
72
8
73
4
74
0
42
0.000000001
43
0.0000000001
44
0.0000000001
40
0
40
0
40
0
40
0
40
1
40
1
40
1
40
1
10
88.844361685688227
20
-60.426630301733617
30
0
10
88.844361685688227
20
-60.260921208893109
30
0
10
88.710175216537749
20
-60.126562484968353
30
0
10
88.544466123697219
20
-60.126562484968353
30
0
0
SPLINE
5
576
100
AcDbEntity
8
0
100
AcDbSpline
70
0
71
3
72
8
73
4
74
0
42
0.000000001
43
0.0000000001
44
0.0000000001
40
0
40
0
40
0
40
0
40
1
40
1
40
1
40
1
10
113.2444227147445
20
-60.126562484968353
30
0
10
113.07871362190392
20
-60.126562484968353
30
0
10
112.9443548979792
20
-60.260921208893109
30
0
10
112.9443548979792
20
-60.426630301733617
30
0
0
LINE
5
577
100
AcDbEntity
8
0
100
AcDbLine
10
112.9443548979792
20
-73.826673701161397
30
0
11
112.9443548979792
21
-60.426630301733617
31
0
0
LINE
5
578
100
AcDbEntity
8
0
100
AcDbLine
10
37.044422733794448
20
-60.126562484968353
30
0
11
50.444466133222228
21
-60.126562484968353
31
0
0
SPLINE
5
579
100
AcDbEntity
8
0
100
AcDbSpline
70
0
71
3
72
8
73
4
74
0
42
0.000000001
43
0.0000000001
44
0.0000000001
40
0
40
0
40
0
40
0
40
1
40
1
40
1
40
1
10
107.8945339357
20
-60.426630301733617
30
0
10
107.8945339357
20
-60.260921208893109
30
0
10
107.76017521177522
20
-60.126562484968353
30
0
10
107.59446611893472
20
-60.126562484968353
30
0
0
SPLINE
5
580
100
AcDbEntity
8
0
100
AcDbSpline
70
0
71
3
72
8
73
4
74
0
42
0.000000001
43
0.0000000001
44
0.0000000001
40
0
40
0
40
0
40
0
40
1
40
1
40
1
40
1
10
93.894354902741696
20
-73.826673701161397
30
0
10
93.894354902741696
20
-73.992382794001898
30
0
10
94.028713626666431
20
-74.126741517926661
30
0
10
94.194422719506946
20
-74.126741517926661
30
0
0
SPLINE
5
581
100
AcDbEntity
8
0
100
AcDbSpline
70
0
71
3
72
8
73
4
74
0
42
0.000000001
43
0.0000000001
44
0.0000000001
40
0
40
0
40
0
40
0
40
1
40
1
40
1
40
1
10
69.7943616904507
20
-60.426630301733617
30
0
10
69.7943616904507
20
-60.260921208893109
30
0
10
69.660175221300236
20
-60.126562484968353
30
0
10
69.49446612845972
20
-60.126562484968353
30
0
0
LINE
5
582
100
AcDbEntity
8
0
100
AcDbLine
10
145.69446610940969
20
-74.126741517926661
30
0
11
132.29442270998189
21
-74.126741517926661
31
0
0
LINE
5
583
100
AcDbEntity
8
0
100
AcDbLine
10
254.38137200671719
20
-61.126673704336397
30
0
11
254.38137200671719
21
-74.626624872836402
31
0
0
SPLINE
5
584
100
AcDbEntity
8
0
100
AcDbSpline
70
0
71
3
72
8
73
4
74
0
42
0.000000001
43
0.0000000001
44
0.0000000001
40
0
40
0
40
0
40
0
40
1
40
1
40
1
40
1
10
271.25751675076197
20
-74.626624872836402
30
0
10
271.25751675076197
20
-75.178873679121963
30
0
10
271.70503465429601
20
-75.626736092204425
30
0
10
272.25728346058145
20
-75.626736092204425
30
0
0
SPLINE
5
585
100
AcDbEntity
8
0
100
AcDbSpline
70
0
71
3
72
8
73
4
74
0
42
0.000000001
43
0.0000000001
44
0.0000000001
40
0
40
0
40
0
40
0
40
1
40
1
40
1
40
1
10
132.29442270998189
20
-60.126562484968353
30
0
10
132.12871361714139
20
-60.126562484968353
30
0
10
131.99435489321669
20
-60.260921208893109
30
0
10
131.99435489321669
20
-60.426630301733617
30
0
0
LINE
5
586
100
AcDbEntity
8
0
100
AcDbLine
10
56.094422729031955
20
-60.126562484968353
30
0
11
69.49446612845972
21
-60.126562484968353
31
0
0
LINE
5
587
100
AcDbEntity
8
0
100
AcDbLine
10
88.844361685688227
20
-60.426630301733617
30
0
11
88.844361685688227
21
-73.826673701161397
31
0
0
SPLINE
5
588
100
AcDbEntity
8
0
100
AcDbSpline
70
0
71
3
72
8
73
4
74
0
42
0.000000001
43
0.0000000001
44
0.0000000001
40
0
40
0
40
0
40
0
40
1
40
1
40
1
40
1
10
277.25749504787308
20
-75.626736092204425
30
0
10
277.80974385415868
20
-75.626736092204425
30
0
10
278.25760626724116
20
-75.178873679121963
30
0
10
278.25760626724116
20
-74.626624872836402
30
0
0
SPLINE
5
589
100
AcDbEntity
8
0
100
AcDbSpline
70
0
71
3
72
8
73
4
74
0
42
0.000000001
43
0.0000000001
44
0.0000000001
40
0
40
0
40
0
40
0
40
1
40
1
40
1
40
1
10
55.79452716704094
20
-73.826673701161397
30
0
10
55.79452716704094
20
-73.992382794001898
30
0
10
55.928713636191425
20
-74.126741517926661
30
0
10
56.094422729031955
20
-74.126741517926661
30
0
0
LINE
5
590
100
AcDbEntity
8
0
100
AcDbLine
10
145.994533926175
20
-60.426630301733617
30
0
11
145.994533926175
21
-73.826673701161397
31
0
0
LINE
5
591
100
AcDbEntity
8
0
100
AcDbLine
10
278.25760626724116
20
-61.126673704336397
30
0
11
278.25760626724116
21
-74.626624872836402
31
0
0
LINE
5
592
100
AcDbEntity
8
0
100
AcDbLine
10
298.39453388807499
20
-60.426630301733617
30
0
11
298.39453388807499
21
-73.826673701161397
31
0
0
LINE
5
593
100
AcDbEntity
8
0
100
AcDbLine
10
88.544466123697219
20
-74.126741517926661
30
0
11
75.144422724269461
21
-74.126741517926661
31
0
0
SPLINE
5
594
100
AcDbEntity
8
0
100
AcDbSpline
70
0
71
3
72
8
73
4
74
0
42
0.000000001
43
0.0000000001
44
0.0000000001
40
0
40
0
40
0
40
0
40
1
40
1
40
1
40
1
10
272.25728346058145
20
-60.126562484968353
30
0
10
271.70503465429601
20
-60.126562484968353
30
0
10
271.25751675076197
20
-60.574424898050843
30
0
10
271.25751675076197
20
-61.126673704336397
30
0
0
LINE
5
595
100
AcDbEntity
8
0
100
AcDbLine
10
113.2444227147445
20
-60.126562484968353
30
0
11
126.64446611417219
21
-60.126562484968353
31
0
0
SPLINE
5
596
100
AcDbEntity
8
0
100
AcDbSpline
70
0
71
3
72
8
73
4
74
0
42
0.000000001
43
0.0000000001
44
0.0000000001
40
0
40
0
40
0
40
0
40
1
40
1
40
1
40
1
10
131.99435489321669
20
-73.826673701161397
30
0
10
131.99435489321669
20
-73.992382794001898
30
0
10
132.12871361714139
20
-74.126741517926661
30
0
10
132.29442270998189
20
-74.126741517926661
30
0
0
LINE
5
597
100
AcDbEntity
8
0
100
AcDbLine
10
165.04453392141249
20
-60.426630301733617
30
0
11
165.04453392141249
21
-73.826673701161397
31
0
0
SPLINE
5
598
100
AcDbEntity
8
0
100
AcDbSpline
70
0
71
3
72
8
73
4
74
0
42
0.000000001
43
0.0000000001
44
0.0000000001
40
0
40
0
40
0
40
0
40
1
40
1
40
1
40
1
10
88.544466123697219
20
-74.126741517926661
30
0
10
88.710175216537749
20
-74.126741517926661
30
0
10
88.844361685688227
20
-73.992382794001898
30
0
10
88.844361685688227
20
-73.826673701161397
30
0
0
LINE
5
599
100
AcDbEntity
8
0
100
AcDbLine
10
272.25728346058145
20
-60.126562484968353
30
0
11
277.25749504787308
21
-60.126562484968353
31
0
0
SPLINE
5
600
100
AcDbEntity
8
0
100
AcDbSpline
70
0
71
3
72
8
73
4
74
0
42
0.000000001
43
0.0000000001
44
0.0000000001
40
0
40
0
40
0
40
0
40
1
40
1
40
1
40
1
10
145.69446610940969
20
-74.126741517926661
30
0
10
145.86017520225019
20
-74.126741517926661
30
0
10
145.994533926175
20
-73.992382794001898
30
0
10
145.994533926175
20
-73.826673701161397
30
0
0
LINE
5
601
100
AcDbEntity
8
0
100
AcDbLine
10
277.25749504787308
20
-75.626736092204425
30
0
11
272.25728346058145
21
-75.626736092204425
31
0
0
LINE
5
602
100
AcDbEntity
8
0
100
AcDbLine
10
271.25751675076197
20
-74.626624872836402
30
0
11
271.25751675076197
21
-61.126673704336397
31
0
0
LINE
5
603
100
AcDbEntity
8
0
100
AcDbLine
10
126.9445339309375
20
-60.426630301733617
30
0
11
126.9445339309375
21
-73.826673701161397
31
0
0
LINE
5
604
100
AcDbEntity
8
0
100
AcDbLine
10
131.99435489321669
20
-73.826673701161397
30
0
11
131.99435489321669
21
-60.426630301733617
31
0
0
LINE
5
605
100
AcDbEntity
8
0
100
AcDbLine
10
126.64446611417219
20
-74.126741517926661
30
0
11
113.2444227147445
21
-74.126741517926661
31
0
0
SPLINE
5
606
100
AcDbEntity
8
0
100
AcDbSpline
70
0
71
3
72
8
73
4
74
0
42
0.000000001
43
0.0000000001
44
0.0000000001
40
0
40
0
40
0
40
0
40
1
40
1
40
1
40
1
10
145.994533926175
20
-60.426630301733617
30
0
10
145.994533926175
20
-60.260921208893109
30
0
10
145.86017520225019
20
-60.126562484968353
30
0
10
145.69446610940969
20
-60.126562484968353
30
0
0
LINE
5
607
100
AcDbEntity
8
0
100
AcDbLine
10
107.8945339357
20
-60.426630301733617
30
0
11
107.8945339357
21
-73.826673701161397
31
0
0
LINE
5
608
100
AcDbEntity
8
0
100
AcDbLine
10
69.7943616904507
20
-60.426630301733617
30
0
11
69.7943616904507
21
-73.826673701161397
31
0
0
LINE
5
609
100
AcDbEntity
8
0
100
AcDbLine
10
75.144422724269461
20
-60.126562484968353
30
0
11
88.544466123697219
21
-60.126562484968353
31
0
0
LINE
5
610
100
AcDbEntity
8
0
100
AcDbLine
10
107.59446611893472
20
-74.126741517926661
30
0
11
94.194422719506946
21
-74.126741517926661
31
0
0
LINE
5
611
100
AcDbEntity
8
0
100
AcDbLine
10
55.79452716704094
20
-73.826673701161397
30
0
11
55.79452716704094
21
-60.426630301733617
31
0
0
LINE
5
612
100
AcDbEntity
8
0
100
AcDbLine
10
93.894354902741696
20
-73.826673701161397
30
0
11
93.894354902741696
21
-60.426630301733617
31
0
0
SPLINE
5
613
100
AcDbEntity
8
0
100
AcDbSpline
70
0
71
3
72
8
73
4
74
0
42
0.000000001
43
0.0000000001
44
0.0000000001
40
0
40
0
40
0
40
0
40
1
40
1
40
1
40
1
10
94.194422719506946
20
-60.126562484968353
30
0
10
94.028713626666431
20
-60.126562484968353
30
0
10
93.894354902741696
20
-60.260921208893109
30
0
10
93.894354902741696
20
-60.426630301733617
30
0
0
LINE
5
614
100
AcDbEntity
8
0
100
AcDbLine
10
74.844527162278453
20
-73.826673701161397
30
0
11
74.844527162278453
21
-60.426630301733617
31
0
0
LINE
5
615
100
AcDbEntity
8
0
100
AcDbLine
10
36.456861698785097
20
-117.57663028744609
30
0
11
36.456861698785097
21
-130.97667368687388
31
0
0
LINE
5
616
100
AcDbEntity
8
0
100
AcDbLine
10
22.756922737366327
20
-117.2765624706809
30
0
11
36.156966136794097
21
-117.2765624706809
31
0
0
LINE
5
617
100
AcDbEntity
8
0
100
AcDbLine
10
261.46311028619681
20
-86.263640657687574
30
0
11
261.46311028619681
21
-81.2636013251702
31
0
0
LINE
5
618
100
AcDbEntity
8
0
100
AcDbLine
10
14.72537163260338
20
-131.27674150363922
30
0
11
1.3255004879498755
21
-131.27674150363922
31
0
0
SPLINE
5
619
100
AcDbEntity
8
0
100
AcDbSpline
70
0
71
3
72
8
73
4
74
0
42
0.000000001
43
0.0000000001
44
0.0000000001
40
0
40
0
40
0
40
0
40
1
40
1
40
1
40
1
10
1.025432671184614
20
-130.97667368687391
30
0
10
1.025432671184614
20
-131.14238277971441
30
0
10
1.1597913951093579
20
-131.27674150363922
30
0
10
1.3255004879498751
20
-131.27674150363922
30
0
0
SPLINE
5
620
100
AcDbEntity
8
0
100
AcDbSpline
70
0
71
3
72
8
73
4
74
0
42
0.000000001
43
0.0000000001
44
0.0000000001
40
0
40
0
40
0
40
0
40
1
40
1
40
1
40
1
10
15.025439449368641
20
-117.57663028744609
30
0
10
15.025439449368641
20
-117.41092119460559
30
0
10
14.891080725443897
20
-117.2765624706809
30
0
10
14.72537163260338
20
-117.2765624706809
30
0
0
LINE
5
621
100
AcDbEntity
8
0
100
AcDbLine
10
300.41956101430492
20
-149.85219381433944
30
0
11
300.41956101430492
21
-60.600937914731325
31
0
0
LINE
5
622
100
AcDbEntity
8
0
100
AcDbLine
10
284.39435485511672
20
-73.826673701161397
30
0
11
284.39435485511672
21
-60.426630301733617
31
0
0
LINE
5
623
100
AcDbEntity
8
0
100
AcDbLine
10
1.025432671184614
20
-130.97667368687391
30
0
11
1.025432671184614
21
-117.57663028744609
31
0
0
SPLINE
5
624
100
AcDbEntity
8
0
100
AcDbSpline
70
0
71
3
72
8
73
4
74
0
42
0.000000001
43
0.0000000001
44
0.0000000001
40
0
40
0
40
0
40
0
40
1
40
1
40
1
40
1
10
278.46327846771061
20
-105.13966333091992
30
0
10
278.46327846771061
20
-104.5874145246344
30
0
10
278.01541605462813
20
-104.13972436632619
30
0
10
277.46316724834253
20
-104.13972436632619
30
0
0
LINE
5
625
100
AcDbEntity
8
0
100
AcDbLine
10
36.156966136794097
20
-131.27674150363922
30
0
11
22.756922737366327
21
-131.27674150363922
31
0
0
SPLINE
5
626
100
AcDbEntity
8
0
100
AcDbSpline
70
0
71
3
72
8
73
4
74
0
42
0.000000001
43
0.0000000001
44
0.0000000001
40
0
40
0
40
0
40
0
40
1
40
1
40
1
40
1
10
284.69442267188197
20
-60.126562484968353
30
0
10
284.52871357904138
20
-60.126562484968353
30
0
10
284.39435485511672
20
-60.260921208893109
30
0
10
284.39435485511672
20
-60.426630301733617
30
0
0
LINE
5
627
100
AcDbEntity
8
0
100
AcDbLine
10
255.23196608202539
20
-112.2267415084017
30
0
11
241.83192268259759
21
-112.2267415084017
31
0
0
LINE
5
628
100
AcDbEntity
8
0
100
AcDbLine
10
-3.3804999919062135
20
-60.600937909989945
30
0
11
-3.38050016117591
21
-149.85219380959808
31
0
0
LINE
5
629
100
AcDbEntity
8
0
100
AcDbLine
10
262.46322150556483
20
-87.263579622281341
30
0
11
277.46316724834253
21
-87.263579622281341
31
0
0
SPLINE
5
630
100
AcDbEntity
8
0
100
AcDbSpline
70
0
71
3
72
8
73
4
74
0
42
0.000000001
43
0.0000000001
44
0.0000000001
40
0
40
0
40
0
40
0
40
1
40
1
40
1
40
1
10
241.83192268259759
20
-98.226562475443359
30
0
10
241.66621358975709
20
-98.226562475443359
30
0
10
241.53185486583232
20
-98.360921199368136
30
0
10
241.53185486583232
20
-98.526630292208637
30
0
0
SPLINE
5
631
100
AcDbEntity
8
0
100
AcDbSpline
70
0
71
3
72
8
73
4
74
0
42
0.000000001
43
0.0000000001
44
0.0000000001
40
0
40
0
40
0
40
0
40
1
40
1
40
1
40
1
10
36.456861698785097
20
-117.57663028744609
30
0
10
36.456861698785097
20
-117.41092119460559
30
0
10
36.322675229634612
20
-117.2765624706809
30
0
10
36.156966136794097
20
-117.2765624706809
30
0
0
LINE
5
632
100
AcDbEntity
8
0
100
AcDbLine
10
255.53203389879059
20
-98.526630292208637
30
0
11
255.53203389879059
21
-111.92667369163641
31
0
0
LINE
5
633
100
AcDbEntity
8
0
100
AcDbLine
10
284.69442267188197
20
-60.126562484968353
30
0
11
298.09446607130963
21
-60.126562484968353
31
0
0
LINE
5
634
100
AcDbEntity
8
0
100
AcDbLine
10
277.46316724834253
20
-80.263662360576433
30
0
11
262.46322150556483
21
-80.263662360576433
31
0
0
LINE
5
635
100
AcDbEntity
8
0
100
AcDbLine
10
277.46316724834253
20
-111.13981388280529
30
0
11
262.46322150556483
21
-111.13981388280529
31
0
0
LINE
5
636
100
AcDbEntity
8
0
100
AcDbLine
10
298.09446607130968
20
-74.126741517926661
30
0
11
284.69442267188197
21
-74.126741517926661
31
0
0
SPLINE
5
637
100
AcDbEntity
8
0
100
AcDbSpline
70
0
71
3
72
8
73
4
74
0
42
0.000000001
43
0.0000000001
44
0.0000000001
40
0
40
0
40
0
40
0
40
1
40
1
40
1
40
1
10
255.23196608202539
20
-112.2267415084017
30
0
10
255.39767517486592
20
-112.2267415084017
30
0
10
255.53203389879059
20
-112.09238278447691
30
0
10
255.53203389879059
20
-111.92667369163641
30
0
0
SPLINE
5
638
100
AcDbEntity
8
0
100
AcDbSpline
70
0
71
3
72
8
73
4
74
0
42
0.000000001
43
0.0000000001
44
0.0000000001
40
0
40
0
40
0
40
0
40
1
40
1
40
1
40
1
10
36.156966136794097
20
-131.27674150363922
30
0
10
36.322675229634612
20
-131.27674150363922
30
0
10
36.456861698785097
20
-131.14238277971441
30
0
10
36.456861698785097
20
-130.97667368687391
30
0
0
SPLINE
5
639
100
AcDbEntity
8
0
100
AcDbSpline
70
0
71
3
72
8
73
4
74
0
42
0.000000001
43
0.0000000001
44
0.0000000001
40
0
40
0
40
0
40
0
40
1
40
1
40
1
40
1
10
22.756922737366327
20
-117.2765624706809
30
0
10
22.591213644525808
20
-117.2765624706809
30
0
10
22.457027175375327
20
-117.41092119460559
30
0
10
22.457027175375327
20
-117.57663028744609
30
0
0
SPLINE
5
640
100
AcDbEntity
8
0
100
AcDbSpline
70
0
71
3
72
8
73
4
74
0
42
0.000000001
43
0.0000000001
44
0.0000000001
40
0
40
0
40
0
40
0
40
1
40
1
40
1
40
1
10
262.46322150556483
20
-80.263662360576433
30
0
10
261.91097269927917
20
-80.263662360576433
30
0
10
261.46311028619681
20
-80.711352518884667
30
0
10
261.46311028619681
20
-81.2636013251702
30
0
0
LINE
5
641
100
AcDbEntity
8
0
100
AcDbLine
10
15.025439449368641
20
-117.57663028744609
30
0
11
15.025439449368641
21
-130.97667368687388
31
0
0
SPLINE
5
642
100
AcDbEntity
8
0
100
AcDbSpline
70
0
71
3
72
8
73
4
74
0
42
0.000000001
43
0.0000000001
44
0.0000000001
40
0
40
0
40
0
40
0
40
1
40
1
40
1
40
1
10
276.96328389343279
20
-89.001630294589887
30
0
10
276.96328389343279
20
-88.835921201749358
30
0
10
276.82892516950807
20
-88.701562477824609
30
0
10
276.66321607666754
20
-88.701562477824609
30
0
0
SPLINE
5
643
100
AcDbEntity
8
0
100
AcDbSpline
70
0
71
3
72
8
73
4
74
0
42
0.000000001
43
0.0000000001
44
0.0000000001
40
0
40
0
40
0
40
0
40
1
40
1
40
1
40
1
10
255.53203389879059
20
-98.526630292208637
30
0
10
255.53203389879059
20
-98.360921199368136
30
0
10
255.39767517486592
20
-98.226562475443359
30
0
10
255.23196608202539
20
-98.226562475443359
30
0
0
LINE
5
644
100
AcDbEntity
8
0
100
AcDbLine
10
262.46322150556483
20
-104.13972436632619
30
0
11
277.46316724834253
21
-104.13972436632619
31
0
0
LINE
5
645
100
AcDbEntity
8
0
100
AcDbLine
10
1.3255004879498751
20
-117.2765624706809
30
0
11
14.72537163260338
21
-117.2765624706809
31
0
0
LINE
5
646
100
AcDbEntity
8
0
100
AcDbLine
10
241.83192268259759
20
-98.226562475443359
30
0
11
255.23196608202539
21
-98.226562475443359
31
0
0
SPLINE
5
647
100
AcDbEntity
8
0
100
AcDbSpline
70
0
71
3
72
8
73
4
74
0
42
0.000000001
43
0.0000000001
44
0.0000000001
40
0
40
0
40
0
40
0
40
1
40
1
40
1
40
1
10
284.39435485511672
20
-73.826673701161397
30
0
10
284.39435485511672
20
-73.992382794001898
30
0
10
284.52871357904138
20
-74.126741517926661
30
0
10
284.69442267188197
20
-74.126741517926661
30
0
0
SPLINE
5
648
100
AcDbEntity
8
0
100
AcDbSpline
70
0
71
3
72
8
73
4
74
0
42
0.000000001
43
0.0000000001
44
0.0000000001
40
0
40
0
40
0
40
0
40
1
40
1
40
1
40
1
10
14.72537163260338
20
-131.27674150363922
30
0
10
14.891080725443897
20
-131.27674150363922
30
0
10
15.025439449368641
20
-131.14238277971441
30
0
10
15.025439449368641
20
-130.97667368687391
30
0
0
SPLINE
5
649
100
AcDbEntity
8
0
100
AcDbSpline
70
0
71
3
72
8
73
4
74
0
42
0.000000001
43
0.0000000001
44
0.0000000001
40
0
40
0
40
0
40
0
40
1
40
1
40
1
40
1
10
298.09446607130968
20
-74.126741517926661
30
0
10
298.26017516415033
20
-74.126741517926661
30
0
10
298.39453388807499
20
-73.992382794001898
30
0
10
298.39453388807499
20
-73.826673701161397
30
0
0
LINE
5
650
100
AcDbEntity
8
0
100
AcDbLine
10
278.46327846771061
20
-81.2636013251702
30
0
11
278.46327846771061
21
-86.263640657687574
31
0
0
SPLINE
5
651
100
AcDbEntity
8
0
100
AcDbSpline
70
0
71
3
72
8
73
4
74
0
42
0.000000001
43
0.0000000001
44
0.0000000001
40
0
40
0
40
0
40
0
40
1
40
1
40
1
40
1
10
262.96310486047452
20
-102.4016736940176
30
0
10
262.96310486047452
20
-102.56738278685819
30
0
10
263.09746358439918
20
-102.70174151078292
30
0
10
263.26317267723982
20
-102.70174151078292
30
0
0
SPLINE
5
652
100
AcDbEntity
8
0
100
AcDbSpline
70
0
71
3
72
8
73
4
74
0
42
0.000000001
43
0.0000000001
44
0.0000000001
40
0
40
0
40
0
40
0
40
1
40
1
40
1
40
1
10
262.46322150556483
20
-104.13972436632619
30
0
10
261.91097269927917
20
-104.13972436632619
30
0
10
261.46311028619681
20
-104.5874145246344
30
0
10
261.46311028619681
20
-105.13966333091992
30
0
0
LINE
5
653
100
AcDbEntity
8
0
100
AcDbLine
10
261.46311028619681
20
-110.13970266343728
30
0
11
261.46311028619681
21
-105.13966333091992
31
0
0
LINE
5
654
100
AcDbEntity
8
0
100
AcDbLine
10
241.53185486583232
20
-111.92667369163641
30
0
11
241.53185486583232
21
-98.526630292208637
31
0
0
LINE
5
655
100
AcDbEntity
8
0
100
AcDbLine
10
278.46327846771061
20
-105.13966333091992
30
0
11
278.46327846771061
21
-110.1397026634373
31
0
0
SPLINE
5
656
100
AcDbEntity
8
0
100
AcDbSpline
70
0
71
3
72
8
73
4
74
0
42
0.000000001
43
0.0000000001
44
0.0000000001
40
0
40
0
40
0
40
0
40
1
40
1
40
1
40
1
10
298.39453388807499
20
-60.426630301733617
30
0
10
298.39453388807499
20
-60.260921208893109
30
0
10
298.26017516415033
20
-60.126562484968353
30
0
10
298.09446607130968
20
-60.126562484968353
30
0
0
SPLINE
5
657
100
AcDbEntity
8
0
100
AcDbSpline
70
0
71
3
72
8
73
4
74
0
42
0.000000001
43
0.0000000001
44
0.0000000001
40
0
40
0
40
0
40
0
40
1
40
1
40
1
40
1
10
241.53185486583232
20
-111.92667369163641
30
0
10
241.53185486583232
20
-112.09238278447691
30
0
10
241.66621358975709
20
-112.2267415084017
30
0
10
241.83192268259759
20
-112.2267415084017
30
0
0
LINE
5
658
100
AcDbEntity
8
0
100
AcDbLine
10
22.457027175375327
20
-130.97667368687391
30
0
11
22.457027175375327
21
-117.57663028744609
31
0
0
SPLINE
5
659
100
AcDbEntity
8
0
100
AcDbSpline
70
0
71
3
72
8
73
4
74
0
42
0.000000001
43
0.0000000001
44
0.0000000001
40
0
40
0
40
0
40
0
40
1
40
1
40
1
40
1
10
278.46327846771061
20
-81.2636013251702
30
0
10
278.46327846771061
20
-80.711352518884667
30
0
10
278.01541605462813
20
-80.263662360576433
30
0
10
277.46316724834253
20
-80.263662360576433
30
0
0
SPLINE
5
660
100
AcDbEntity
8
0
100
AcDbSpline
70
0
71
3
72
8
73
4
74
0
42
0.000000001
43
0.0000000001
44
0.0000000001
40
0
40
0
40
0
40
0
40
1
40
1
40
1
40
1
10
277.46316724834253
20
-111.13981388280529
30
0
10
278.01541605462813
20
-111.13981388280529
30
0
10
278.46327846771061
20
-110.69195146972289
30
0
10
278.46327846771061
20
-110.13970266343728
30
0
0
SPLINE
5
661
100
AcDbEntity
8
0
100
AcDbSpline
70
0
71
3
72
8
73
4
74
0
42
0.000000001
43
0.0000000001
44
0.0000000001
40
0
40
0
40
0
40
0
40
1
40
1
40
1
40
1
10
261.46311028619681
20
-110.13970266343728
30
0
10
261.46311028619681
20
-110.69195146972289
30
0
10
261.91097269927917
20
-111.13981388280529
30
0
10
262.46322150556483
20
-111.13981388280529
30
0
0
SPLINE
5
662
100
AcDbEntity
8
0
100
AcDbSpline
70
0
71
3
72
8
73
4
74
0
42
0.000000001
43
0.0000000001
44
0.0000000001
40
0
40
0
40
0
40
0
40
1
40
1
40
1
40
1
10
1.3255004879498751
20
-117.2765624706809
30
0
10
1.1597913951093579
20
-117.2765624706809
30
0
10
1.025432671184614
20
-117.41092119460559
30
0
10
1.025432671184614
20
-117.57663028744609
30
0
0
SPLINE
5
663
100
AcDbEntity
8
0
100
AcDbSpline
70
0
71
3
72
8
73
4
74
0
42
0.000000001
43
0.0000000001
44
0.0000000001
40
0
40
0
40
0
40
0
40
1
40
1
40
1
40
1
10
22.457027175375327
20
-130.97667368687391
30
0
10
22.457027175375327
20
-131.14238277971441
30
0
10
22.591213644525808
20
-131.27674150363922
30
0
10
22.756922737366327
20
-131.27674150363922
30
0
0
SPLINE
5
664
100
AcDbEntity
8
0
100
AcDbSpline
70
0
71
3
72
8
73
4
74
0
42
0.000000001
43
0.0000000001
44
0.0000000001
40
0
40
0
40
0
40
0
40
1
40
1
40
1
40
1
10
261.46311028619681
20
-86.263640657687574
30
0
10
261.46311028619681
20
-86.815889463973122
30
0
10
261.91097269927917
20
-87.263579622281341
30
0
10
262.46322150556483
20
-87.263579622281341
30
0
0
SPLINE
5
665
100
AcDbEntity
8
0
100
AcDbSpline
70
0
71
3
72
8
73
4
74
0
42
0.000000001
43
0.0000000001
44
0.0000000001
40
0
40
0
40
0
40
0
40
1
40
1
40
1
40
1
10
277.46316724834253
20
-87.263579622281341
30
0
10
278.01541605462813
20
-87.263579622281341
30
0
10
278.46327846771061
20
-86.815889463973122
30
0
10
278.46327846771061
20
-86.263640657687574
30
0
0
SPLINE
5
666
100
AcDbEntity
8
0
100
AcDbSpline
70
0
71
3
72
8
73
4
74
0
42
0.000000001
43
0.0000000001
44
0.0000000001
40
0
40
0
40
0
40
0
40
1
40
1
40
1
40
1
10
276.66321607666754
20
-102.70174151078292
30
0
10
276.82892516950807
20
-102.70174151078292
30
0
10
276.96328389343279
20
-102.56738278685819
30
0
10
276.96328389343279
20
-102.4016736940176
30
0
0
SPLINE
5
667
100
AcDbEntity
8
0
100
AcDbSpline
70
0
71
3
72
8
73
4
74
0
42
0.000000001
43
0.0000000001
44
0.0000000001
40
0
40
0
40
0
40
0
40
1
40
1
40
1
40
1
10
14.72537163260338
20
-150.32674149887669
30
0
10
14.891080725443897
20
-150.32674149887669
30
0
10
15.025439449368641
20
-150.19238277495191
30
0
10
15.025439449368641
20
-150.02667368211144
30
0
0
SPLINE
5
668
100
AcDbEntity
8
0
100
AcDbSpline
70
0
71
3
72
8
73
4
74
0
42
0.000000001
43
0.0000000001
44
0.0000000001
40
0
40
0
40
0
40
0
40
1
40
1
40
1
40
1
10
38.837422679092725
20
-136.62663028268361
30
0
10
38.837422679092725
20
-136.46092118984311
30
0
10
38.703063955167977
20
-136.32656246591841
30
0
10
38.537527117101725
20
-136.32656246591841
30
0
0
LINE
5
669
100
AcDbEntity
8
0
100
AcDbLine
10
14.72537163260338
20
-150.32674149887669
30
0
11
1.3255004879498755
21
-150.32674149887669
31
0
0
SPLINE
5
670
100
AcDbEntity
8
0
100
AcDbSpline
70
0
71
3
72
8
73
4
74
0
42
0.000000001
43
0.0000000001
44
0.0000000001
40
0
40
0
40
0
40
0
40
1
40
1
40
1
40
1
10
1.3255004879498751
20
-136.32656246591841
30
0
10
1.1597913951093579
20
-136.32656246591841
30
0
10
1.025432671184614
20
-136.46092118984311
30
0
10
1.025432671184614
20
-136.62663028268361
30
0
0
SPLINE
5
671
100
AcDbEntity
8
0
100
AcDbSpline
70
0
71
3
72
8
73
4
74
0
42
0.000000001
43
0.0000000001
44
0.0000000001
40
0
40
0
40
0
40
0
40
1
40
1
40
1
40
1
10
15.025439449368641
20
-136.62663028268361
30
0
10
15.025439449368641
20
-136.46092118984311
30
0
10
14.891080725443897
20
-136.32656246591841
30
0
10
14.72537163260338
20
-136.32656246591841
30
0
0
SPLINE
5
672
100
AcDbEntity
8
0
100
AcDbSpline
70
0
71
3
72
8
73
4
74
0
42
0.000000001
43
0.0000000001
44
0.0000000001
40
0
40
0
40
0
40
0
40
1
40
1
40
1
40
1
10
1.025432671184614
20
-150.02667368211144
30
0
10
1.025432671184614
20
-150.19238277495191
30
0
10
1.1597913951093579
20
-150.32674149887669
30
0
10
1.3255004879498751
20
-150.32674149887669
30
0
0
LINE
5
673
100
AcDbEntity
8
0
100
AcDbLine
10
15.025439449368641
20
-136.62663028268361
30
0
11
15.025439449368641
21
-150.02667368211144
31
0
0
LINE
5
674
100
AcDbEntity
8
0
100
AcDbLine
10
1.3255004879498751
20
-136.32656246591841
30
0
11
14.72537163260338
21
-136.32656246591841
31
0
0
SPLINE
5
675
100
AcDbEntity
8
0
100
AcDbSpline
70
0
71
3
72
8
73
4
74
0
42
0.000000001
43
0.0000000001
44
0.0000000001
40
0
40
0
40
0
40
0
40
1
40
1
40
1
40
1
10
25.137483717673959
20
-136.32656246591841
30
0
10
24.971774624833451
20
-136.32656246591841
30
0
10
24.837415900908695
20
-136.46092118984311
30
0
10
24.837415900908695
20
-136.62663028268361
30
0
0
LINE
5
676
100
AcDbEntity
8
0
100
AcDbLine
10
1.025432671184614
20
-150.02667368211144
30
0
11
1.025432671184614
21
-136.62663028268361
31
0
0
LINE
5
677
100
AcDbEntity
8
0
100
AcDbLine
10
276.66321607666754
20
-102.70174151078292
30
0
11
263.26317267723982
21
-102.70174151078292
31
0
0
LINE
5
678
100
AcDbEntity
8
0
100
AcDbLine
10
263.26317267723982
20
-88.701562477824609
30
0
11
276.66321607666754
21
-88.701562477824609
31
0
0
SPLINE
5
679
100
AcDbEntity
8
0
100
AcDbSpline
70
0
71
3
72
8
73
4
74
0
42
0.000000001
43
0.0000000001
44
0.0000000001
40
0
40
0
40
0
40
0
40
1
40
1
40
1
40
1
10
263.26317267723982
20
-88.701562477824609
30
0
10
263.09746358439918
20
-88.701562477824609
30
0
10
262.96310486047452
20
-88.835921201749358
30
0
10
262.96310486047452
20
-89.001630294589887
30
0
0
LINE
5
680
100
AcDbEntity
8
0
100
AcDbLine
10
276.96328389343279
20
-89.001630294589887
30
0
11
276.96328389343279
21
-102.4016736940176
31
0
0
LINE
5
681
100
AcDbEntity
8
0
100
AcDbLine
10
262.96310486047452
20
-102.4016736940176
30
0
11
262.96310486047452
21
-89.001630294589887
31
0
0
LINE
5
682
100
AcDbEntity
8
0
100
AcDbLine
10
122.18203393212809
20
-98.526630292208637
30
0
11
122.18203393212809
21
-111.92667369163641
31
0
0
LINE
5
683
100
AcDbEntity
8
0
100
AcDbLine
10
127.23185489440729
20
-111.92667369163641
30
0
11
127.23185489440729
21
-98.526630292208637
31
0
0
LINE
5
684
100
AcDbEntity
8
0
100
AcDbLine
10
260.29281134985735
20
-136.62663028268361
30
0
11
260.29281134985735
21
-150.02667368211144
31
0
0
LINE
5
685
100
AcDbEntity
8
0
100
AcDbLine
10
265.34297682168511
20
-136.62663028268361
30
0
11
265.34297682168511
21
-150.02667368211144
31
0
0
ARC
5
686
100
AcDbEntity
8
0
100
AcDbCircle
10
297.91956101430492
20
-60.600937914731325
30
0
40
2.5
210
0
220
0
230
1
100
AcDbArc
50
0
51
90.000000000001307
0
ARC
5
687
100
AcDbEntity
8
0
100
AcDbCircle
10
297.91956101430492
20
-149.85219381433944
30
0
40
2.5
210
0
220
0
230
1
100
AcDbArc
50
-90.000000000001322
51
0
0
ARC
5
688
100
AcDbEntity
8
0
100
AcDbCircle
10
-0.88049999190621342
20
-60.600937914731325
30
0
40
2.5
210
0
220
-0
230
1
100
AcDbArc
50
89.99999999999946
51
180
0
ARC
5
689
100
AcDbEntity
8
0
100
AcDbCircle
10
-0.88050016117591134
20
-149.85219381433947
30
0
40
2.4999999999999987
210
0
220
0
230
1
100
AcDbArc
50
180
51
270.00000000000011
0
LINE
5
690
100
AcDbEntity
8
0
100
AcDbLine
10
-0.88050016117590768
20
-152.35219381433947
30
0
11
15.400850061252651
21
-152.3521938143395
31
0
0
LINE
5
691
100
AcDbEntity
8
0
100
AcDbLine
10
163.66335707318183
20
-152.35219381433947
30
0
11
133.33664735246307
21
-152.35219381433947
31
0
0
LINE
5
692
100
AcDbEntity
8
0
100
AcDbLine
10
297.88050458682079
20
-152.35219381433944
30
0
11
281.59915436439223
21
-152.35219381433944
31
0
0
LINE
5
693
100
AcDbEntity
8
0
100
AcDbLine
10
297.88050458682079
20
-152.35219381433944
30
0
11
297.91956101430486
21
-152.35219381433944
31
0
0
LINE
5
694
100
AcDbEntity
8
0
100
AcDbLine
10
297.88050458682079
20
-58.100937914731361
30
0
11
281.59915436439223
21
-58.100937914731354
31
0
0
LINE
5
695
100
AcDbEntity
8
0
100
AcDbLine
10
163.66335707318177
20
-58.100937914731325
30
0
11
133.33664735246305
21
-58.100937914731325
31
0
0
LINE
5
696
100
AcDbEntity
8
0
100
AcDbLine
10
-0.88050016117590779
20
-58.100937914731325
30
0
11
32.40085006125269
21
-58.100937914731396
31
0
0
LINE
5
697
100
AcDbEntity
8
0
100
AcDbLine
10
297.88050458682079
20
-58.100937914731361
30
0
11
297.91956101430486
21
-58.100937914731325
31
0
0
ARC
5
698
100
AcDbEntity
8
0
100
AcDbCircle
10
35.900850061252626
20
-54.807061070377081
30
0
40
3.4999999999999787
210
0
220
-0
230
1
100
AcDbArc
50
90
51
180
0
LINE
5
699
100
AcDbEntity
8
0
100
AcDbLine
10
35.900850061252626
20
-51.307061070377102
30
0
11
129.83664735246305
21
-51.307061070377117
31
0
0
ARC
5
700
100
AcDbEntity
8
0
100
AcDbCircle
10
129.83664735246305
20
-54.807061070377117
30
0
40
3.4999999999999964
210
0
220
0
230
1
100
AcDbArc
50
0
51
90
0
ARC
5
701
100
AcDbEntity
8
0
100
AcDbCircle
10
167.1633570731818
20
-54.807061070377117
30
0
40
3.5000000000000142
210
0
220
-0
230
1
100
AcDbArc
50
90
51
180
0
LINE
5
702
100
AcDbEntity
8
0
100
AcDbLine
10
278.09915436439223
20
-51.307061070377159
30
0
11
167.1633570731818
21
-51.307061070377102
31
0
0
ARC
5
703
100
AcDbEntity
8
0
100
AcDbCircle
10
278.09915436439223
20
-54.807061070377117
30
0
40
3.4999999999999432
210
0
220
0
230
1
100
AcDbArc
50
0
51
90
0
ARC
5
704
100
AcDbEntity
8
0
100
AcDbCircle
10
278.09915436439223
20
-155.64607065869367
30
0
40
3.4999999999999787
210
0
220
0
230
1
100
AcDbArc
50
-90
51
0
0
LINE
5
705
100
AcDbEntity
8
0
100
AcDbLine
10
278.09915436439223
20
-159.14607065869365
30
0
11
167.1633570731818
21
-159.14607065869367
31
0
0
ARC
5
706
100
AcDbEntity
8
0
100
AcDbCircle
10
167.1633570731818
20
-155.64607065869367
30
0
40
3.4999999999999787
210
0
220
0
230
1
100
AcDbArc
50
180
51
270
0
ARC
5
707
100
AcDbEntity
8
0
100
AcDbCircle
10
129.83664735246305
20
-155.64607065869367
30
0
40
3.5000000000000142
210
0
220
0
230
1
100
AcDbArc
50
-90
51
0
0
LINE
5
708
100
AcDbEntity
8
0
100
AcDbLine
10
18.900850061252619
20
-159.1460706586937
30
0
11
129.83664735246305
21
-159.1460706586937
31
0
0
ARC
5
709
100
AcDbEntity
8
0
100
AcDbCircle
10
18.900850061252619
20
-155.6460706586937
30
0
40
3.4999999999999698
210
0
220
0
230
1
100
AcDbArc
50
180
51
270
0
LINE
5
710
100
AcDbEntity
8
0
100
AcDbLine
10
32.400850061252648
20
-54.807061070377081
30
0
11
32.40085006125269
21
-58.100937914731396
31
0
0
LINE
5
711
100
AcDbEntity
8
0
100
AcDbLine
10
133.33664735246305
20
-54.807061070377117
30
0
11
133.33664735246305
21
-58.100937914731325
31
0
0
LINE
5
712
100
AcDbEntity
8
0
100
AcDbLine
10
163.66335707318177
20
-54.807061070377117
30
0
11
163.66335707318177
21
-58.100937914731325
31
0
0
LINE
5
713
100
AcDbEntity
8
0
100
AcDbLine
10
281.59915436439223
20
-54.807061070377117
30
0
11
281.59915436439223
21
-58.100937914731354
31
0
0
LINE
5
714
100
AcDbEntity
8
0
100
AcDbLine
10
281.59915436439223
20
-155.64607065869367
30
0
11
281.59915436439223
21
-152.35219381433944
31
0
0
LINE
5
715
100
AcDbEntity
8
0
100
AcDbLine
10
163.66335707318183
20
-155.64607065869367
30
0
11
163.66335707318183
21
-152.35219381433947
31
0
0
LINE
5
716
100
AcDbEntity
8
0
100
AcDbLine
10
133.33664735246307
20
-155.64607065869367
30
0
11
133.33664735246307
21
-152.35219381433947
31
0
0
LINE
5
717
100
AcDbEntity
8
0
100
AcDbLine
10
15.400850061252651
20
-155.6460706586937
30
0
11
15.400850061252651
21
-152.3521938143395
31
0
0
ENDSEC
0
SECTION
2
OBJECTS
0
DICTIONARY
5
C
100
AcDbDictionary
3
ACAD_GROUP
350
D
3
ACAD_MLINESTYLE
350
17
0
DICTIONARY
5
D
100
AcDbDictionary
0
DICTIONARY
5
1A
330
C
100
AcDbDictionary
0
DICTIONARY
5
17
100
AcDbDictionary
0
ENDSEC
0
EOF
