0
SECTION
2
HEADER
9
$INSUNITS
70
4
9
$ACADVER
1
AC1014
9
$HANDSEED
5
FFFF
0
ENDSEC
0
SECTION
2
TABLES
0
TABLE
2
VPORT
5
8
100
AcDbSymbolTable
0
ENDTAB
0
TABLE
2
LTYPE
5
5
100
AcDbSymbolTable
0
LTYPE
5
14
100
AcDbSymbolTableRecord
100
AcDbLinetypeTableRecord
2
BYBLOCK
70
0
0
LTYPE
5
15
100
AcDbSymbolTableRecord
100
AcDbLinetypeTableRecord
2
BYLAYER
70
0
0
ENDTAB
0
TABLE
2
LAYER
5
2
100
AcDbSymbolTable
70
2
0
LAYER
5
50
100
AcDbSymbolTableRecord
100
AcDbLayerTableRecord
2
0
70
0
6
CONTINUOUS
0
ENDTAB
0
TABLE
2
STYLE
5
3
100
AcDbSymbolTable
70
1
0
STYLE
5
11
100
AcDbSymbolTableRecord
100
AcDbTextStyleTableRecord
2
STANDARD
70
0
0
ENDTAB
0
TABLE
2
VIEW
5
6
100
AcDbSymbolTable
70
0
0
ENDTAB
0
TABLE
2
UCS
5
7
100
AcDbSymbolTable
70
0
0
ENDTAB
0
TABLE
2
APPID
5
9
100
AcDbSymbolTable
70
2
0
APPID
5
12
100
AcDbSymbolTableRecord
100
AcDbRegAppTableRecord
2
ACAD
70
0
0
ENDTAB
0
TABLE
2
DIMSTYLE
5
A
100
AcDbSymbolTable
70
1
0
ENDTAB
0
TABLE
2
BLOCK_RECORD
5
1
100
AcDbSymbolTable
70
1
0
BLOCK_RECORD
5
1F
100
AcDbSymbolTableRecord
100
AcDbBlockTableRecord
2
*MODEL_SPACE
0
BLOCK_RECORD
5
1B
100
AcDbSymbolTableRecord
100
AcDbBlockTableRecord
2
*PAPER_SPACE
0
ENDTAB
0
ENDSEC
0
SECTION
2
BLOCKS
0
BLOCK
5
20
100
AcDbEntity
100
AcDbBlockBegin
2
*MODEL_SPACE
0
ENDBLK
5
21
100
AcDbEntity
100
AcDbBlockEnd
0
BLOCK
5
1C
100
AcDbEntity
100
AcDbBlockBegin
2
*PAPER_SPACE
0
ENDBLK
5
1D
100
AcDbEntity
100
AcDbBlockEnd
0
ENDSEC
0
SECTION
2
ENTITIES
0
LWPOLYLINE
5
100
100
AcDbEntity
8
0
100
AcDbPolyline
90
22
70
1
43
0.0
10
299.91956101430492
20
-56.600937914731318
10
-2.8804999881131153
20
-56.600937914731318
42
0.41421356181760866
10
-4.880499988113109
20
-58.600937910938207
10
-4.8805001649690247
20
-151.85219381054637
42
0.41421356292858774
10
-2.8805001649689999
20
-153.85219381433947
10
234.24297682644755
20
-153.85219381433947
10
234.24297682644755
20
-134.9763677300036
42
-0.41421356237308982
10
235.24297682644757
20
-133.9763677300036
10
242.76797682644755
20
-133.9763677300036
42
-0.41421356237308982
10
243.76797682644758
20
-134.9763677300036
10
243.76797682644758
20
-153.85219381433947
10
299.91956101430492
20
-153.85219381433944
42
0.41421356237311063
10
301.91956101430486
20
-151.85219381433944
10
301.9195610143048
20
-134.80174150363916
42
0.41421356237309503
10
299.9195610143048
20
-132.80174150363922
10
283.86901034556814
20
-132.80174150363922
42
-0.41421356237309503
10
281.86901034556814
20
-130.80174150363922
10
281.86901034556814
20
-98.701562475443325
42
-0.41421356237309503
10
283.86901034556814
20
-96.701562475443339
10
299.91956101430486
20
-96.701562475443353
42
0.41421356237308982
10
301.9195610143048
20
-94.701562475443367
10
301.91956101430486
20
-58.600937914731325
42
0.41421356237309892
0
CIRCLE
5
101
100
AcDbEntity
8
0
100
AcDbCircle
10
0.051010163703947287
20
-157.65906626852112
30
0
40
1
210
0
220
0
230
1
0
CIRCLE
5
102
100
AcDbEntity
8
0
100
AcDbCircle
10
0.051010163703947287
20
-52.794065384687521
30
0
40
1
210
0
220
0
230
1
0
CIRCLE
5
103
100
AcDbEntity
8
0
100
AcDbCircle
10
148.50000221282244
20
-52.794065384687521
30
0
40
1
210
0
220
0
230
1
0
CIRCLE
5
104
100
AcDbEntity
8
0
100
AcDbCircle
10
296.94899426194092
20
-52.794065384687521
30
0
40
1
210
0
220
0
230
1
0
CIRCLE
5
105
100
AcDbEntity
8
0
100
AcDbCircle
10
296.94899426194092
20
-157.65906626852112
30
0
40
1
210
0
220
0
230
1
0
CIRCLE
5
106
100
AcDbEntity
8
0
100
AcDbCircle
10
148.50000221282244
20
-157.65906626852112
30
0
40
1
210
0
220
0
230
1
0
LWPOLYLINE
5
107
100
AcDbEntity
8
0
100
AcDbPolyline
90
8
70
1
43
0.0
10
291.91956101430486
20
-167.95237528417576
10
5.119499840163285
20
-167.9523752841757
42
-0.4142135629285833
10
-13.686804785318733
20
-149.1460706230265
10
-13.686804785318735
20
-61.307061444895083
42
-0.41421356237309503
10
5.119500214681274
20
-42.500756444895075
10
291.91956101430787
20
-42.50075644489506
42
-0.41421356237304774
10
310.72586563978695
20
-61.307061070377088
10
310.72586563978695
20
-149.14607065869376
42
-0.41421356237309759
0
CIRCLE
5
108
100
AcDbEntity
8
0
100
AcDbCircle
10
30.287713245772487
20
-52.794065384687485
30
0
40
1
210
0
220
0
230
1
0
ENDSEC
0
SECTION
2
OBJECTS
0
DICTIONARY
5
C
100
AcDbDictionary
3
ACAD_GROUP
350
D
3
ACAD_MLINESTYLE
350
17
0
DICTIONARY
5
D
100
AcDbDictionary
0
DICTIONARY
5
1A
330
C
100
AcDbDictionary
0
DICTIONARY
5
17
100
AcDbDictionary
0
ENDSEC
0
EOF
